<?xml version="1.0" standalone="no"?>
<!DOCTYPE svg PUBLIC "-//W3C//DTD SVG 1.1//EN" "http://www.w3.org/Graphics/SVG/1.1/DTD/svg11.dtd" >
<svg xmlns="http://www.w3.org/2000/svg" xmlns:xlink="http://www.w3.org/1999/xlink" version="1.1">
<metadata></metadata>
<defs>
<font id="pluto_sanscond_medium" horiz-adv-x="520" >
<font-face units-per-em="1000" ascent="750" descent="-250" />
<missing-glyph horiz-adv-x="205" />
<glyph unicode=" "  horiz-adv-x="205" />
<glyph unicode="&#x09;" horiz-adv-x="205" />
<glyph unicode="&#xa0;" horiz-adv-x="205" />
<glyph unicode="!" horiz-adv-x="261" d="M85 219l-18 461h126l-19 -461h-89zM54 67q0 38 19.5 59t56.5 21t57.5 -21t20.5 -59q0 -39 -20.5 -59.5t-57.5 -20.5q-76 0 -76 80z" />
<glyph unicode="&#x22;" horiz-adv-x="408" d="M160 680l-7 -252h-87l-5 252h99zM347 680l-6 -252h-88l-4 252h98z" />
<glyph unicode="#" horiz-adv-x="601" d="M283 10l30 144h-110l-33 -154h-93v10l31 144h-71v96h91l38 177h-70v96h91l34 157h92v-9l-32 -148h111l34 157h92v-9l-32 -148h79v-96h-99l-38 -177h78v-96h-98l-33 -154h-92v10zM261 427l-38 -177h111l38 177h-111z" />
<glyph unicode="$" horiz-adv-x="527" d="M223 -129v121q-105 9 -175 52l29 119q66 -48 146 -55v187l-51 16q-133 43 -133 175q0 75 48.5 130t135.5 69v84h75v-81q103 -4 181 -48l-36 -113q-63 40 -145 45v-178l36 -12q79 -27 117 -69.5t38 -109.5q0 -82 -51.5 -139.5t-139.5 -70.5v-122h-75zM357 195q0 50 -59 75 v-156q59 20 59 81zM165 494q0 -53 58 -75v146q-58 -18 -58 -71z" />
<glyph unicode="%" horiz-adv-x="778" d="M187 10l296 670h107v-9l-295 -671h-108v10zM32 509q0 85 43.5 133t114.5 48t115 -48.5t44 -132.5q0 -85 -44 -132.5t-115 -47.5t-114.5 47.5t-43.5 132.5zM124 509q0 -42 18 -64t48 -22q31 0 48.5 22t17.5 64t-17.5 64t-48.5 22q-30 0 -48 -22t-18 -64zM428 169 q0 85 43.5 133.5t114.5 48.5t115 -48.5t44 -133.5q0 -84 -44 -131.5t-115 -47.5t-114.5 47.5t-43.5 131.5zM520 169q0 -42 18 -63.5t48 -21.5q31 0 49 21.5t18 63.5q0 43 -18 65t-49 22q-30 0 -48 -22t-18 -65z" />
<glyph unicode="&#x26;" horiz-adv-x="665" d="M641 17v-18h-147l-46 52q-89 -61 -195 -61q-92 0 -147 50.5t-55 132.5q0 107 130 178q-35 42 -51.5 78t-16.5 85q0 73 51 124.5t142 51.5q90 0 141 -47t51 -130q0 -119 -142 -187l-2 -1l104 -112q58 77 91 174l93 -66q-40 -107 -108 -189zM279 101q46 0 96 32l-125 141 q-35 -18 -52.5 -37t-17.5 -47q0 -40 27.5 -64.5t71.5 -24.5zM236 504q0 -48 49 -104l25 12q65 30 65 92q0 32 -19.5 54t-49.5 22q-31 0 -50.5 -21.5t-19.5 -54.5z" />
<glyph unicode="'" horiz-adv-x="220" d="M160 680l-7 -252h-87l-5 252h99z" />
<glyph unicode="(" horiz-adv-x="281" d="M152 261q0 -132 29.5 -239t68.5 -173l-71 -42q-49 54 -93 175.5t-44 279.5q0 157 43.5 277.5t93.5 176.5l71 -42q-39 -66 -68.5 -172.5t-29.5 -240.5z" />
<glyph unicode=")" horiz-adv-x="281" d="M129 261q0 134 -29.5 240.5t-68.5 172.5l71 42q50 -56 93.5 -176.5t43.5 -277.5q0 -158 -44 -279.5t-93 -175.5l-71 42q39 66 68.5 173t29.5 239z" />
<glyph unicode="*" horiz-adv-x="440" d="M83 376l66 104l-108 28l26 86l111 -41l-8 127h100l-8 -127l111 41l26 -86l-110 -30l68 -101l-74 -47l-63 108l-63 -108z" />
<glyph unicode="+" horiz-adv-x="492" d="M295 540v-187h155v-101h-155v-186h-98v186h-156v101h156v187h98z" />
<glyph unicode="," horiz-adv-x="257" d="M64 -143l37 132q-49 12 -49 74q0 40 19.5 61.5t55.5 21.5t56.5 -22.5t20.5 -60.5q0 -50 -22.5 -121t-47.5 -114z" />
<glyph unicode="-" horiz-adv-x="467" d="M62 353h343v-101h-343v101z" />
<glyph unicode="." horiz-adv-x="259" d="M52 67q0 38 20 59t57 21t57.5 -21t20.5 -59q0 -39 -20.5 -59.5t-57.5 -20.5t-57 20.5t-20 59.5z" />
<glyph unicode="/" horiz-adv-x="456" d="M26 10l296 670h107v-9l-295 -671h-108v10z" />
<glyph unicode="0" horiz-adv-x="610" d="M51 339q0 163 64.5 257t188.5 94q125 0 190 -94t65 -257q0 -162 -65 -255.5t-190 -93.5q-124 0 -188.5 93.5t-64.5 255.5zM172 339q0 -231 132 -231q133 0 133 231q0 234 -133 234q-132 0 -132 -234z" />
<glyph unicode="1" horiz-adv-x="439" d="M12 525l251 155h93v-680h-127v529l-168 -101z" />
<glyph unicode="2" horiz-adv-x="556" d="M61 0v96l219 207q84 77 84 159q0 51 -25 81t-74 30q-52 0 -78.5 -39.5t-27.5 -106.5l-114 22q2 111 61.5 176t165.5 65q107 0 164 -61.5t57 -157.5q0 -64 -27 -116t-90 -112l-138 -131h270v-112h-447z" />
<glyph unicode="3" horiz-adv-x="542" d="M115 405h135q45 0 69.5 23.5t24.5 58.5q0 46 -32 70.5t-83 24.5q-42 0 -86.5 -14.5t-69.5 -29.5l-29 109q33 16 88 29.5t106 13.5q114 0 173.5 -48t59.5 -138q0 -53 -26 -94.5t-69 -54.5q57 -21 86.5 -61t29.5 -108q0 -92 -65.5 -144t-188.5 -52q-94 0 -193 43l31 107 q79 -41 157 -41q57 0 93.5 28.5t36.5 77.5q0 88 -113 88h-135v112z" />
<glyph unicode="4" horiz-adv-x="604" d="M571 132h-101v-132h-127v132h-317v84l276 464h168v-450h101v-98zM153 230h190v322z" />
<glyph unicode="5" horiz-adv-x="536" d="M75 319l-6 6l27 355h374v-112h-268l-10 -154h56q241 0 241 -192q0 -116 -68 -174t-183 -58q-108 0 -200 46l31 106q78 -43 156 -43q59 0 97 30t38 90q0 100 -128 100h-157z" />
<glyph unicode="6" horiz-adv-x="589" d="M333 581q-146 0 -156 -207q61 79 157 79q102 0 157 -58.5t55 -162.5q0 -109 -64.5 -175.5t-166.5 -66.5q-126 0 -195.5 95t-69.5 256q0 159 70 254t197 95q62 0 117.5 -17.5t84.5 -37.5l-35 -104q-25 19 -66.5 34.5t-84.5 15.5zM312 348q-78 0 -129 -89q11 -71 43 -111.5 t84 -40.5q48 0 79 36t31 89q0 57 -29 86.5t-79 29.5z" />
<glyph unicode="7" horiz-adv-x="485" d="M91 12l231 556h-292v112h433v-90l-233 -590h-139v12z" />
<glyph unicode="8" horiz-adv-x="595" d="M298 -10q-120 0 -184 52.5t-64 143.5q0 70 29 111t91 58q-49 14 -74.5 54t-25.5 95q0 90 58.5 138t169.5 48q110 0 168.5 -48t58.5 -138q0 -55 -26 -95t-75 -54q63 -17 92.5 -58t29.5 -111q0 -91 -64.5 -143.5t-183.5 -52.5zM297 309q-59 0 -89 -29t-30 -75q0 -49 33 -80 t87 -31t87 31t33 80q0 46 -30 75t-91 29zM298 588q-48 0 -75.5 -25t-27.5 -71q0 -41 25.5 -68.5t76.5 -27.5q52 0 77 27.5t25 68.5q0 46 -27 71t-74 25z" />
<glyph unicode="9" horiz-adv-x="589" d="M257 99q145 0 155 207q-60 -79 -156 -79q-101 0 -156.5 58.5t-55.5 162.5q0 109 64 175.5t166 66.5q126 0 196 -95t70 -256q0 -159 -70.5 -254t-197.5 -95q-62 0 -116.5 17.5t-85.5 37.5l35 104q68 -50 152 -50zM278 331q79 0 129 89q-11 71 -43 112t-84 41 q-49 0 -80 -36t-31 -89q0 -57 29.5 -87t79.5 -30z" />
<glyph unicode=":" horiz-adv-x="275" d="M61 460q0 37 19.5 57.5t55.5 20.5t56.5 -20.5t20.5 -57.5q0 -38 -20.5 -58.5t-56.5 -20.5t-55.5 20.5t-19.5 58.5zM61 65q0 37 19.5 57.5t55.5 20.5t56.5 -20.5t20.5 -57.5q0 -38 -20.5 -58.5t-56.5 -20.5t-55.5 20.5t-19.5 58.5z" />
<glyph unicode=";" horiz-adv-x="275" d="M75 -140l36 128q-48 12 -48 72q0 39 19 60t54 21t55 -22t20 -59q0 -48 -22 -117t-46 -112zM60 460q0 37 19.5 57.5t55.5 20.5t56.5 -20.5t20.5 -57.5q0 -38 -20.5 -58.5t-56.5 -20.5t-55.5 20.5t-19.5 58.5z" />
<glyph unicode="&#x3c;" horiz-adv-x="508" d="M38 251v99l400 193h8v-98l-308 -143l308 -141v-99h-8z" />
<glyph unicode="=" horiz-adv-x="542" d="M67 493h408v-101h-408v101zM67 213h408v-101h-408v101z" />
<glyph unicode="&#x3e;" horiz-adv-x="508" d="M470 350v-99l-399 -189h-10v99l309 141l-309 143v98h10z" />
<glyph unicode="?" horiz-adv-x="417" d="M229 219h-103q-10 32 -10 58q0 24 11.5 43t38.5 49l49 55q20 23 28.5 41t8.5 48q0 31 -20 51t-54 20q-62 0 -112 -66l-34 99q73 73 177 73q80 0 125 -48t45 -126q0 -82 -70 -157l-55 -60q-17 -18 -22.5 -27.5t-5.5 -25.5q0 -12 3 -27zM103 67q0 80 76 80q36 0 56.5 -21 t20.5 -59q0 -39 -20.5 -59.5t-56.5 -20.5q-76 0 -76 80z" />
<glyph unicode="@" horiz-adv-x="849" d="M620 491v-331q0 -37 5.5 -49.5t24.5 -12.5q30 0 53 56.5t23 159.5q0 149 -77.5 233.5t-215.5 84.5q-135 0 -217.5 -96t-82.5 -273q0 -178 79.5 -274t220.5 -96q82 0 147 38l29 -79q-80 -46 -176 -46q-183 0 -286.5 120.5t-103.5 336.5q0 206 108.5 331t281.5 125 t278.5 -109t105.5 -289q0 -159 -57 -234.5t-152 -75.5q-41 0 -63 12.5t-37 41.5q-38 -53 -124 -53q-83 0 -134 68t-51 174q0 108 51 176.5t134 68.5t116 -43v35h120zM322 254q0 -61 28 -98.5t73 -37.5q46 0 77 38v200q-29 36 -77 36q-46 0 -73.5 -38t-27.5 -100z" />
<glyph unicode="A" horiz-adv-x="626" d="M12 0l229 680h147l222 -680h-127l-43 141h-257l-44 -141h-127zM314 553l-98 -317h193z" />
<glyph unicode="B" horiz-adv-x="618" d="M81 0v680h248q97 0 149 -45t52 -135q0 -107 -87 -146q133 -30 133 -166q0 -89 -54 -138.5t-154 -49.5h-287zM209 287v-176h142q93 0 93 85q0 91 -104 91h-131zM209 569v-163h100q92 0 92 83q0 41 -21 60.5t-67 19.5h-104z" />
<glyph unicode="C" horiz-adv-x="606" d="M46 340q0 161 84 255.5t215 94.5q135 0 226 -109l-66 -87q-71 77 -149 77q-84 0 -131.5 -59.5t-47.5 -171.5t47.5 -171.5t131.5 -59.5q78 0 149 77l66 -87q-91 -109 -226 -109q-131 0 -215 94.5t-84 255.5z" />
<glyph unicode="D" horiz-adv-x="681" d="M81 0v680h254q132 0 215.5 -90t83.5 -251q0 -160 -83.5 -249.5t-215.5 -89.5h-254zM209 112h110q86 0 135 59t49 168q0 110 -49 169.5t-135 59.5h-110v-456z" />
<glyph unicode="E" horiz-adv-x="590" d="M542 0h-461v680h461v-113h-338v-162h276v-111h-276v-182h338v-112z" />
<glyph unicode="F" horiz-adv-x="558" d="M480 246h-276v-246h-123v680h444v-113h-321v-208h276v-113z" />
<glyph unicode="G" horiz-adv-x="656" d="M579 608l-53 -102q-76 65 -157 65q-89 0 -140.5 -61t-51.5 -171q0 -112 51 -171t135 -59q72 0 118 35v140h-152v111h272v-324q-42 -34 -111.5 -57.5t-135.5 -23.5q-132 0 -220 94.5t-88 254.5q0 161 88 256t220 95q136 0 225 -82z" />
<glyph unicode="H" horiz-adv-x="718" d="M509 0v287h-300v-287h-128v680h128v-281h300v281h128v-680h-128z" />
<glyph unicode="I" horiz-adv-x="291" d="M81 0v680h128v-680h-128z" />
<glyph unicode="J" horiz-adv-x="556" d="M17 228l123 12q4 -71 29 -103.5t77 -32.5q107 0 107 142v434h128v-432q0 -119 -60 -189t-177 -70q-108 0 -166 63t-61 176z" />
<glyph unicode="K" horiz-adv-x="615" d="M81 0v680h128v-288h43l198 288h130v-19l-226 -322l250 -321v-18h-146l-209 280h-40v-280h-128z" />
<glyph unicode="L" horiz-adv-x="522" d="M506 0h-425v680h128v-568h297v-112z" />
<glyph unicode="M" horiz-adv-x="816" d="M607 0v467l-188 -275h-22l-188 275v-467h-128v680h125l202 -298l202 298h125v-680h-128z" />
<glyph unicode="N" horiz-adv-x="717" d="M523 0l-315 465v-465h-127v680h111l315 -466v466h129v-680h-113z" />
<glyph unicode="O" horiz-adv-x="687" d="M46 339q0 156 81 253.5t215 97.5q135 0 217 -97.5t82 -253.5q0 -155 -82 -252t-217 -97q-134 0 -215 97t-81 252zM172 339q0 -112 46 -170t124 -58q79 0 126 58t47 170q0 113 -47 171.5t-126 58.5q-78 0 -124 -58t-46 -172z" />
<glyph unicode="P" horiz-adv-x="605" d="M81 0v680h280q91 0 152 -63t61 -183q0 -110 -62.5 -176.5t-150.5 -66.5h-152v-191h-128zM334 568h-125v-265h125q46 0 77.5 36t31.5 95q0 64 -31 99t-78 35z" />
<glyph unicode="Q" horiz-adv-x="687" d="M46 339q0 156 81 253.5t215 97.5q135 0 217 -97.5t82 -253.5q0 -115 -46 -200t-128 -123q26 -29 40 -43t41.5 -29.5t54.5 -15.5q52 0 84 15l13 -104q-46 -19 -106 -19q-47 0 -92 23.5t-72.5 51.5t-54.5 58t-38 37q-132 2 -211.5 99t-79.5 250zM169 339q0 -112 47 -170 t126 -58t126 58t47 170q0 113 -46.5 171t-126.5 58q-79 0 -126 -58t-47 -171z" />
<glyph unicode="R" horiz-adv-x="615" d="M81 0v680h284q91 0 148.5 -61t57.5 -161q0 -79 -43.5 -134.5t-112.5 -71.5l178 -231v-21h-139l-182 247h-63v-247h-128zM332 568h-123v-220h123q48 0 78 29t30 80q0 54 -29.5 82.5t-78.5 28.5z" />
<glyph unicode="S" horiz-adv-x="538" d="M40 44l29 121q35 -24 85 -41t96 -17q49 0 82.5 23t33.5 65q0 61 -78 84l-95 29q-145 43 -145 182q0 82 61 140.5t170 58.5q117 0 204 -49l-36 -112q-74 45 -163 45q-53 0 -81.5 -21.5t-28.5 -57.5q0 -30 17 -47t53 -29l94 -29q82 -26 120.5 -72t38.5 -115 q0 -92 -67.5 -152t-175.5 -60q-59 0 -119.5 16.5t-94.5 37.5z" />
<glyph unicode="T" horiz-adv-x="536" d="M515 567h-180v-567h-128v567h-185v113h493v-113z" />
<glyph unicode="U" horiz-adv-x="678" d="M202 680v-398q0 -174 136 -174q138 0 138 175v397h128v-406q0 -127 -67 -206t-199 -79t-198 76t-66 209v406h128z" />
<glyph unicode="V" horiz-adv-x="635" d="M236 0l-221 680h137l164 -542l168 542h138l-227 -680h-159z" />
<glyph unicode="W" horiz-adv-x="946" d="M568 0l-94 304l-101 -304h-137l-221 680h135l166 -536l103 311l-70 225h137l149 -516l161 516h138l-228 -680h-138z" />
<glyph unicode="X" horiz-adv-x="629" d="M606 680v-9l-203 -332l203 -329v-10h-147l-145 255l-146 -255h-145v10l202 329l-202 332v9h144l147 -256l147 256h145z" />
<glyph unicode="Y" horiz-adv-x="596" d="M235 0v272l-224 399v9h140l148 -290l147 290h140v-9l-225 -398v-273h-126z" />
<glyph unicode="Z" horiz-adv-x="547" d="M47 90l290 478h-290v112h453v-90l-290 -478h290v-112h-453v90z" />
<glyph unicode="[" horiz-adv-x="310" d="M274 -188h-203v898h203v-101h-103v-696h103v-101z" />
<glyph unicode="\" horiz-adv-x="456" d="M133 680l296 -670v-10h-108l-295 671v9h107z" />
<glyph unicode="]" horiz-adv-x="310" d="M36 710h203v-898h-203v101h103v696h-103v101z" />
<glyph unicode="^" horiz-adv-x="506" d="M205 680h94l160 -281v-11h-115l-92 191l-92 -191h-113v11z" />
<glyph unicode="_" horiz-adv-x="549" d="M62 -33h425v-101h-425v101z" />
<glyph unicode="`" horiz-adv-x="510" d="M247 591l-89 150h124l69 -150h-104z" />
<glyph unicode="a" horiz-adv-x="519" d="M452 0h-124v38q-55 -48 -133 -48q-77 0 -118 41.5t-41 114.5q0 89 64 136t169 47q29 0 59 -5v10q0 89 -96 89q-67 0 -132 -30l-23 103q87 36 174 36q96 0 148.5 -53t52.5 -148v-331zM165 160q0 -33 19.5 -51t51.5 -18q60 0 92 38v105q-23 5 -51 5q-50 0 -81 -20.5 t-31 -58.5z" />
<glyph unicode="b" horiz-adv-x="583" d="M537 262q0 -128 -55.5 -200t-148.5 -72q-86 0 -136 60v-50h-125v710h125v-237q54 59 136 59q94 0 149 -71t55 -199zM409 260q0 75 -31.5 117.5t-87.5 42.5q-57 0 -93 -46v-227q39 -45 93 -45q55 0 87 42t32 116z" />
<glyph unicode="c" horiz-adv-x="507" d="M173 262q0 -76 34.5 -118t90.5 -42q62 0 116 54l57 -96q-78 -74 -176 -74q-110 0 -180 74.5t-70 201.5q0 126 70 200.5t180 74.5q100 0 176 -74l-57 -96q-54 54 -119 54q-54 0 -88 -41.5t-34 -117.5z" />
<glyph unicode="d" horiz-adv-x="583" d="M511 710v-710h-125v50q-50 -60 -133 -60q-94 0 -150 72t-56 200t56 199t150 71q79 0 133 -57v235h125zM175 260q0 -73 31.5 -115.5t85.5 -42.5q56 0 94 44v229q-39 45 -94 45t-86 -42.5t-31 -117.5z" />
<glyph unicode="e" horiz-adv-x="525" d="M465 221h-296q8 -127 130 -127q68 0 128 51l48 -95q-75 -64 -196 -64q-116 0 -175 75t-59 199q0 122 64 199.5t170 77.5q100 0 150 -58.5t50 -151.5q0 -55 -14 -106zM176 319h185q3 12 3 26q0 41 -22.5 62.5t-62.5 21.5q-46 0 -72.5 -30t-30.5 -80z" />
<glyph unicode="f" horiz-adv-x="398" d="M34 397v100h80v47q0 176 157 176q64 0 113 -27l-28 -111q-32 25 -64 25q-52 0 -52 -58v-52h130v-100h-130v-397h-126v397h-80z" />
<glyph unicode="g" horiz-adv-x="584" d="M48 280q0 115 56 183.5t149 68.5q87 0 133 -48v39h126v-487q0 -117 -62.5 -175.5t-165.5 -58.5q-99 0 -184 45l28 111q80 -48 142 -48q116 0 116 109v64q-53 -53 -133 -53q-93 0 -149 68t-56 182zM176 280q0 -64 31.5 -101.5t86.5 -37.5q48 0 92 46v186q-41 47 -92 47 q-55 0 -86.5 -37.5t-31.5 -102.5z" />
<glyph unicode="h" horiz-adv-x="589" d="M520 0h-125v303q0 111 -91 111q-38 0 -66 -25.5t-41 -61.5v-327h-125v710h125v-248q55 70 156 70q167 0 167 -204v-328z" />
<glyph unicode="i" horiz-adv-x="271" d="M60 671q0 65 76 65q73 0 73 -65t-73 -65q-76 0 -76 65zM198 0h-126v523h126v-523z" />
<glyph unicode="j" horiz-adv-x="271" d="M79 -197l-75 84q34 25 51 57t17 84v495h126v-489q0 -157 -119 -231zM61 671q0 65 74 65t74 -65t-74 -65t-74 65z" />
<glyph unicode="k" horiz-adv-x="535" d="M498 523v-21l-184 -225l198 -256v-21h-147l-168 227v-227h-125v710h125v-402l163 215h138z" />
<glyph unicode="l" horiz-adv-x="305" d="M74 710h126v-561q0 -51 37 -51q22 0 48 16l5 -101q-46 -23 -101 -23q-59 0 -87 29t-28 96v595z" />
<glyph unicode="m" horiz-adv-x="884" d="M816 0h-125v307q0 56 -20.5 81.5t-66.5 25.5q-65 0 -92 -72v-10v-332h-125v307q0 107 -88 107q-75 0 -102 -78v-336h-125v523h125v-60q53 69 151 69q104 0 142 -83q49 83 153 83q91 0 132 -50t41 -150v-332z" />
<glyph unicode="n" horiz-adv-x="589" d="M520 0h-126v303q0 111 -89 111q-39 0 -67 -25.5t-41 -61.5v-327h-125v523h125v-61q55 70 156 70q167 0 167 -204v-328z" />
<glyph unicode="o" horiz-adv-x="568" d="M45 260q0 129 65 203t173 74q110 0 175 -74t65 -203q0 -128 -65 -201t-175 -73q-108 0 -173 73t-65 201zM169 260q0 -76 30.5 -117t83.5 -41q54 0 84.5 40.5t30.5 117.5q0 78 -30.5 119t-84.5 41q-53 0 -83.5 -41t-30.5 -119z" />
<glyph unicode="p" horiz-adv-x="583" d="M72 -188v711h125v-51q51 61 133 61q94 0 150.5 -72t56.5 -200t-56.5 -199t-150.5 -71q-81 0 -133 57v-236h-125zM409 263q0 74 -32 116t-87 42q-57 0 -93 -45v-229q14 -18 39.5 -31t53.5 -13q56 0 87.5 42.5t31.5 117.5z" />
<glyph unicode="q" horiz-adv-x="583" d="M47 260q0 128 55.5 200t148.5 72q84 0 135 -61v52h125v-711h-125v235q-55 -57 -135 -57q-94 0 -149 71t-55 199zM175 263q0 -75 31.5 -118t86.5 -43t93 46v226q-36 46 -93 46q-55 0 -86.5 -42t-31.5 -115z" />
<glyph unicode="r" horiz-adv-x="411" d="M199 0h-127v523h127v-67q35 76 115 76q49 0 79 -22l-18 -117q-35 21 -73 21q-73 0 -103 -95v-319z" />
<glyph unicode="s" horiz-adv-x="454" d="M402 498l-30 -108q-72 34 -130 34q-65 0 -65 -49q0 -17 13.5 -28.5t44.5 -21.5l53 -18q66 -21 94.5 -57.5t28.5 -90.5q0 -70 -54.5 -119.5t-141.5 -49.5q-98 0 -172 39l25 111q76 -44 141 -44q35 0 55 14t20 39q0 23 -13.5 36t-45.5 23l-53 18q-124 39 -124 145 q0 70 49.5 115.5t137.5 45.5q42 0 90.5 -10.5t76.5 -23.5z" />
<glyph unicode="t" horiz-adv-x="437" d="M233 423v-251q0 -71 60 -71q46 0 90 33l31 -101q-74 -43 -152 -43q-71 0 -112.5 41t-41.5 125v267h-78v100h86l14 133h103v-133h160v-100h-160z" />
<glyph unicode="u" horiz-adv-x="588" d="M68 523h126v-303q0 -111 89 -111q39 0 67 25.5t41 61.5v327h125v-523h-125v61q-24 -32 -65 -51t-90 -19q-168 0 -168 204v328z" />
<glyph unicode="v" horiz-adv-x="561" d="M404 523h136l-179 -523h-161l-179 523h137l123 -405z" />
<glyph unicode="w" horiz-adv-x="870" d="M711 523h136l-158 -523h-159l-94 359l-102 -359h-158l-149 523h136l97 -404l100 404h154l91 -404z" />
<glyph unicode="x" horiz-adv-x="525" d="M496 523v-9l-147 -254l147 -250v-10h-137l-97 192l-96 -192h-137v10l145 250l-145 254v9h135l98 -195l99 195h135z" />
<glyph unicode="y" horiz-adv-x="536" d="M33 -169l19 96q38 -20 74 -20q31 0 49 18t31 58l8 29l-201 511h139l118 -383l113 382q21 0 63.5 0.5t63.5 0.5l-195 -565q-27 -80 -67.5 -118t-112.5 -38q-56 0 -102 29z" />
<glyph unicode="z" horiz-adv-x="462" d="M49 90l207 332h-207v101h365v-90l-206 -332h206v-101h-365v90z" />
<glyph unicode="{" horiz-adv-x="305" d="M238 -105h23v-90h-44q-137 0 -137 125q0 37 21.5 111.5t21.5 113.5q0 35 -21 50t-69 15v77q47 0 68.5 17.5t21.5 53.5q0 38 -21.5 111.5t-21.5 110.5q0 56 34 88t103 32h44v-90h-23q-59 0 -59 -59q0 -26 21.5 -98.5t21.5 -111.5q0 -77 -72 -93q72 -16 72 -95 q0 -38 -21.5 -110t-21.5 -98q0 -60 59 -60z" />
<glyph unicode="|" horiz-adv-x="241" d="M71 -188v898h99v-898h-99z" />
<glyph unicode="}" horiz-adv-x="305" d="M89 -195h-46v90h26q30 0 44 17t14 43t-22 98t-22 110q0 79 73 95q-73 16 -73 93q0 39 22 111.5t22 98.5t-14 42.5t-44 16.5h-26v90h46q68 0 102 -32t34 -88q0 -37 -21.5 -110.5t-21.5 -111.5q0 -36 21.5 -53.5t68.5 -17.5v-77q-48 0 -69 -15t-21 -50q0 -39 21.5 -113.5 t21.5 -111.5q0 -59 -34 -92t-102 -33z" />
<glyph unicode="~" horiz-adv-x="460" d="M368 369l43 -60q-12 -43 -40.5 -69t-63.5 -26q-33 0 -79 37.5t-72 37.5q-21 0 -38.5 -15.5t-26.5 -44.5l-41 63q9 38 37 64.5t64 26.5q29 0 57.5 -18.5t52 -37.5t42.5 -19q42 0 65 61z" />
<glyph unicode="&#xa1;" horiz-adv-x="250" d="M170 305l18 -461h-126l19 461h89zM201 458q0 -38 -19.5 -59.5t-56.5 -21.5t-57.5 21.5t-20.5 59.5t20.5 58.5t57.5 20.5q76 0 76 -79z" />
<glyph unicode="&#xa2;" horiz-adv-x="526" d="M419 626l-26 -109q41 -18 78 -54l-57 -96q-27 26 -48 37l-71 -302h3q62 0 116 54l57 -96q-78 -74 -176 -74q-18 0 -27 1l-29 -124l-72 21l28 121q-69 28 -109.5 95t-40.5 162q0 126 70 200.5t180 74.5q17 0 25 -1l26 111zM173 262q0 -94 51 -135l69 294 q-53 -1 -86.5 -42.5t-33.5 -116.5z" />
<glyph unicode="&#xa3;" horiz-adv-x="558" d="M413 307h-148q13 -95 8 -152q5 -4 24 -21t34 -26.5t28 -9.5q30 0 40.5 31t8.5 95h106q9 -109 -20.5 -171.5t-102.5 -62.5q-20 0 -42.5 10.5t-37 21.5t-36 30t-28.5 24q-20 -43 -46 -64.5t-68 -21.5q-44 0 -68.5 29.5t-24.5 76.5q0 45 25.5 73.5t64.5 28.5q23 0 39 -10 q0 42 -18 119h-81v79h64q-10 55 -10 107q0 87 46.5 142t136.5 55q52 0 101 -18.5t78 -42.5l-37 -111q-53 55 -119 55q-39 0 -59.5 -30t-20.5 -80q0 -32 5 -77h158v-79zM139 127q-14 0 -22.5 -9.5t-8.5 -25.5q0 -32 22 -32q28 0 34 58q-11 9 -25 9z" />
<glyph unicode="&#xa4;" horiz-adv-x="536" d="M80 302q0 50 26 89l-52 53l73 72l54 -56q38 22 83 22q53 0 88 -25l57 59l73 -72l-58 -57q24 -38 24 -85q0 -46 -23 -85l57 -56l-73 -72l-57 57q-37 -23 -88 -23q-48 0 -83 20l-54 -54l-73 72l52 51q-26 41 -26 90zM171 302q0 -40 26 -67.5t67 -27.5t67 27t26 68 q0 40 -26 67.5t-67 27.5t-67 -27.5t-26 -67.5z" />
<glyph unicode="&#xa5;" horiz-adv-x="533" d="M454 122h-126v-122h-127v122h-125v78h125v55h-125v78h99l-142 338v9h130l102 -305l106 305h130v-9l-147 -338h100v-78h-126v-55h126v-78z" />
<glyph unicode="&#xa6;" horiz-adv-x="246" d="M173 -188h-100v347h100v-347zM73 710h100v-335h-100v335z" />
<glyph unicode="&#xa7;" horiz-adv-x="546" d="M63 -50l28 103q99 -45 182 -45q45 0 69.5 14t24.5 39q0 18 -15 30.5t-31.5 18t-55.5 14.5l-82 19q-68 16 -98.5 50.5t-30.5 92.5q0 83 69 131q-68 34 -68 112q0 70 60 115.5t164 45.5q115 0 203 -43l-34 -104q-95 44 -179 44q-92 0 -92 -54q0 -29 43 -42q6 -2 34 -8 l87 -19q152 -36 152 -158q0 -85 -71 -131q71 -38 71 -109q0 -74 -62 -118t-165 -44q-59 0 -115.5 14.5t-87.5 31.5zM296 370l-50 11q-40 -6 -61 -30t-21 -52q0 -27 14.5 -42t49.5 -24l64 -16q39 4 62 24t23 52q0 62 -81 77z" />
<glyph unicode="&#xa8;" horiz-adv-x="510" d="M77 669q0 62 69 62q71 0 71 -62t-71 -62q-69 0 -69 62zM294 669q0 62 71 62q68 0 68 -62t-68 -62q-71 0 -71 62z" />
<glyph unicode="&#xa9;" horiz-adv-x="792" d="M46 339q0 151 100 251t249 100q151 0 251 -100t100 -251q0 -149 -100 -249t-251 -100q-149 0 -249 100t-100 249zM118 339q0 -120 78.5 -200t198.5 -80t199 80t79 200q0 121 -79 201t-199 80t-198.5 -80t-78.5 -201zM320 339q0 -37 25 -61t66 -24q50 0 84 31l41 -74 q-59 -47 -136 -47t-127.5 49t-50.5 126t50.5 126t127.5 49q79 0 136 -47l-41 -73q-34 31 -84 31q-41 0 -66 -24.5t-25 -61.5z" />
<glyph unicode="&#xaa;" horiz-adv-x="424" d="M300 329q-41 0 -57 38q-36 -38 -85 -38q-45 0 -72.5 28.5t-27.5 73.5q0 58 42 89t115 31q14 0 20 -1v12q0 29 -12 40.5t-36 11.5q-49 0 -86 -26l-15 76q21 9 58.5 16t63.5 7q62 0 86 -29t24 -88v-140q0 -28 20 -28q9 0 28 13l3 -70q-34 -16 -69 -16zM81 251h269v-70h-269 v70zM180 401q29 0 55 18v72q-16 4 -31 4q-31 0 -52 -13.5t-21 -39.5q0 -41 49 -41z" />
<glyph unicode="&#xab;" horiz-adv-x="482" d="M41 289v25l138 204h9l46 -26l-88 -190l88 -190l-46 -26h-9zM241 289v25l138 204h10l45 -26l-87 -190l88 -190l-46 -26h-10z" />
<glyph unicode="&#xac;" horiz-adv-x="539" d="M370 126v186h-310v101h409l-1 -287h-98z" />
<glyph unicode="&#xad;" horiz-adv-x="467" d="M62 353h343v-101h-343v101z" />
<glyph unicode="&#xae;" horiz-adv-x="792" d="M46 339q0 151 100 251t249 100q151 0 251 -100t100 -251q0 -149 -100 -249t-251 -100q-149 0 -249 100t-100 249zM118 339q0 -120 78.5 -200t198.5 -80t199 80t79 200q0 121 -79 201t-199 80t-198.5 -80t-78.5 -201zM253 169v340h160q56 0 92.5 -30t36.5 -86 q0 -36 -20.5 -63t-53.5 -39l84 -103v-19h-101l-86 115h-16v-115h-96zM409 431h-60v-79h60q18 0 29 11t11 28q0 40 -40 40z" />
<glyph unicode="&#xaf;" horiz-adv-x="510" d="M364 614h-219v89h219v-89z" />
<glyph unicode="&#xb0;" horiz-adv-x="407" d="M44 509q0 84 44 132.5t114 48.5q71 0 115 -48t44 -133t-44 -132.5t-115 -47.5q-70 0 -114 47.5t-44 132.5zM130 509q0 -47 19.5 -71t52.5 -24q35 0 54.5 24t19.5 71q0 95 -74 95q-33 0 -52.5 -24t-19.5 -71z" />
<glyph unicode="&#xb1;" horiz-adv-x="543" d="M321 652v-187h155v-101h-155v-127h-98v127h-156v101h156v187h98zM67 158h409v-101h-409v101z" />
<glyph unicode="&#xb2;" horiz-adv-x="300" d="M41 449v54l109 98q39 33 39 73q0 22 -11.5 36t-33.5 14q-49 0 -49 -67l-64 12q2 56 32.5 88.5t84.5 32.5t82.5 -30.5t28.5 -79.5q0 -66 -59 -116l-61 -52h128v-63h-226z" />
<glyph unicode="&#xb3;" horiz-adv-x="290" d="M67 651h65q43 0 43 38q0 40 -49 40q-41 0 -81 -20l-14 61q43 20 102 20q55 0 84.5 -24.5t29.5 -69.5q0 -54 -49 -71q59 -16 59 -84q0 -44 -32 -70.5t-92 -26.5q-50 0 -103 20l18 60q36 -18 80 -18q26 0 41 12t15 34q0 38 -52 38h-65v61z" />
<glyph unicode="&#xb4;" horiz-adv-x="510" d="M351 741l-88 -150h-105l70 150h123z" />
<glyph unicode="&#xb5;" horiz-adv-x="561" d="M199 523v-263q0 -80 19 -116.5t67 -36.5q61 0 93 67v349h126v-523h-126v40q-49 -50 -140 -50q-15 0 -39 4v-182h-126v711h126z" />
<glyph unicode="&#xb6;" horiz-adv-x="531" d="M204 -188v441h-50q-56 0 -91 35.5t-35 99.5q0 63 35 99t91 36h148v-711h-98zM356 -188v711h97v-711h-97z" />
<glyph unicode="&#xb7;" horiz-adv-x="267" d="M56 296q0 38 20 59t57 21t57.5 -21t20.5 -59q0 -39 -20.5 -59.5t-57.5 -20.5t-57 20.5t-20 59.5z" />
<glyph unicode="&#xb8;" horiz-adv-x="510" d="M181 -97l25 99h50l-15 -61q9 3 22 3q35 0 54.5 -18t19.5 -48q0 -36 -27 -56t-70 -20q-36 0 -68 11l11 43q31 -11 53 -11q44 0 44 31q0 29 -43 29q-32 0 -53 -7z" />
<glyph unicode="&#xb9;" horiz-adv-x="240" d="M12 705l127 79h50v-335h-69v254l-80 -51z" />
<glyph unicode="&#xba;" horiz-adv-x="438" d="M60 509q0 86 44 133.5t115 47.5t115 -47.5t44 -133.5q0 -87 -44 -133.5t-115 -46.5t-115 46.5t-44 133.5zM139 509q0 -51 21.5 -77.5t58.5 -26.5t58 26t21 78t-21 78t-58 26t-58.5 -26.5t-21.5 -77.5zM85 251h269v-70h-269v70z" />
<glyph unicode="&#xbb;" horiz-adv-x="482" d="M240 314v-25l-138 -203h-9l-46 25l88 191l-88 189l46 27h9zM440 314v-25l-136 -203h-10l-46 25l88 191l-88 189l46 27h10z" />
<glyph unicode="&#xbc;" horiz-adv-x="716" d="M145 10l314 670h71v-9l-313 -671h-72v10zM680 62h-47v-62h-70v62h-155v47l132 226h93v-219h47v-54zM478 116h85v147zM26 605l127 79h50v-335h-69v254l-80 -51z" />
<glyph unicode="&#xbd;" horiz-adv-x="708" d="M145 10l314 670h71v-9l-313 -671h-72v10zM443 0v54l109 97q39 35 39 74q0 21 -11.5 35.5t-33.5 14.5q-49 0 -49 -67l-64 12q2 56 32.5 88.5t84.5 32.5t83 -31t29 -80q0 -64 -60 -115l-61 -52h128v-63h-226zM26 605l127 79h50v-335h-69v254l-80 -51z" />
<glyph unicode="&#xbe;" horiz-adv-x="756" d="M188 10l314 670h71v-9l-313 -671h-72v10zM724 62h-47v-62h-70v62h-155v47l132 226h93v-219h47v-54zM522 116h85v147zM75 551h65q43 0 43 38q0 40 -49 40q-41 0 -81 -20l-14 61q43 20 102 20q55 0 84.5 -24.5t29.5 -69.5q0 -54 -49 -71q59 -16 59 -84q0 -44 -32 -70.5 t-92 -26.5q-50 0 -103 20l18 60q36 -18 80 -18q26 0 41 12t15 34q0 38 -52 38h-65v61z" />
<glyph unicode="&#xbf;" horiz-adv-x="410" d="M184 305h103q10 -32 10 -58q0 -24 -11.5 -43.5t-38.5 -48.5l-49 -54q-21 -23 -29.5 -41.5t-8.5 -48.5q0 -31 20 -50.5t55 -19.5q63 0 112 66l34 -100q-73 -73 -177 -73q-80 0 -125.5 48t-45.5 126q0 83 71 157l55 60q17 18 22.5 27.5t5.5 25.5q0 12 -3 27zM310 458 q0 -39 -19.5 -60t-56.5 -21t-57.5 21.5t-20.5 59.5t20.5 58.5t57.5 20.5q76 0 76 -79z" />
<glyph unicode="&#xc0;" horiz-adv-x="626" d="M12 0l229 680h147l222 -680h-127l-43 141h-257l-44 -141h-127zM314 553l-98 -317h193zM268 748l-89 150h124l69 -150h-104z" />
<glyph unicode="&#xc1;" horiz-adv-x="626" d="M12 0l229 680h147l222 -680h-127l-43 141h-257l-44 -141h-127zM314 553l-98 -317h193zM439 898l-88 -150h-105l70 150h123z" />
<glyph unicode="&#xc2;" horiz-adv-x="626" d="M12 0l229 680h147l222 -680h-127l-43 141h-257l-44 -141h-127zM314 553l-98 -317h193zM368 748l-54 87l-55 -87h-94l87 150h123l87 -150h-94z" />
<glyph unicode="&#xc3;" horiz-adv-x="626" d="M12 0l229 680h147l222 -680h-127l-43 141h-257l-44 -141h-127zM314 553l-98 -317h193zM189 761l-37 51q14 34 40.5 58t56.5 24q33 0 72 -30.5t58 -30.5q38 0 58 45l38 -50q-37 -82 -97 -82q-31 0 -71.5 30t-57.5 30q-37 0 -60 -45z" />
<glyph unicode="&#xc4;" horiz-adv-x="626" d="M12 0l229 680h147l222 -680h-127l-43 141h-257l-44 -141h-127zM314 553l-98 -317h193zM136 826q0 62 69 62q71 0 71 -62t-71 -62q-69 0 -69 62zM353 826q0 62 71 62q68 0 68 -62t-68 -62q-71 0 -71 62z" />
<glyph unicode="&#xc5;" horiz-adv-x="626" d="M216 736q0 40 29 69t69 29t69 -29t29 -69q0 -35 -22 -62l220 -674h-127l-43 141h-257l-44 -141h-127l226 673q-22 27 -22 63zM314 553l-98 -317h193zM269 736q0 -19 13 -32t32 -13q18 0 31 13t13 32q0 18 -13 31t-31 13q-19 0 -32 -13t-13 -31z" />
<glyph unicode="&#xc6;" horiz-adv-x="909" d="M403 0v141h-210l-65 -141h-133l330 680h537v-113h-339v-166h277v-103h-277v-186h339v-112h-459zM240 236h163v333z" />
<glyph unicode="&#xc7;" horiz-adv-x="606" d="M267 -97l23 92q-109 19 -176 110.5t-67 234.5q0 161 84 255.5t215 94.5q135 0 226 -109l-66 -87q-72 77 -149 77q-84 0 -131.5 -59.5t-47.5 -171.5t47.5 -171.5t131.5 -59.5q77 0 149 77l66 -87q-91 -109 -226 -109h-7l-12 -49q9 3 22 3q35 0 54.5 -18t19.5 -48 q0 -36 -27 -56t-70 -20q-36 0 -68 11l11 43q31 -11 53 -11q44 0 44 31q0 29 -43 29q-32 0 -53 -7z" />
<glyph unicode="&#xc8;" horiz-adv-x="590" d="M542 0h-461v680h461v-113h-338v-162h276v-111h-276v-182h338v-112zM271 748l-89 150h124l69 -150h-104z" />
<glyph unicode="&#xc9;" horiz-adv-x="590" d="M542 0h-461v680h461v-113h-338v-162h276v-111h-276v-182h338v-112zM442 898l-88 -150h-105l70 150h123z" />
<glyph unicode="&#xca;" horiz-adv-x="590" d="M542 0h-461v680h461v-113h-338v-162h276v-111h-276v-182h338v-112zM368 748l-54 87l-55 -87h-94l87 150h123l87 -150h-94z" />
<glyph unicode="&#xcb;" horiz-adv-x="590" d="M542 0h-461v680h461v-113h-338v-162h276v-111h-276v-182h338v-112zM136 826q0 62 69 62q71 0 71 -62t-71 -62q-69 0 -69 62zM353 826q0 62 71 62q68 0 68 -62t-68 -62q-71 0 -71 62z" />
<glyph unicode="&#xcc;" horiz-adv-x="291" d="M81 0v680h128v-680h-128zM100 748l-89 150h124l69 -150h-104z" />
<glyph unicode="&#xcd;" horiz-adv-x="291" d="M81 0v680h128v-680h-128zM283 898l-88 -150h-105l70 150h123z" />
<glyph unicode="&#xce;" horiz-adv-x="291" d="M81 0v680h128v-680h-128zM200 748l-54 87l-55 -87h-94l87 150h123l87 -150h-94z" />
<glyph unicode="&#xcf;" horiz-adv-x="291" d="M81 0v680h128v-680h-128zM-34 826q0 62 69 62q71 0 71 -62t-71 -62q-69 0 -69 62zM183 826q0 62 71 62q68 0 68 -62t-68 -62q-71 0 -71 62z" />
<glyph unicode="&#xd0;" horiz-adv-x="686" d="M85 372v308h254q132 0 215.5 -90t83.5 -251q0 -160 -83.5 -249.5t-215.5 -89.5h-254v307h-51v65h51zM213 112h110q86 0 136 59t50 168q0 110 -50 169.5t-136 59.5h-110v-196h110v-65h-110v-195z" />
<glyph unicode="&#xd1;" horiz-adv-x="717" d="M523 0l-315 465v-465h-127v680h111l315 -466v466h129v-680h-113zM236 761l-37 51q14 34 40.5 58t56.5 24q33 0 72 -30.5t58 -30.5q38 0 58 45l38 -50q-37 -82 -97 -82q-31 0 -71.5 30t-57.5 30q-37 0 -60 -45z" />
<glyph unicode="&#xd2;" horiz-adv-x="687" d="M46 339q0 156 81 253.5t215 97.5q135 0 217 -97.5t82 -253.5q0 -155 -82 -252t-217 -97q-134 0 -215 97t-81 252zM172 339q0 -112 46 -170t124 -58q79 0 126 58t47 170q0 113 -47 171.5t-126 58.5q-78 0 -124 -58t-46 -172zM295 748l-89 150h124l69 -150h-104z" />
<glyph unicode="&#xd3;" horiz-adv-x="687" d="M46 339q0 156 81 253.5t215 97.5q135 0 217 -97.5t82 -253.5q0 -155 -82 -252t-217 -97q-134 0 -215 97t-81 252zM172 339q0 -112 46 -170t124 -58q79 0 126 58t47 170q0 113 -47 171.5t-126 58.5q-78 0 -124 -58t-46 -172zM478 898l-88 -150h-105l70 150h123z" />
<glyph unicode="&#xd4;" horiz-adv-x="687" d="M46 339q0 156 81 253.5t215 97.5q135 0 217 -97.5t82 -253.5q0 -155 -82 -252t-217 -97q-134 0 -215 97t-81 252zM172 339q0 -112 46 -170t124 -58q79 0 126 58t47 170q0 113 -47 171.5t-126 58.5q-78 0 -124 -58t-46 -172zM397 748l-54 87l-55 -87h-94l87 150h123 l87 -150h-94z" />
<glyph unicode="&#xd5;" horiz-adv-x="687" d="M46 339q0 156 81 253.5t215 97.5q135 0 217 -97.5t82 -253.5q0 -155 -82 -252t-217 -97q-134 0 -215 97t-81 252zM172 339q0 -112 46 -170t124 -58q79 0 126 58t47 170q0 113 -47 171.5t-126 58.5q-78 0 -124 -58t-46 -172zM218 761l-37 51q14 34 40.5 58t56.5 24 q33 0 72 -30.5t58 -30.5q38 0 58 45l38 -50q-37 -82 -97 -82q-31 0 -71.5 30t-57.5 30q-37 0 -60 -45z" />
<glyph unicode="&#xd6;" horiz-adv-x="687" d="M46 339q0 156 81 253.5t215 97.5q135 0 217 -97.5t82 -253.5q0 -155 -82 -252t-217 -97q-134 0 -215 97t-81 252zM172 339q0 -112 46 -170t124 -58q79 0 126 58t47 170q0 113 -47 171.5t-126 58.5q-78 0 -124 -58t-46 -172zM166 826q0 62 69 62q71 0 71 -62t-71 -62 q-69 0 -69 62zM383 826q0 62 71 62q68 0 68 -62t-68 -62q-71 0 -71 62z" />
<glyph unicode="&#xd7;" horiz-adv-x="471" d="M416 434l-110 -131l110 -132l-71 -72l-109 132l-110 -132l-70 72l110 132l-110 131l70 72l110 -132l109 132z" />
<glyph unicode="&#xd8;" horiz-adv-x="686" d="M46 339q0 156 81 253.5t215 97.5q95 0 166 -51l28 41h89v-9l-60 -87q76 -95 76 -245q0 -155 -82 -252t-217 -97q-87 0 -155 44l-23 -34h-91v10l53 77q-80 97 -80 252zM172 339q0 -89 29 -144l238 344q-40 30 -97 30q-78 0 -124 -58t-46 -172zM515 339q0 80 -25 135 l-234 -340q34 -23 86 -23q79 0 126 58t47 170z" />
<glyph unicode="&#xd9;" horiz-adv-x="678" d="M202 680v-398q0 -174 136 -174q138 0 138 175v397h128v-406q0 -127 -67 -206t-199 -79t-198 76t-66 209v406h128zM293 748l-89 150h124l69 -150h-104z" />
<glyph unicode="&#xda;" horiz-adv-x="678" d="M202 680v-398q0 -174 136 -174q138 0 138 175v397h128v-406q0 -127 -67 -206t-199 -79t-198 76t-66 209v406h128zM475 898l-88 -150h-105l70 150h123z" />
<glyph unicode="&#xdb;" horiz-adv-x="678" d="M202 680v-398q0 -174 136 -174q138 0 138 175v397h128v-406q0 -127 -67 -206t-199 -79t-198 76t-66 209v406h128zM393 748l-54 87l-55 -87h-94l87 150h123l87 -150h-94z" />
<glyph unicode="&#xdc;" horiz-adv-x="678" d="M202 680v-398q0 -174 136 -174q138 0 138 175v397h128v-406q0 -127 -67 -206t-199 -79t-198 76t-66 209v406h128zM162 826q0 62 69 62q71 0 71 -62t-71 -62q-69 0 -69 62zM379 826q0 62 71 62q68 0 68 -62t-68 -62q-71 0 -71 62z" />
<glyph unicode="&#xdd;" horiz-adv-x="596" d="M235 0v272l-224 399v9h140l148 -290l147 290h140v-9l-225 -398v-273h-126zM434 898l-88 -150h-105l70 150h123z" />
<glyph unicode="&#xde;" horiz-adv-x="604" d="M81 0v680h126v-97h152q93 0 152.5 -59t59.5 -178q0 -110 -61 -172t-151 -62h-152v-112h-126zM331 472h-124v-248h124q49 0 80.5 32t31.5 91q0 62 -31 93.5t-81 31.5z" />
<glyph unicode="&#xdf;" horiz-adv-x="599" d="M308 720q96 0 149.5 -60t53.5 -135q0 -39 -15 -76t-30 -61.5t-15 -32.5q0 -7 16.5 -25t37 -39.5t37 -58t16.5 -76.5q0 -72 -46.5 -119t-123.5 -47t-129 26l14 102q34 -20 68 -20t57 21t23 56q0 26 -16 52t-35.5 44t-35.5 38t-16 35q0 16 32.5 70t32.5 93q0 45 -24.5 73 t-62.5 28q-47 0 -72.5 -44t-25.5 -118v-446h-126v446q0 140 67 207t169 67z" />
<glyph unicode="&#xe0;" horiz-adv-x="519" d="M452 0h-124v38q-55 -48 -133 -48q-77 0 -118 41.5t-41 114.5q0 89 64 136t169 47q29 0 59 -5v10q0 89 -96 89q-67 0 -132 -30l-23 103q87 36 174 36q96 0 148.5 -53t52.5 -148v-331zM165 160q0 -33 19.5 -51t51.5 -18q60 0 92 38v105q-23 5 -51 5q-50 0 -81 -20.5 t-31 -58.5zM229 591l-89 150h124l69 -150h-104z" />
<glyph unicode="&#xe1;" horiz-adv-x="519" d="M452 0h-124v38q-55 -48 -133 -48q-77 0 -118 41.5t-41 114.5q0 89 64 136t169 47q29 0 59 -5v10q0 89 -96 89q-67 0 -132 -30l-23 103q87 36 174 36q96 0 148.5 -53t52.5 -148v-331zM165 160q0 -33 19.5 -51t51.5 -18q60 0 92 38v105q-23 5 -51 5q-50 0 -81 -20.5 t-31 -58.5zM395 741l-88 -150h-105l70 150h123z" />
<glyph unicode="&#xe2;" horiz-adv-x="519" d="M452 0h-124v38q-55 -48 -133 -48q-77 0 -118 41.5t-41 114.5q0 89 64 136t169 47q29 0 59 -5v10q0 89 -96 89q-67 0 -132 -30l-23 103q87 36 174 36q96 0 148.5 -53t52.5 -148v-331zM165 160q0 -33 19.5 -51t51.5 -18q60 0 92 38v105q-23 5 -51 5q-50 0 -81 -20.5 t-31 -58.5zM321 591l-54 87l-55 -87h-94l87 150h123l87 -150h-94z" />
<glyph unicode="&#xe3;" horiz-adv-x="519" d="M452 0h-124v38q-55 -48 -133 -48q-77 0 -118 41.5t-41 114.5q0 89 64 136t169 47q29 0 59 -5v10q0 89 -96 89q-67 0 -132 -30l-23 103q87 36 174 36q96 0 148.5 -53t52.5 -148v-331zM165 160q0 -33 19.5 -51t51.5 -18q60 0 92 38v105q-23 5 -51 5q-50 0 -81 -20.5 t-31 -58.5zM141 604l-37 51q14 34 40.5 58t56.5 24q33 0 72 -30.5t58 -30.5q38 0 58 45l38 -50q-37 -82 -97 -82q-31 0 -71.5 30t-57.5 30q-37 0 -60 -45z" />
<glyph unicode="&#xe4;" horiz-adv-x="519" d="M452 0h-124v38q-55 -48 -133 -48q-77 0 -118 41.5t-41 114.5q0 89 64 136t169 47q29 0 59 -5v10q0 89 -96 89q-67 0 -132 -30l-23 103q87 36 174 36q96 0 148.5 -53t52.5 -148v-331zM165 160q0 -33 19.5 -51t51.5 -18q60 0 92 38v105q-23 5 -51 5q-50 0 -81 -20.5 t-31 -58.5zM90 669q0 62 69 62q71 0 71 -62t-71 -62q-69 0 -69 62zM307 669q0 62 71 62q68 0 68 -62t-68 -62q-71 0 -71 62z" />
<glyph unicode="&#xe5;" horiz-adv-x="519" d="M160 670q0 40 29 69t69 29t69 -29t29 -69t-29 -69t-69 -29t-69 29t-29 69zM213 670q0 -19 13 -32t32 -13q18 0 31 13t13 32q0 18 -13 31t-31 13q-19 0 -32 -13t-13 -31zM452 0h-124v38q-55 -48 -133 -48q-77 0 -118 41.5t-41 114.5q0 89 64 136t169 47q29 0 59 -5v10 q0 89 -96 89q-67 0 -132 -30l-23 103q87 36 174 36q96 0 148.5 -53t52.5 -148v-331zM165 160q0 -33 19.5 -51t51.5 -18q60 0 92 38v105q-23 5 -51 5q-50 0 -81 -20.5t-31 -58.5z" />
<glyph unicode="&#xe6;" horiz-adv-x="799" d="M739 226h-295q5 -142 127 -142q71 0 132 55l43 -81q-77 -72 -185 -72q-123 0 -171 95q-80 -91 -186 -91q-77 0 -122.5 40.5t-45.5 119.5q0 85 65.5 131.5t165.5 46.5q34 0 62 -5q1 56 -22.5 78t-74.5 22q-62 0 -132 -29l-22 103q87 35 185 35q101 0 144 -79q50 84 157 84 q99 0 144 -57.5t45 -149.5q0 -62 -14 -104zM563 443q-54 0 -81.5 -36.5t-27.5 -92.5h194q3 15 3 32q0 41 -24 69t-64 28zM165 158q0 -33 20.5 -50t50.5 -17q61 0 93 42v102q-22 4 -45 4q-49 0 -84 -18t-35 -63z" />
<glyph unicode="&#xe7;" horiz-adv-x="507" d="M222 -97l22 88q-90 17 -144.5 88.5t-54.5 182.5q0 126 70 200.5t180 74.5q100 0 176 -74l-57 -96q-54 54 -119 54q-54 0 -88 -41.5t-34 -117.5t34.5 -118t90.5 -42q62 0 116 54l57 -96q-78 -74 -176 -74h-2l-11 -45q9 3 22 3q35 0 54.5 -18t19.5 -48q0 -36 -27 -56 t-70 -20q-36 0 -68 11l11 43q31 -11 53 -11q44 0 44 31q0 29 -43 29q-32 0 -53 -7z" />
<glyph unicode="&#xe8;" horiz-adv-x="525" d="M465 221h-296q8 -127 130 -127q68 0 128 51l48 -95q-75 -64 -196 -64q-116 0 -175 75t-59 199q0 122 64 199.5t170 77.5q100 0 150 -58.5t50 -151.5q0 -55 -14 -106zM176 319h185q3 12 3 26q0 41 -22.5 62.5t-62.5 21.5q-46 0 -72.5 -30t-30.5 -80zM248 591l-89 150h124 l69 -150h-104z" />
<glyph unicode="&#xe9;" horiz-adv-x="525" d="M465 221h-296q8 -127 130 -127q68 0 128 51l48 -95q-75 -64 -196 -64q-116 0 -175 75t-59 199q0 122 64 199.5t170 77.5q100 0 150 -58.5t50 -151.5q0 -55 -14 -106zM176 319h185q3 12 3 26q0 41 -22.5 62.5t-62.5 21.5q-46 0 -72.5 -30t-30.5 -80zM413 741l-88 -150 h-105l70 150h123z" />
<glyph unicode="&#xea;" horiz-adv-x="525" d="M465 221h-296q8 -127 130 -127q68 0 128 51l48 -95q-75 -64 -196 -64q-116 0 -175 75t-59 199q0 122 64 199.5t170 77.5q100 0 150 -58.5t50 -151.5q0 -55 -14 -106zM176 319h185q3 12 3 26q0 41 -22.5 62.5t-62.5 21.5q-46 0 -72.5 -30t-30.5 -80zM338 591l-54 87 l-55 -87h-94l87 150h123l87 -150h-94z" />
<glyph unicode="&#xeb;" horiz-adv-x="525" d="M465 221h-296q8 -127 130 -127q68 0 128 51l48 -95q-75 -64 -196 -64q-116 0 -175 75t-59 199q0 122 64 199.5t170 77.5q100 0 150 -58.5t50 -151.5q0 -55 -14 -106zM176 319h185q3 12 3 26q0 41 -22.5 62.5t-62.5 21.5q-46 0 -72.5 -30t-30.5 -80zM105 669q0 62 69 62 q71 0 71 -62t-71 -62q-69 0 -69 62zM322 669q0 62 71 62q68 0 68 -62t-68 -62q-71 0 -71 62z" />
<glyph unicode="&#xec;" horiz-adv-x="271" d="M100 591l-89 150h124l69 -150h-104zM198 0h-126v523h126v-523z" />
<glyph unicode="&#xed;" horiz-adv-x="271" d="M267 741l-88 -150h-105l70 150h123zM198 0h-126v523h126v-523z" />
<glyph unicode="&#xee;" horiz-adv-x="271" d="M198 0h-126v523h126v-523zM190 591l-54 87l-55 -87h-94l87 150h123l87 -150h-94z" />
<glyph unicode="&#xef;" horiz-adv-x="271" d="M-42 669q0 62 69 62q71 0 71 -62t-71 -62q-69 0 -69 62zM175 669q0 62 71 62q68 0 68 -62t-68 -62q-71 0 -71 62zM198 0h-126v523h126v-523z" />
<glyph unicode="&#xf0;" horiz-adv-x="546" d="M404 701l-39 -48q59 -52 94 -132.5t35 -179.5q0 -167 -62 -259t-177 -92q-91 0 -148.5 66.5t-57.5 175.5q0 99 47.5 160t131.5 61q75 0 136 -65q-11 101 -73 175l-44 -54l-33 30l46 56q-32 27 -68 44l50 81q48 -13 88 -40l41 50zM260 107q90 0 104 170q-49 71 -101 71 q-41 0 -65 -29.5t-24 -87.5q0 -55 23.5 -89.5t62.5 -34.5z" />
<glyph unicode="&#xf1;" horiz-adv-x="589" d="M520 0h-126v303q0 111 -89 111q-39 0 -67 -25.5t-41 -61.5v-327h-125v523h125v-61q55 70 156 70q167 0 167 -204v-328zM177 604l-37 51q14 34 40.5 58t56.5 24q33 0 72 -30.5t58 -30.5q38 0 58 45l38 -50q-37 -82 -97 -82q-31 0 -71.5 30t-57.5 30q-37 0 -60 -45z" />
<glyph unicode="&#xf2;" horiz-adv-x="568" d="M45 260q0 129 65 203t173 74q110 0 175 -74t65 -203q0 -128 -65 -201t-175 -73q-108 0 -173 73t-65 201zM169 260q0 -76 30.5 -117t83.5 -41q54 0 84.5 40.5t30.5 117.5q0 78 -30.5 119t-84.5 41q-53 0 -83.5 -41t-30.5 -119zM237 591l-89 150h124l69 -150h-104z" />
<glyph unicode="&#xf3;" horiz-adv-x="568" d="M45 260q0 129 65 203t173 74q110 0 175 -74t65 -203q0 -128 -65 -201t-175 -73q-108 0 -173 73t-65 201zM169 260q0 -76 30.5 -117t83.5 -41q54 0 84.5 40.5t30.5 117.5q0 78 -30.5 119t-84.5 41q-53 0 -83.5 -41t-30.5 -119zM420 741l-88 -150h-105l70 150h123z" />
<glyph unicode="&#xf4;" horiz-adv-x="568" d="M45 260q0 129 65 203t173 74q110 0 175 -74t65 -203q0 -128 -65 -201t-175 -73q-108 0 -173 73t-65 201zM169 260q0 -76 30.5 -117t83.5 -41q54 0 84.5 40.5t30.5 117.5q0 78 -30.5 119t-84.5 41q-53 0 -83.5 -41t-30.5 -119zM338 591l-54 87l-55 -87h-94l87 150h123 l87 -150h-94z" />
<glyph unicode="&#xf5;" horiz-adv-x="568" d="M45 260q0 129 65 203t173 74q110 0 175 -74t65 -203q0 -128 -65 -201t-175 -73q-108 0 -173 73t-65 201zM169 260q0 -76 30.5 -117t83.5 -41q54 0 84.5 40.5t30.5 117.5q0 78 -30.5 119t-84.5 41q-53 0 -83.5 -41t-30.5 -119zM158 604l-37 51q14 34 40.5 58t56.5 24 q33 0 72 -30.5t58 -30.5q38 0 58 45l38 -50q-37 -82 -97 -82q-31 0 -71.5 30t-57.5 30q-37 0 -60 -45z" />
<glyph unicode="&#xf6;" horiz-adv-x="568" d="M45 260q0 129 65 203t173 74q110 0 175 -74t65 -203q0 -128 -65 -201t-175 -73q-108 0 -173 73t-65 201zM169 260q0 -76 30.5 -117t83.5 -41q54 0 84.5 40.5t30.5 117.5q0 78 -30.5 119t-84.5 41q-53 0 -83.5 -41t-30.5 -119zM105 669q0 62 69 62q71 0 71 -62t-71 -62 q-69 0 -69 62zM322 669q0 62 71 62q68 0 68 -62t-68 -62q-71 0 -71 62z" />
<glyph unicode="&#xf7;" horiz-adv-x="504" d="M48 353h408v-101h-408v101zM183 493q0 72 68 72q32 0 50 -19t18 -53q0 -72 -68 -72t-68 72zM183 111q0 72 68 72q32 0 50 -19t18 -53q0 -72 -68 -72t-68 72z" />
<glyph unicode="&#xf8;" horiz-adv-x="568" d="M45 260q0 129 65 203t173 74q81 0 137 -41l19 27h63v-10l-39 -56q60 -74 60 -197q0 -128 -65 -201t-175 -73q-73 0 -127 34l-14 -20h-63v10l33 47q-67 73 -67 203zM169 260q0 -58 18 -96l163 233q-28 23 -67 23q-53 0 -83.5 -41t-30.5 -119zM398 260q0 49 -13 86 l-160 -228q23 -16 58 -16q54 0 84.5 40.5t30.5 117.5z" />
<glyph unicode="&#xf9;" horiz-adv-x="588" d="M68 523h126v-303q0 -111 89 -111q39 0 67 25.5t41 61.5v327h125v-523h-125v61q-24 -32 -65 -51t-90 -19q-168 0 -168 204v328zM243 591l-89 150h124l69 -150h-104z" />
<glyph unicode="&#xfa;" horiz-adv-x="588" d="M68 523h126v-303q0 -111 89 -111q39 0 67 25.5t41 61.5v327h125v-523h-125v61q-24 -32 -65 -51t-90 -19q-168 0 -168 204v328zM434 741l-88 -150h-105l70 150h123z" />
<glyph unicode="&#xfb;" horiz-adv-x="588" d="M68 523h126v-303q0 -111 89 -111q39 0 67 25.5t41 61.5v327h125v-523h-125v61q-24 -32 -65 -51t-90 -19q-168 0 -168 204v328zM346 591l-54 87l-55 -87h-94l87 150h123l87 -150h-94z" />
<glyph unicode="&#xfc;" horiz-adv-x="588" d="M68 523h126v-303q0 -111 89 -111q39 0 67 25.5t41 61.5v327h125v-523h-125v61q-24 -32 -65 -51t-90 -19q-168 0 -168 204v328zM115 669q0 62 69 62q71 0 71 -62t-71 -62q-69 0 -69 62zM332 669q0 62 71 62q68 0 68 -62t-68 -62q-71 0 -71 62z" />
<glyph unicode="&#xfd;" horiz-adv-x="536" d="M33 -169l19 96q38 -20 74 -20q31 0 49 18t31 58l8 29l-201 511h139l118 -383l113 382q21 0 63.5 0.5t63.5 0.5l-195 -565q-27 -80 -67.5 -118t-112.5 -38q-56 0 -102 29zM403 741l-88 -150h-105l70 150h123z" />
<glyph unicode="&#xfe;" horiz-adv-x="583" d="M537 261q0 -128 -56.5 -199t-150.5 -71q-81 0 -133 57v-236h-125v898h125v-238q51 61 133 61q94 0 150.5 -72t56.5 -200zM409 263q0 74 -32 116t-87 42q-57 0 -93 -45v-229q14 -18 39.5 -31t53.5 -13q56 0 87.5 42.5t31.5 117.5z" />
<glyph unicode="&#xff;" horiz-adv-x="536" d="M33 -169l19 96q38 -20 74 -20q31 0 49 18t31 58l8 29l-201 511h139l118 -383l113 382q21 0 63.5 0.5t63.5 0.5l-195 -565q-27 -80 -67.5 -118t-112.5 -38q-56 0 -102 29zM91 669q0 62 69 62q71 0 71 -62t-71 -62q-69 0 -69 62zM308 669q0 62 71 62q68 0 68 -62t-68 -62 q-71 0 -71 62z" />
<glyph unicode="&#x100;" horiz-adv-x="626" d="M12 0l229 680h147l222 -680h-127l-43 141h-257l-44 -141h-127zM314 553l-98 -317h193zM424 771h-219v89h219v-89z" />
<glyph unicode="&#x101;" horiz-adv-x="519" d="M452 0h-124v38q-55 -48 -133 -48q-77 0 -118 41.5t-41 114.5q0 89 64 136t169 47q29 0 59 -5v10q0 89 -96 89q-67 0 -132 -30l-23 103q87 36 174 36q96 0 148.5 -53t52.5 -148v-331zM165 160q0 -33 19.5 -51t51.5 -18q60 0 92 38v105q-23 5 -51 5q-50 0 -81 -20.5 t-31 -58.5zM373 614h-219v89h219v-89z" />
<glyph unicode="&#x102;" horiz-adv-x="626" d="M12 0l229 680h147l222 -680h-127l-43 141h-257l-44 -141h-127zM314 553l-98 -317h193zM187 832l32 51q31 -47 95 -47q31 0 56.5 13.5t38.5 33.5l31 -51q-43 -81 -125 -81q-83 0 -128 81z" />
<glyph unicode="&#x103;" horiz-adv-x="519" d="M452 0h-124v38q-55 -48 -133 -48q-77 0 -118 41.5t-41 114.5q0 89 64 136t169 47q29 0 59 -5v10q0 89 -96 89q-67 0 -132 -30l-23 103q87 36 174 36q96 0 148.5 -53t52.5 -148v-331zM165 160q0 -33 19.5 -51t51.5 -18q60 0 92 38v105q-23 5 -51 5q-50 0 -81 -20.5 t-31 -58.5zM135 675l32 51q31 -47 95 -47q31 0 56.5 13.5t38.5 33.5l31 -51q-43 -81 -125 -81q-83 0 -128 81z" />
<glyph unicode="&#x104;" horiz-adv-x="626" d="M12 0l229 680h147l222 -680h-33q-32 -1 -54.5 -20t-22.5 -50q0 -25 14 -39t35 -14q24 0 45 14l12 -57q-32 -17 -76 -17q-39 0 -64 26t-25 70q0 58 50 87h-8l-43 141h-257l-44 -141h-127zM314 553l-98 -317h193z" />
<glyph unicode="&#x105;" horiz-adv-x="519" d="M452 0h-29q-32 -2 -53 -21t-21 -50q0 -25 13 -39t34 -14q25 0 45 14l13 -57q-34 -17 -76 -17q-40 0 -65 26t-25 69q0 60 54 89h-14v38q-55 -48 -133 -48q-77 0 -118 41.5t-41 114.5q0 89 64 136t169 47q29 0 59 -5v10q0 89 -96 89q-67 0 -132 -30l-23 103q87 36 174 36 q96 0 148.5 -53t52.5 -148v-331zM165 160q0 -33 19.5 -51t51.5 -18q60 0 92 38v105q-23 5 -51 5q-50 0 -81 -20.5t-31 -58.5z" />
<glyph unicode="&#x106;" horiz-adv-x="606" d="M46 340q0 161 84 255.5t215 94.5q135 0 226 -109l-66 -87q-71 77 -149 77q-84 0 -131.5 -59.5t-47.5 -171.5t47.5 -171.5t131.5 -59.5q78 0 149 77l66 -87q-91 -109 -226 -109q-131 0 -215 94.5t-84 255.5zM484 898l-88 -150h-105l70 150h123z" />
<glyph unicode="&#x107;" horiz-adv-x="507" d="M173 262q0 -76 34.5 -118t90.5 -42q62 0 116 54l57 -96q-78 -74 -176 -74q-110 0 -180 74.5t-70 201.5q0 126 70 200.5t180 74.5q100 0 176 -74l-57 -96q-54 54 -119 54q-54 0 -88 -41.5t-34 -117.5zM427 741l-88 -150h-105l70 150h123z" />
<glyph unicode="&#x108;" horiz-adv-x="606" d="M46 340q0 161 84 255.5t215 94.5q135 0 226 -109l-66 -87q-71 77 -149 77q-84 0 -131.5 -59.5t-47.5 -171.5t47.5 -171.5t131.5 -59.5q78 0 149 77l66 -87q-91 -109 -226 -109q-131 0 -215 94.5t-84 255.5zM400 748l-54 87l-55 -87h-94l87 150h123l87 -150h-94z" />
<glyph unicode="&#x109;" horiz-adv-x="507" d="M173 262q0 -76 34.5 -118t90.5 -42q62 0 116 54l57 -96q-78 -74 -176 -74q-110 0 -180 74.5t-70 201.5q0 126 70 200.5t180 74.5q100 0 176 -74l-57 -96q-54 54 -119 54q-54 0 -88 -41.5t-34 -117.5zM353 591l-54 87l-55 -87h-94l87 150h123l87 -150h-94z" />
<glyph unicode="&#x10a;" horiz-adv-x="606" d="M46 340q0 161 84 255.5t215 94.5q135 0 226 -109l-66 -87q-71 77 -149 77q-84 0 -131.5 -59.5t-47.5 -171.5t47.5 -171.5t131.5 -59.5q78 0 149 77l66 -87q-91 -109 -226 -109q-131 0 -215 94.5t-84 255.5zM269 828q0 65 75 65q73 0 73 -65t-73 -65q-75 0 -75 65z" />
<glyph unicode="&#x10b;" horiz-adv-x="507" d="M173 262q0 -76 34.5 -118t90.5 -42q62 0 116 54l57 -96q-78 -74 -176 -74q-110 0 -180 74.5t-70 201.5q0 126 70 200.5t180 74.5q100 0 176 -74l-57 -96q-54 54 -119 54q-54 0 -88 -41.5t-34 -117.5zM220 671q0 65 75 65q73 0 73 -65t-73 -65q-75 0 -75 65z" />
<glyph unicode="&#x10c;" horiz-adv-x="606" d="M46 340q0 161 84 255.5t215 94.5q135 0 226 -109l-66 -87q-71 77 -149 77q-84 0 -131.5 -59.5t-47.5 -171.5t47.5 -171.5t131.5 -59.5q78 0 149 77l66 -87q-91 -109 -226 -109q-131 0 -215 94.5t-84 255.5zM295 898l55 -86l54 86h94l-87 -150h-123l-87 150h94z" />
<glyph unicode="&#x10d;" horiz-adv-x="507" d="M173 262q0 -76 34.5 -118t90.5 -42q62 0 116 54l57 -96q-78 -74 -176 -74q-110 0 -180 74.5t-70 201.5q0 126 70 200.5t180 74.5q100 0 176 -74l-57 -96q-54 54 -119 54q-54 0 -88 -41.5t-34 -117.5zM243 741l55 -86l54 86h94l-87 -150h-123l-87 150h94z" />
<glyph unicode="&#x10e;" horiz-adv-x="681" d="M81 0v680h254q132 0 215.5 -90t83.5 -251q0 -160 -83.5 -249.5t-215.5 -89.5h-254zM209 112h110q86 0 135 59t49 168q0 110 -49 169.5t-135 59.5h-110v-456zM246 898l55 -86l54 86h94l-87 -150h-123l-87 150h94z" />
<glyph unicode="&#x10f;" horiz-adv-x="651" d="M511 710v-710h-125v50q-50 -60 -133 -60q-94 0 -150 72t-56 200t56 199t150 71q79 0 133 -57v235h125zM175 260q0 -73 31.5 -115.5t85.5 -42.5q56 0 94 44v229q-39 45 -94 45t-86 -42.5t-31 -117.5zM591 499l20 65q-48 10 -48 60q0 31 17.5 48t45.5 17q76 0 76 -75 q0 -62 -51 -138z" />
<glyph unicode="&#x110;" horiz-adv-x="686" d="M85 372v308h254q132 0 215.5 -90t83.5 -251q0 -160 -83.5 -249.5t-215.5 -89.5h-254v307h-51v65h51zM213 112h110q86 0 136 59t50 168q0 110 -50 169.5t-136 59.5h-110v-196h110v-65h-110v-195z" />
<glyph unicode="&#x111;" horiz-adv-x="583" d="M511 710v-62h74v-65h-74v-583h-125v50q-50 -60 -133 -60q-94 0 -150 72t-56 200t56 199t150 71q79 0 133 -57v108h-90v65h90v62h125zM175 260q0 -73 31.5 -115.5t85.5 -42.5q56 0 94 44v229q-39 45 -94 45t-86 -42.5t-31 -117.5z" />
<glyph unicode="&#x112;" horiz-adv-x="590" d="M542 0h-461v680h461v-113h-338v-162h276v-111h-276v-182h338v-112zM424 771h-219v89h219v-89z" />
<glyph unicode="&#x113;" horiz-adv-x="525" d="M465 221h-296q8 -127 130 -127q68 0 128 51l48 -95q-75 -64 -196 -64q-116 0 -175 75t-59 199q0 122 64 199.5t170 77.5q100 0 150 -58.5t50 -151.5q0 -55 -14 -106zM176 319h185q3 12 3 26q0 41 -22.5 62.5t-62.5 21.5q-46 0 -72.5 -30t-30.5 -80zM390 614h-219v89h219 v-89z" />
<glyph unicode="&#x114;" horiz-adv-x="590" d="M542 0h-461v680h461v-113h-338v-162h276v-111h-276v-182h338v-112zM186 832l32 51q31 -47 95 -47q31 0 56.5 13.5t38.5 33.5l31 -51q-43 -81 -125 -81q-83 0 -128 81z" />
<glyph unicode="&#x115;" horiz-adv-x="525" d="M465 221h-296q8 -127 130 -127q68 0 128 51l48 -95q-75 -64 -196 -64q-116 0 -175 75t-59 199q0 122 64 199.5t170 77.5q100 0 150 -58.5t50 -151.5q0 -55 -14 -106zM176 319h185q3 12 3 26q0 41 -22.5 62.5t-62.5 21.5q-46 0 -72.5 -30t-30.5 -80zM157 675l32 51 q31 -47 95 -47q31 0 56.5 13.5t38.5 33.5l31 -51q-43 -81 -125 -81q-83 0 -128 81z" />
<glyph unicode="&#x116;" horiz-adv-x="590" d="M542 0h-461v680h461v-113h-338v-162h276v-111h-276v-182h338v-112zM239 828q0 65 75 65q73 0 73 -65t-73 -65q-75 0 -75 65z" />
<glyph unicode="&#x117;" horiz-adv-x="525" d="M465 221h-296q8 -127 130 -127q68 0 128 51l48 -95q-75 -64 -196 -64q-116 0 -175 75t-59 199q0 122 64 199.5t170 77.5q100 0 150 -58.5t50 -151.5q0 -55 -14 -106zM176 319h185q3 12 3 26q0 41 -22.5 62.5t-62.5 21.5q-46 0 -72.5 -30t-30.5 -80zM209 671q0 65 75 65 q73 0 73 -65t-73 -65q-75 0 -75 65z" />
<glyph unicode="&#x118;" horiz-adv-x="590" d="M542 0h-9q-32 -1 -54.5 -20t-22.5 -50q0 -25 14 -39t35 -14q24 0 45 14l12 -57q-32 -17 -76 -17q-39 0 -64 26t-25 70q0 58 50 87h-366v680h461v-113h-338v-162h276v-111h-276v-182h338v-112z" />
<glyph unicode="&#x119;" horiz-adv-x="527" d="M466 221h-296q8 -127 130 -127q68 0 128 51l48 -95q-56 -48 -141 -60q-36 -20 -36 -60q0 -25 14 -39t35 -14q24 0 45 14l12 -57q-32 -17 -76 -17q-39 0 -64 26t-25 70t31 73q-111 3 -168 77.5t-57 196.5t64 199.5t170 77.5q100 0 150 -58.5t50 -151.5q0 -55 -14 -106z M177 319h185q3 12 3 26q0 41 -22.5 62.5t-62.5 21.5q-46 0 -72.5 -30t-30.5 -80z" />
<glyph unicode="&#x11a;" horiz-adv-x="590" d="M542 0h-461v680h461v-113h-338v-162h276v-111h-276v-182h338v-112zM259 898l55 -86l54 86h94l-87 -150h-123l-87 150h94z" />
<glyph unicode="&#x11b;" horiz-adv-x="525" d="M465 221h-296q8 -127 130 -127q68 0 128 51l48 -95q-75 -64 -196 -64q-116 0 -175 75t-59 199q0 122 64 199.5t170 77.5q100 0 150 -58.5t50 -151.5q0 -55 -14 -106zM176 319h185q3 12 3 26q0 41 -22.5 62.5t-62.5 21.5q-46 0 -72.5 -30t-30.5 -80zM226 741l55 -86l54 86 h94l-87 -150h-123l-87 150h94z" />
<glyph unicode="&#x11c;" horiz-adv-x="656" d="M579 608l-53 -102q-76 65 -157 65q-89 0 -140.5 -61t-51.5 -171q0 -112 51 -171t135 -59q72 0 118 35v140h-152v111h272v-324q-42 -34 -111.5 -57.5t-135.5 -23.5q-132 0 -220 94.5t-88 254.5q0 161 88 256t220 95q136 0 225 -82zM409 748l-54 87l-55 -87h-94l87 150h123 l87 -150h-94z" />
<glyph unicode="&#x11d;" horiz-adv-x="584" d="M48 280q0 115 56 183.5t149 68.5q87 0 133 -48v39h126v-487q0 -117 -62.5 -175.5t-165.5 -58.5q-99 0 -184 45l28 111q80 -48 142 -48q116 0 116 109v64q-53 -53 -133 -53q-93 0 -149 68t-56 182zM176 280q0 -64 31.5 -101.5t86.5 -37.5q48 0 92 46v186q-41 47 -92 47 q-55 0 -86.5 -37.5t-31.5 -102.5zM353 591l-54 87l-55 -87h-94l87 150h123l87 -150h-94z" />
<glyph unicode="&#x11e;" horiz-adv-x="656" d="M579 608l-53 -102q-76 65 -157 65q-89 0 -140.5 -61t-51.5 -171q0 -112 51 -171t135 -59q72 0 118 35v140h-152v111h272v-324q-42 -34 -111.5 -57.5t-135.5 -23.5q-132 0 -220 94.5t-88 254.5q0 161 88 256t220 95q136 0 225 -82zM230 832l32 51q31 -47 95 -47 q31 0 56.5 13.5t38.5 33.5l31 -51q-43 -81 -125 -81q-83 0 -128 81z" />
<glyph unicode="&#x11f;" horiz-adv-x="584" d="M48 280q0 115 56 183.5t149 68.5q87 0 133 -48v39h126v-487q0 -117 -62.5 -175.5t-165.5 -58.5q-99 0 -184 45l28 111q80 -48 142 -48q116 0 116 109v64q-53 -53 -133 -53q-93 0 -149 68t-56 182zM176 280q0 -64 31.5 -101.5t86.5 -37.5q48 0 92 46v186q-41 47 -92 47 q-55 0 -86.5 -37.5t-31.5 -102.5zM174 675l32 51q31 -47 95 -47q31 0 56.5 13.5t38.5 33.5l31 -51q-43 -81 -125 -81q-83 0 -128 81z" />
<glyph unicode="&#x120;" horiz-adv-x="656" d="M579 608l-53 -102q-76 65 -157 65q-89 0 -140.5 -61t-51.5 -171q0 -112 51 -171t135 -59q72 0 118 35v140h-152v111h272v-324q-42 -34 -111.5 -57.5t-135.5 -23.5q-132 0 -220 94.5t-88 254.5q0 161 88 256t220 95q136 0 225 -82zM280 828q0 65 75 65q73 0 73 -65 t-73 -65q-75 0 -75 65z" />
<glyph unicode="&#x121;" horiz-adv-x="584" d="M48 280q0 115 56 183.5t149 68.5q87 0 133 -48v39h126v-487q0 -117 -62.5 -175.5t-165.5 -58.5q-99 0 -184 45l28 111q80 -48 142 -48q116 0 116 109v64q-53 -53 -133 -53q-93 0 -149 68t-56 182zM176 280q0 -64 31.5 -101.5t86.5 -37.5q48 0 92 46v186q-41 47 -92 47 q-55 0 -86.5 -37.5t-31.5 -102.5zM233 671q0 65 75 65q73 0 73 -65t-73 -65q-75 0 -75 65z" />
<glyph unicode="&#x122;" horiz-adv-x="656" d="M579 608l-53 -102q-76 65 -157 65q-89 0 -140.5 -61t-51.5 -171q0 -112 51 -171t135 -59q72 0 118 35v140h-152v111h272v-324q-42 -34 -111.5 -57.5t-135.5 -23.5q-132 0 -220 94.5t-88 254.5q0 161 88 256t220 95q136 0 225 -82zM309 -251l20 65q-48 10 -48 60 q0 31 17.5 48t45.5 17q76 0 76 -75q0 -62 -51 -138z" />
<glyph unicode="&#x123;" horiz-adv-x="584" d="M48 280q0 115 56 183.5t149 68.5q87 0 133 -48v39h126v-487q0 -117 -62.5 -175.5t-165.5 -58.5q-99 0 -184 45l28 111q80 -48 142 -48q116 0 116 109v64q-53 -53 -133 -53q-93 0 -149 68t-56 182zM176 280q0 -64 31.5 -101.5t86.5 -37.5q48 0 92 46v186q-41 47 -92 47 q-55 0 -86.5 -37.5t-31.5 -102.5zM344 777l-20 -66q49 -9 49 -60q0 -30 -18 -47.5t-46 -17.5q-75 0 -75 75q0 68 51 138z" />
<glyph unicode="&#x124;" horiz-adv-x="718" d="M509 0v287h-300v-287h-128v680h128v-281h300v281h128v-680h-128zM413 748l-54 87l-55 -87h-94l87 150h123l87 -150h-94z" />
<glyph unicode="&#x125;" horiz-adv-x="589" d="M520 0h-125v303q0 111 -91 111q-38 0 -66 -25.5t-41 -61.5v-327h-125v710h125v-248q55 70 156 70q167 0 167 -204v-328zM358 752l-54 87l-55 -87h-94l87 150h123l87 -150h-94z" />
<glyph unicode="&#x126;" horiz-adv-x="726" d="M513 0v287h-300v-287h-128v505h-36v65h36v110h128v-110h300v110h128v-110h39v-65h-39v-505h-128zM213 399h300v106h-300v-106z" />
<glyph unicode="&#x127;" horiz-adv-x="589" d="M520 0h-125v303q0 111 -91 111q-38 0 -66 -25.5t-41 -61.5v-327h-125v583h-60v65h60v62h125v-62h104v-65h-104v-121q55 70 156 70q167 0 167 -204v-328z" />
<glyph unicode="&#x128;" horiz-adv-x="291" d="M81 0v680h128v-680h-128zM22 761l-37 51q14 34 40.5 58t56.5 24q33 0 72 -30.5t58 -30.5q38 0 58 45l38 -50q-37 -82 -97 -82q-31 0 -71.5 30t-57.5 30q-37 0 -60 -45z" />
<glyph unicode="&#x129;" horiz-adv-x="271" d="M10 604l-37 51q14 34 40.5 58t56.5 24q33 0 72 -30.5t58 -30.5q38 0 58 45l38 -50q-37 -82 -97 -82q-31 0 -71.5 30t-57.5 30q-37 0 -60 -45zM198 0h-126v523h126v-523z" />
<glyph unicode="&#x12a;" horiz-adv-x="291" d="M81 0v680h128v-680h-128zM256 771h-219v89h219v-89z" />
<glyph unicode="&#x12b;" horiz-adv-x="271" d="M243 614h-219v89h219v-89zM198 0h-126v523h126v-523z" />
<glyph unicode="&#x12c;" horiz-adv-x="291" d="M81 0v680h128v-680h-128zM19 832l32 51q31 -47 95 -47q31 0 56.5 13.5t38.5 33.5l31 -51q-43 -81 -125 -81q-83 0 -128 81z" />
<glyph unicode="&#x12d;" horiz-adv-x="271" d="M7 675l32 51q31 -47 95 -47q31 0 56.5 13.5t38.5 33.5l31 -51q-43 -81 -125 -81q-83 0 -128 81zM198 0h-126v523h126v-523z" />
<glyph unicode="&#x12e;" horiz-adv-x="291" d="M81 0v680h128v-680h-26q-32 -2 -53 -21t-21 -49q0 -25 14 -39t35 -14q24 0 45 14l12 -57q-32 -17 -76 -17q-39 0 -64 26t-25 70q0 58 50 87h-19z" />
<glyph unicode="&#x12f;" horiz-adv-x="271" d="M198 0h-23q-32 -2 -53 -21t-21 -49q0 -25 14 -39t35 -14q24 0 45 14l12 -57q-32 -17 -76 -17q-39 0 -64 26t-25 70q0 58 50 87h-20v523h126v-523zM60 671q0 65 76 65q73 0 73 -65t-73 -65q-76 0 -76 65z" />
<glyph unicode="&#x130;" horiz-adv-x="291" d="M81 0v680h128v-680h-128zM72 828q0 65 75 65q73 0 73 -65t-73 -65q-75 0 -75 65z" />
<glyph unicode="&#x131;" horiz-adv-x="271" d="M198 0h-126v523h126v-523z" />
<glyph unicode="&#x132;" horiz-adv-x="857" d="M81 0v680h128v-680h-128zM317 228l123 12q4 -71 29 -103.5t77 -32.5q107 0 107 142v434h128v-432q0 -119 -60 -189t-177 -70q-108 0 -166 63t-61 176z" />
<glyph unicode="&#x133;" horiz-adv-x="578" d="M60 671q0 65 76 65q73 0 73 -65t-73 -65q-76 0 -76 65zM198 0h-126v523h126v-523zM386 -197l-75 84q34 25 51 57t17 84v495h126v-489q0 -157 -119 -231zM368 671q0 65 74 65t74 -65t-74 -65t-74 65z" />
<glyph unicode="&#x134;" horiz-adv-x="556" d="M17 228l123 12q4 -71 29 -103.5t77 -32.5q107 0 107 142v434h128v-432q0 -119 -60 -189t-177 -70q-108 0 -166 63t-61 176zM468 748l-54 87l-55 -87h-94l87 150h123l87 -150h-94z" />
<glyph unicode="&#x135;" horiz-adv-x="270" d="M78 -197l-74 75q68 51 68 146v499h125v-489q0 -157 -119 -231zM188 591l-54 87l-55 -87h-94l87 150h123l87 -150h-94z" />
<glyph unicode="&#x136;" horiz-adv-x="615" d="M81 0v680h128v-288h43l198 288h130v-19l-226 -322l250 -321v-18h-146l-209 280h-40v-280h-128zM279 -251l20 65q-48 10 -48 60q0 31 17.5 48t45.5 17q76 0 76 -75q0 -62 -51 -138z" />
<glyph unicode="&#x137;" horiz-adv-x="535" d="M498 523v-21l-184 -225l198 -256v-21h-147l-168 227v-227h-125v710h125v-402l163 215h138zM233 -251l20 65q-48 10 -48 60q0 31 17.5 48t45.5 17q76 0 76 -75q0 -62 -51 -138z" />
<glyph unicode="&#x138;" horiz-adv-x="534" d="M498 523v-21l-184 -236l198 -245v-21h-147l-168 216v-216h-125v522h125v-227l163 228h138z" />
<glyph unicode="&#x139;" horiz-adv-x="522" d="M506 0h-425v680h128v-568h297v-112zM282 898l-88 -150h-105l70 150h123z" />
<glyph unicode="&#x13a;" horiz-adv-x="305" d="M74 710h126v-561q0 -51 37 -51q22 0 48 16l5 -101q-46 -23 -101 -23q-59 0 -87 29t-28 96v595zM266 902l-88 -150h-105l70 150h123z" />
<glyph unicode="&#x13b;" horiz-adv-x="522" d="M506 0h-425v680h128v-568h297v-112zM252 -251l20 65q-48 10 -48 60q0 31 17.5 48t45.5 17q76 0 76 -75q0 -62 -51 -138z" />
<glyph unicode="&#x13c;" horiz-adv-x="305" d="M74 710h126v-561q0 -51 37 -51q22 0 48 16l5 -101q-46 -23 -101 -23q-59 0 -87 29t-28 96v595zM133 -251l20 65q-48 10 -48 60q0 31 17.5 48t45.5 17q76 0 76 -75q0 -62 -51 -138z" />
<glyph unicode="&#x13d;" horiz-adv-x="527" d="M506 0h-425v680h128v-568h297v-112zM365 499l20 65q-48 10 -48 60q0 31 17.5 48t45.5 17q76 0 76 -75q0 -62 -51 -138z" />
<glyph unicode="&#x13e;" horiz-adv-x="351" d="M74 710h126v-561q0 -51 37 -51q22 0 48 16l5 -101q-46 -23 -101 -23q-59 0 -87 29t-28 96v595zM279 499l20 65q-48 10 -48 60q0 31 17.5 48t45.5 17q76 0 76 -75q0 -62 -51 -138z" />
<glyph unicode="&#x13f;" horiz-adv-x="533" d="M506 0h-425v680h128v-568h297v-112zM307 380q0 73 70 73q34 0 52.5 -19t18.5 -54t-18.5 -54t-52.5 -19q-70 0 -70 73z" />
<glyph unicode="&#x140;" horiz-adv-x="377" d="M74 710h126v-561q0 -51 37 -51q22 0 48 16l5 -101q-46 -23 -101 -23q-59 0 -87 29t-28 96v595zM255 380q0 73 70 73q34 0 52.5 -19t18.5 -54t-18.5 -54t-52.5 -19q-70 0 -70 73z" />
<glyph unicode="&#x141;" horiz-adv-x="526" d="M510 0h-425v256l-35 -20v102l35 20v322h128v-249l96 56v-102l-96 -56v-217h297v-112z" />
<glyph unicode="&#x142;" horiz-adv-x="311" d="M78 710h126v-251l62 35v-102l-62 -36v-207q0 -51 37 -51q22 0 48 16l5 -101q-46 -23 -101 -23q-59 0 -87 29t-28 96v169l-38 -21v103l38 21v323z" />
<glyph unicode="&#x143;" horiz-adv-x="717" d="M523 0l-315 465v-465h-127v680h111l315 -466v466h129v-680h-113zM497 898l-88 -150h-105l70 150h123z" />
<glyph unicode="&#x144;" horiz-adv-x="589" d="M520 0h-126v303q0 111 -89 111q-39 0 -67 -25.5t-41 -61.5v-327h-125v523h125v-61q55 70 156 70q167 0 167 -204v-328zM427 741l-88 -150h-105l70 150h123z" />
<glyph unicode="&#x145;" horiz-adv-x="717" d="M523 0l-315 465v-465h-127v680h111l315 -466v466h129v-680h-113zM314 -251l20 65q-48 10 -48 60q0 31 17.5 48t45.5 17q76 0 76 -75q0 -62 -51 -138z" />
<glyph unicode="&#x146;" horiz-adv-x="589" d="M520 0h-126v303q0 111 -89 111q-39 0 -67 -25.5t-41 -61.5v-327h-125v523h125v-61q55 70 156 70q167 0 167 -204v-328zM261 -251l20 65q-48 10 -48 60q0 31 17.5 48t45.5 17q76 0 76 -75q0 -62 -51 -138z" />
<glyph unicode="&#x147;" horiz-adv-x="717" d="M523 0l-315 465v-465h-127v680h111l315 -466v466h129v-680h-113zM308 898l55 -86l54 86h94l-87 -150h-123l-87 150h94z" />
<glyph unicode="&#x148;" horiz-adv-x="589" d="M520 0h-126v303q0 111 -89 111q-39 0 -67 -25.5t-41 -61.5v-327h-125v523h125v-61q55 70 156 70q167 0 167 -204v-328zM242 741l55 -86l54 86h94l-87 -150h-123l-87 150h94z" />
<glyph unicode="&#x149;" horiz-adv-x="696" d="M628 0h-126v303q0 111 -89 111q-39 0 -67 -25.5t-41 -61.5v-327h-125v523h125v-61q55 70 156 70q167 0 167 -204v-328zM36 501l20 65q-48 10 -48 60q0 31 17.5 48t45.5 17q76 0 76 -75q0 -62 -51 -138z" />
<glyph unicode="&#x14a;" horiz-adv-x="712" d="M506 34l-299 437v-471h-126v680h109l316 -466v466h126v-635q0 -164 -125 -240l-74 74q73 58 73 155z" />
<glyph unicode="&#x14b;" horiz-adv-x="589" d="M520 328v-287q0 -160 -124 -236l-75 74q35 29 54 64t19 93v267q0 111 -89 111q-39 0 -67 -25.5t-41 -61.5v-327h-125v523h125v-61q55 70 156 70q167 0 167 -204z" />
<glyph unicode="&#x14c;" horiz-adv-x="687" d="M46 339q0 156 81 253.5t215 97.5q135 0 217 -97.5t82 -253.5q0 -155 -82 -252t-217 -97q-134 0 -215 97t-81 252zM172 339q0 -112 46 -170t124 -58q79 0 126 58t47 170q0 113 -47 171.5t-126 58.5q-78 0 -124 -58t-46 -172zM452 771h-219v89h219v-89z" />
<glyph unicode="&#x14d;" horiz-adv-x="568" d="M45 260q0 129 65 203t173 74q110 0 175 -74t65 -203q0 -128 -65 -201t-175 -73q-108 0 -173 73t-65 201zM169 260q0 -76 30.5 -117t83.5 -41q54 0 84.5 40.5t30.5 117.5q0 78 -30.5 119t-84.5 41q-53 0 -83.5 -41t-30.5 -119zM393 614h-219v89h219v-89z" />
<glyph unicode="&#x14e;" horiz-adv-x="687" d="M46 339q0 156 81 253.5t215 97.5q135 0 217 -97.5t82 -253.5q0 -155 -82 -252t-217 -97q-134 0 -215 97t-81 252zM172 339q0 -112 46 -170t124 -58q79 0 126 58t47 170q0 113 -47 171.5t-126 58.5q-78 0 -124 -58t-46 -172zM216 832l32 51q31 -47 95 -47q31 0 56.5 13.5 t38.5 33.5l31 -51q-43 -81 -125 -81q-83 0 -128 81z" />
<glyph unicode="&#x14f;" horiz-adv-x="568" d="M45 260q0 129 65 203t173 74q110 0 175 -74t65 -203q0 -128 -65 -201t-175 -73q-108 0 -173 73t-65 201zM169 260q0 -76 30.5 -117t83.5 -41q54 0 84.5 40.5t30.5 117.5q0 78 -30.5 119t-84.5 41q-53 0 -83.5 -41t-30.5 -119zM157 675l32 51q31 -47 95 -47 q31 0 56.5 13.5t38.5 33.5l31 -51q-43 -81 -125 -81q-83 0 -128 81z" />
<glyph unicode="&#x150;" horiz-adv-x="687" d="M46 339q0 156 81 253.5t215 97.5q135 0 217 -97.5t82 -253.5q0 -155 -82 -252t-217 -97q-134 0 -215 97t-81 252zM172 339q0 -112 46 -170t124 -58q79 0 126 58t47 170q0 113 -47 171.5t-126 58.5q-78 0 -124 -58t-46 -172zM403 898l-89 -150h-104l69 150h124zM581 898 l-88 -150h-105l70 150h123z" />
<glyph unicode="&#x151;" horiz-adv-x="568" d="M45 260q0 129 65 203t173 74q110 0 175 -74t65 -203q0 -128 -65 -201t-175 -73q-108 0 -173 73t-65 201zM169 260q0 -76 30.5 -117t83.5 -41q54 0 84.5 40.5t30.5 117.5q0 78 -30.5 119t-84.5 41q-53 0 -83.5 -41t-30.5 -119zM333 741l-89 -150h-104l69 150h124zM511 741 l-88 -150h-105l70 150h123z" />
<glyph unicode="&#x152;" horiz-adv-x="989" d="M941 0h-460v34q-65 -45 -142 -45q-126 0 -209.5 99.5t-83.5 249.5q0 151 83 251t210 100q79 0 142 -44v35h461v-113h-339v-166h276v-103h-276v-186h338v-112zM167 338q0 -98 50.5 -163.5t129.5 -65.5q85 0 134 62v336q-50 62 -135 62q-78 0 -128.5 -65.5t-50.5 -165.5z " />
<glyph unicode="&#x153;" horiz-adv-x="919" d="M862 226h-305q1 -56 34 -97.5t98 -41.5q68 0 136 55l43 -89q-78 -67 -187 -67q-149 0 -201 121q-26 -58 -78.5 -89.5t-120.5 -31.5q-108 0 -172 73t-64 201q0 129 64 203t172 74q69 0 122 -33t79 -93q26 58 76 92t116 34q99 0 149 -60t50 -158q0 -43 -11 -93zM166 260 q0 -76 32 -117t85 -41q54 0 86 41t32 117q0 78 -31.5 119t-86.5 41q-53 0 -85 -41.5t-32 -118.5zM565 314h200q3 17 3 28q0 43 -24.5 71.5t-66.5 28.5q-51 0 -80.5 -34.5t-31.5 -93.5z" />
<glyph unicode="&#x154;" horiz-adv-x="615" d="M81 0v680h284q91 0 148.5 -61t57.5 -161q0 -79 -43.5 -134.5t-112.5 -71.5l178 -231v-21h-139l-182 247h-63v-247h-128zM332 568h-123v-220h123q48 0 78 29t30 80q0 54 -29.5 82.5t-78.5 28.5zM429 898l-88 -150h-105l70 150h123z" />
<glyph unicode="&#x155;" horiz-adv-x="411" d="M199 0h-127v523h127v-67q35 76 115 76q49 0 79 -22l-18 -117q-35 21 -73 21q-73 0 -103 -95v-319zM330 741l-88 -150h-105l70 150h123z" />
<glyph unicode="&#x156;" horiz-adv-x="615" d="M81 0v680h284q91 0 148.5 -61t57.5 -161q0 -79 -43.5 -134.5t-112.5 -71.5l178 -231v-21h-139l-182 247h-63v-247h-128zM332 568h-123v-220h123q48 0 78 29t30 80q0 54 -29.5 82.5t-78.5 28.5zM285 -251l20 65q-48 10 -48 60q0 31 17.5 48t45.5 17q76 0 76 -75 q0 -62 -51 -138z" />
<glyph unicode="&#x157;" horiz-adv-x="411" d="M199 0h-127v523h127v-67q35 76 115 76q49 0 79 -22l-18 -117q-35 21 -73 21q-73 0 -103 -95v-319zM95 -251l20 65q-48 10 -48 60q0 31 17.5 48t45.5 17q76 0 76 -75q0 -62 -51 -138z" />
<glyph unicode="&#x158;" horiz-adv-x="615" d="M81 0v680h284q91 0 148.5 -61t57.5 -161q0 -79 -43.5 -134.5t-112.5 -71.5l178 -231v-21h-139l-182 247h-63v-247h-128zM332 568h-123v-220h123q48 0 78 29t30 80q0 54 -29.5 82.5t-78.5 28.5zM240 898l55 -86l54 86h94l-87 -150h-123l-87 150h94z" />
<glyph unicode="&#x159;" horiz-adv-x="411" d="M199 0h-127v523h127v-67q35 76 115 76q49 0 79 -22l-18 -117q-35 21 -73 21q-73 0 -103 -95v-319zM171 741l55 -86l54 86h94l-87 -150h-123l-87 150h94z" />
<glyph unicode="&#x15a;" horiz-adv-x="538" d="M40 44l29 121q35 -24 85 -41t96 -17q49 0 82.5 23t33.5 65q0 61 -78 84l-95 29q-145 43 -145 182q0 82 61 140.5t170 58.5q117 0 204 -49l-36 -112q-74 45 -163 45q-53 0 -81.5 -21.5t-28.5 -57.5q0 -30 17 -47t53 -29l94 -29q82 -26 120.5 -72t38.5 -115 q0 -92 -67.5 -152t-175.5 -60q-59 0 -119.5 16.5t-94.5 37.5zM412 898l-88 -150h-105l70 150h123z" />
<glyph unicode="&#x15b;" horiz-adv-x="454" d="M402 498l-30 -108q-72 34 -130 34q-65 0 -65 -49q0 -17 13.5 -28.5t44.5 -21.5l53 -18q66 -21 94.5 -57.5t28.5 -90.5q0 -70 -54.5 -119.5t-141.5 -49.5q-98 0 -172 39l25 111q76 -44 141 -44q35 0 55 14t20 39q0 23 -13.5 36t-45.5 23l-53 18q-124 39 -124 145 q0 70 49.5 115.5t137.5 45.5q42 0 90.5 -10.5t76.5 -23.5zM355 741l-88 -150h-105l70 150h123z" />
<glyph unicode="&#x15c;" horiz-adv-x="538" d="M40 44l29 121q35 -24 85 -41t96 -17q49 0 82.5 23t33.5 65q0 61 -78 84l-95 29q-145 43 -145 182q0 82 61 140.5t170 58.5q117 0 204 -49l-36 -112q-74 45 -163 45q-53 0 -81.5 -21.5t-28.5 -57.5q0 -30 17 -47t53 -29l94 -29q82 -26 120.5 -72t38.5 -115 q0 -92 -67.5 -152t-175.5 -60q-59 0 -119.5 16.5t-94.5 37.5zM324 748l-54 87l-55 -87h-94l87 150h123l87 -150h-94z" />
<glyph unicode="&#x15d;" horiz-adv-x="454" d="M402 498l-30 -108q-72 34 -130 34q-65 0 -65 -49q0 -17 13.5 -28.5t44.5 -21.5l53 -18q66 -21 94.5 -57.5t28.5 -90.5q0 -70 -54.5 -119.5t-141.5 -49.5q-98 0 -172 39l25 111q76 -44 141 -44q35 0 55 14t20 39q0 23 -13.5 36t-45.5 23l-53 18q-124 39 -124 145 q0 70 49.5 115.5t137.5 45.5q42 0 90.5 -10.5t76.5 -23.5zM283 591l-54 87l-55 -87h-94l87 150h123l87 -150h-94z" />
<glyph unicode="&#x15e;" horiz-adv-x="538" d="M204 -97l22 88q-115 8 -186 53l29 121q35 -24 85 -41t96 -17q49 0 82.5 23t33.5 65q0 61 -78 84l-95 29q-145 43 -145 182q0 82 61 140.5t170 58.5q117 0 204 -49l-36 -112q-74 45 -163 45q-53 0 -81.5 -21.5t-28.5 -57.5q0 -30 17 -47t53 -29l94 -29q82 -26 120.5 -72 t38.5 -115q0 -87 -61 -146t-160 -65l-12 -50q9 3 22 3q35 0 54.5 -18t19.5 -48q0 -36 -27 -56t-70 -20q-36 0 -68 11l11 43q31 -11 53 -11q44 0 44 31q0 29 -43 29q-32 0 -53 -7z" />
<glyph unicode="&#x15f;" horiz-adv-x="455" d="M165 -97l22 88q-88 7 -144 38l25 111q76 -44 141 -44q35 0 55 14t20 39q0 23 -13.5 36t-45.5 23l-53 18q-124 39 -124 145q0 70 49.5 115.5t137.5 45.5q42 0 90.5 -10.5t76.5 -23.5l-30 -108q-72 34 -130 34q-65 0 -65 -49q0 -17 13.5 -28.5t44.5 -21.5l53 -18 q66 -21 94.5 -57.5t28.5 -90.5q0 -65 -48 -113t-126 -55l-12 -50q9 3 22 3q35 0 54.5 -18t19.5 -48q0 -36 -27 -56t-70 -20q-36 0 -68 11l11 43q31 -11 53 -11q44 0 44 31q0 29 -43 29q-32 0 -53 -7z" />
<glyph unicode="&#x160;" horiz-adv-x="538" d="M40 44l29 121q35 -24 85 -41t96 -17q49 0 82.5 23t33.5 65q0 61 -78 84l-95 29q-145 43 -145 182q0 82 61 140.5t170 58.5q117 0 204 -49l-36 -112q-74 45 -163 45q-53 0 -81.5 -21.5t-28.5 -57.5q0 -30 17 -47t53 -29l94 -29q82 -26 120.5 -72t38.5 -115 q0 -92 -67.5 -152t-175.5 -60q-59 0 -119.5 16.5t-94.5 37.5zM210 898l55 -86l54 86h94l-87 -150h-123l-87 150h94z" />
<glyph unicode="&#x161;" horiz-adv-x="454" d="M402 498l-30 -108q-72 34 -130 34q-65 0 -65 -49q0 -17 13.5 -28.5t44.5 -21.5l53 -18q66 -21 94.5 -57.5t28.5 -90.5q0 -70 -54.5 -119.5t-141.5 -49.5q-98 0 -172 39l25 111q76 -44 141 -44q35 0 55 14t20 39q0 23 -13.5 36t-45.5 23l-53 18q-124 39 -124 145 q0 70 49.5 115.5t137.5 45.5q42 0 90.5 -10.5t76.5 -23.5zM174 741l55 -86l54 86h94l-87 -150h-123l-87 150h94z" />
<glyph unicode="&#x162;" horiz-adv-x="536" d="M515 567h-180v-567h-47l-14 -59q9 3 22 3q35 0 54.5 -18t19.5 -48q0 -36 -27 -56t-70 -20q-36 0 -68 11l11 43q31 -11 53 -11q44 0 44 31q0 29 -43 29q-32 0 -53 -7l-3 5l24 97h-31v567h-185v113h493v-113z" />
<glyph unicode="&#x163;" horiz-adv-x="438" d="M193 -97l23 92q-107 25 -107 161v267h-78v100h86l14 133h103v-133h160v-100h-160v-251q0 -71 60 -71q46 0 90 33l31 -101q-72 -42 -150 -43l-12 -49q9 3 22 3q35 0 54.5 -18t19.5 -48q0 -36 -27 -56t-70 -20q-36 0 -68 11l11 43q31 -11 53 -11q44 0 44 31q0 29 -43 29 q-32 0 -53 -7z" />
<glyph unicode="&#x164;" horiz-adv-x="536" d="M515 567h-180v-567h-128v567h-185v113h493v-113zM217 898l55 -86l54 86h94l-87 -150h-123l-87 150h94z" />
<glyph unicode="&#x165;" horiz-adv-x="480" d="M233 423v-251q0 -71 60 -71q46 0 90 33l31 -101q-74 -43 -152 -43q-71 0 -112.5 41t-41.5 125v267h-78v100h86l14 133h103v-133h160v-100h-160zM424 499l20 65q-48 10 -48 60q0 31 17.5 48t45.5 17q76 0 76 -75q0 -62 -51 -138z" />
<glyph unicode="&#x166;" horiz-adv-x="536" d="M207 0v283h-78v65h78v219h-185v113h493v-113h-180v-219h84v-65h-84v-283h-128z" />
<glyph unicode="&#x167;" horiz-adv-x="440" d="M235 423v-117h99v-65h-99v-69q0 -71 60 -71q46 0 90 33l30 -96q-83 -48 -161 -48q-144 0 -144 166v85h-65v65h65v117h-78v100h86q2 22 7 66.5t7 66.5h103v-133h160v-100h-160z" />
<glyph unicode="&#x168;" horiz-adv-x="678" d="M202 680v-398q0 -174 136 -174q138 0 138 175v397h128v-406q0 -127 -67 -206t-199 -79t-198 76t-66 209v406h128zM215 761l-37 51q14 34 40.5 58t56.5 24q33 0 72 -30.5t58 -30.5q38 0 58 45l38 -50q-37 -82 -97 -82q-31 0 -71.5 30t-57.5 30q-37 0 -60 -45z" />
<glyph unicode="&#x169;" horiz-adv-x="588" d="M68 523h126v-303q0 -111 89 -111q39 0 67 25.5t41 61.5v327h125v-523h-125v61q-24 -32 -65 -51t-90 -19q-168 0 -168 204v328zM170 604l-37 51q14 34 40.5 58t56.5 24q33 0 72 -30.5t58 -30.5q38 0 58 45l38 -50q-37 -82 -97 -82q-31 0 -71.5 30t-57.5 30q-37 0 -60 -45z " />
<glyph unicode="&#x16a;" horiz-adv-x="678" d="M202 680v-398q0 -174 136 -174q138 0 138 175v397h128v-406q0 -127 -67 -206t-199 -79t-198 76t-66 209v406h128zM448 771h-219v89h219v-89z" />
<glyph unicode="&#x16b;" horiz-adv-x="588" d="M68 523h126v-303q0 -111 89 -111q39 0 67 25.5t41 61.5v327h125v-523h-125v61q-24 -32 -65 -51t-90 -19q-168 0 -168 204v328zM403 614h-219v89h219v-89z" />
<glyph unicode="&#x16c;" horiz-adv-x="678" d="M202 680v-398q0 -174 136 -174q138 0 138 175v397h128v-406q0 -127 -67 -206t-199 -79t-198 76t-66 209v406h128zM212 832l32 51q31 -47 95 -47q31 0 56.5 13.5t38.5 33.5l31 -51q-43 -81 -125 -81q-83 0 -128 81z" />
<glyph unicode="&#x16d;" horiz-adv-x="588" d="M68 523h126v-303q0 -111 89 -111q39 0 67 25.5t41 61.5v327h125v-523h-125v61q-24 -32 -65 -51t-90 -19q-168 0 -168 204v328zM166 675l32 51q31 -47 95 -47q31 0 56.5 13.5t38.5 33.5l31 -51q-43 -81 -125 -81q-83 0 -128 81z" />
<glyph unicode="&#x16e;" horiz-adv-x="678" d="M202 680v-398q0 -174 136 -174q138 0 138 175v397h128v-406q0 -127 -67 -206t-199 -79t-198 76t-66 209v406h128zM244 787q0 41 29 69.5t69 28.5t69 -28.5t29 -69.5t-29 -69.5t-69 -28.5t-69 28.5t-29 69.5zM297 787q0 -19 13 -32t32 -13q18 0 31 13t13 32q0 18 -13 31 t-31 13q-19 0 -32 -13t-13 -31z" />
<glyph unicode="&#x16f;" horiz-adv-x="588" d="M68 523h126v-303q0 -111 89 -111q39 0 67 25.5t41 61.5v327h125v-523h-125v61q-24 -32 -65 -51t-90 -19q-168 0 -168 204v328zM198 670q0 40 29 69t69 29t69 -29t29 -69t-29 -69t-69 -29t-69 29t-29 69zM251 670q0 -19 13 -32t32 -13q18 0 31 13t13 32q0 18 -13 31 t-31 13q-19 0 -32 -13t-13 -31z" />
<glyph unicode="&#x170;" horiz-adv-x="678" d="M202 680v-398q0 -174 136 -174q138 0 138 175v397h128v-406q0 -127 -67 -206t-199 -79t-198 76t-66 209v406h128zM387 898l-89 -150h-104l69 150h124zM565 898l-88 -150h-105l70 150h123z" />
<glyph unicode="&#x171;" horiz-adv-x="588" d="M68 523h126v-303q0 -111 89 -111q39 0 67 25.5t41 61.5v327h125v-523h-125v61q-24 -32 -65 -51t-90 -19q-168 0 -168 204v328zM341 741l-89 -150h-104l69 150h124zM519 741l-88 -150h-105l70 150h123z" />
<glyph unicode="&#x172;" horiz-adv-x="679" d="M202 680v-398q0 -174 136 -174q138 0 138 175v397h128v-406q0 -115 -55 -191.5t-164 -90.5q-40 -18 -40 -62q0 -25 14 -39t35 -14q24 0 45 14l12 -57q-32 -17 -76 -17q-39 0 -64 26t-25 70q0 47 34 77q-123 5 -184.5 80t-61.5 204v406h128z" />
<glyph unicode="&#x173;" horiz-adv-x="588" d="M68 523h126v-303q0 -111 89 -111q39 0 67 25.5t41 61.5v327h125v-523h-25q-32 -2 -53 -21t-21 -49q0 -25 14 -39t35 -14q24 0 45 14l12 -57q-32 -17 -76 -17q-39 0 -64 26t-25 70q0 58 50 87h-17v61q-24 -32 -65 -51t-90 -19q-168 0 -168 204v328z" />
<glyph unicode="&#x174;" horiz-adv-x="946" d="M568 0l-94 304l-101 -304h-137l-221 680h135l166 -536l103 311l-70 225h137l149 -516l161 516h138l-228 -680h-138zM527 748l-54 87l-55 -87h-94l87 150h123l87 -150h-94z" />
<glyph unicode="&#x175;" horiz-adv-x="870" d="M711 523h136l-158 -523h-159l-94 359l-102 -359h-158l-149 523h136l97 -404l100 404h154l91 -404zM489 591l-54 87l-55 -87h-94l87 150h123l87 -150h-94z" />
<glyph unicode="&#x176;" horiz-adv-x="596" d="M235 0v272l-224 399v9h140l148 -290l147 290h140v-9l-225 -398v-273h-126zM353 748l-54 87l-55 -87h-94l87 150h123l87 -150h-94z" />
<glyph unicode="&#x177;" horiz-adv-x="536" d="M33 -169l19 96q38 -20 74 -20q31 0 49 18t31 58l8 29l-201 511h139l118 -383l113 382q21 0 63.5 0.5t63.5 0.5l-195 -565q-27 -80 -67.5 -118t-112.5 -38q-56 0 -102 29zM322 591l-54 87l-55 -87h-94l87 150h123l87 -150h-94z" />
<glyph unicode="&#x178;" horiz-adv-x="596" d="M235 0v272l-224 399v9h140l148 -290l147 290h140v-9l-225 -398v-273h-126zM121 826q0 62 69 62q71 0 71 -62t-71 -62q-69 0 -69 62zM338 826q0 62 71 62q68 0 68 -62t-68 -62q-71 0 -71 62z" />
<glyph unicode="&#x179;" horiz-adv-x="547" d="M47 90l290 478h-290v112h453v-90l-290 -478h290v-112h-453v90zM409 898l-88 -150h-105l70 150h123z" />
<glyph unicode="&#x17a;" horiz-adv-x="462" d="M49 90l207 332h-207v101h365v-90l-206 -332h206v-101h-365v90zM366 741l-88 -150h-105l70 150h123z" />
<glyph unicode="&#x17b;" horiz-adv-x="547" d="M47 90l290 478h-290v112h453v-90l-290 -478h290v-112h-453v90zM206 828q0 65 75 65q73 0 73 -65t-73 -65q-75 0 -75 65z" />
<glyph unicode="&#x17c;" horiz-adv-x="462" d="M49 90l207 332h-207v101h365v-90l-206 -332h206v-101h-365v90zM166 671q0 65 75 65q73 0 73 -65t-73 -65q-75 0 -75 65z" />
<glyph unicode="&#x17d;" horiz-adv-x="547" d="M47 90l290 478h-290v112h453v-90l-290 -478h290v-112h-453v90zM222 898l55 -86l54 86h94l-87 -150h-123l-87 150h94z" />
<glyph unicode="&#x17e;" horiz-adv-x="462" d="M49 90l207 332h-207v101h365v-90l-206 -332h206v-101h-365v90zM179 741l55 -86l54 86h94l-87 -150h-123l-87 150h94z" />
<glyph unicode="&#x192;" horiz-adv-x="445" d="M397 307h-111v-332q0 -82 -35.5 -127.5t-106.5 -45.5q-27 0 -60.5 10.5t-51.5 22.5l18 109q28 -28 62 -28q48 0 48 55v336h-106v79h106v162q0 81 35.5 126.5t105.5 45.5q27 0 60.5 -10.5t52.5 -22.5l-18 -109q-28 28 -63 28q-47 0 -47 -53v-167h111v-79z" />
<glyph unicode="&#x1fa;" horiz-adv-x="626" d="M12 0l224 667q-20 22 -20 57q0 39 26.5 61t71.5 22t71 -22t26 -61q0 -33 -20 -55l219 -669h-127l-43 141h-257l-44 -141h-127zM314 552l-98 -316h193zM408 907l-58 -81h-77l45 81h90zM270 724q0 -34 44 -34t44 34q0 32 -44 32t-44 -32z" />
<glyph unicode="&#x1fb;" horiz-adv-x="519" d="M452 0h-124v38q-55 -48 -133 -48q-77 0 -118 41.5t-41 114.5q0 89 64 136t169 47q29 0 59 -5v10q0 89 -96 89q-67 0 -132 -30l-23 103q87 36 174 36q96 0 148.5 -53t52.5 -148v-331zM163 654q0 39 26.5 61.5t71.5 22.5t71.5 -22.5t26.5 -61.5t-26.5 -61t-71.5 -22 t-71.5 22t-26.5 61zM165 160q0 -33 19.5 -51t51.5 -18q60 0 92 38v105q-23 5 -51 5q-50 0 -81 -20.5t-31 -58.5zM355 838l-58 -82h-77l45 82h90zM217 654q0 -33 44 -33t44 33t-44 33t-44 -33z" />
<glyph unicode="&#x1fc;" horiz-adv-x="909" d="M403 0v141h-210l-65 -141h-133l330 680h537v-113h-339v-166h277v-103h-277v-186h339v-112h-459zM240 236h163v333zM716 898l-88 -150h-105l70 150h123z" />
<glyph unicode="&#x1fd;" horiz-adv-x="799" d="M739 226h-295q5 -142 127 -142q71 0 132 55l43 -81q-77 -72 -185 -72q-123 0 -171 95q-80 -91 -186 -91q-77 0 -122.5 40.5t-45.5 119.5q0 85 65.5 131.5t165.5 46.5q34 0 62 -5q1 56 -22.5 78t-74.5 22q-62 0 -132 -29l-22 103q87 35 185 35q101 0 144 -79q50 84 157 84 q99 0 144 -57.5t45 -149.5q0 -62 -14 -104zM563 443q-54 0 -81.5 -36.5t-27.5 -92.5h194q3 15 3 32q0 41 -24 69t-64 28zM165 158q0 -33 20.5 -50t50.5 -17q61 0 93 42v102q-22 4 -45 4q-49 0 -84 -18t-35 -63zM545 741l-88 -150h-105l70 150h123z" />
<glyph unicode="&#x1fe;" horiz-adv-x="686" d="M478 898l-88 -150h-105l70 150h123zM46 339q0 156 81 253.5t215 97.5q95 0 166 -51l28 41h89v-9l-60 -87q76 -95 76 -245q0 -155 -82 -252t-217 -97q-87 0 -155 44l-23 -34h-91v10l53 77q-80 97 -80 252zM172 339q0 -89 29 -144l238 344q-40 30 -97 30q-78 0 -124 -58 t-46 -172zM515 339q0 80 -25 135l-234 -340q34 -23 86 -23q79 0 126 58t47 170z" />
<glyph unicode="&#x1ff;" horiz-adv-x="568" d="M420 741l-88 -150h-105l70 150h123zM45 260q0 129 65 203t173 74q81 0 137 -41l19 27h63v-10l-39 -56q60 -74 60 -197q0 -128 -65 -201t-175 -73q-73 0 -127 34l-14 -20h-63v10l33 47q-67 73 -67 203zM169 260q0 -58 18 -96l163 233q-28 23 -67 23q-53 0 -83.5 -41 t-30.5 -119zM398 260q0 49 -13 86l-160 -228q23 -16 58 -16q54 0 84.5 40.5t30.5 117.5z" />
<glyph unicode="&#x218;" horiz-adv-x="538" d="M40 44l29 121q35 -24 85 -41t96 -17q49 0 82.5 23t33.5 65q0 61 -78 84l-95 29q-145 43 -145 182q0 82 61 140.5t170 58.5q117 0 204 -49l-36 -112q-74 45 -163 45q-53 0 -81.5 -21.5t-28.5 -57.5q0 -30 17 -47t53 -29l94 -29q82 -26 120.5 -72t38.5 -115 q0 -92 -67.5 -152t-175.5 -60q-59 0 -119.5 16.5t-94.5 37.5zM224 -251l20 65q-48 10 -48 60q0 31 17.5 48t45.5 17q76 0 76 -75q0 -62 -51 -138z" />
<glyph unicode="&#x219;" horiz-adv-x="454" d="M402 498l-30 -108q-72 34 -130 34q-65 0 -65 -49q0 -17 13.5 -28.5t44.5 -21.5l53 -18q66 -21 94.5 -57.5t28.5 -90.5q0 -70 -54.5 -119.5t-141.5 -49.5q-98 0 -172 39l25 111q76 -44 141 -44q35 0 55 14t20 39q0 23 -13.5 36t-45.5 23l-53 18q-124 39 -124 145 q0 70 49.5 115.5t137.5 45.5q42 0 90.5 -10.5t76.5 -23.5zM189 -251l20 65q-48 10 -48 60q0 31 17.5 48t45.5 17q76 0 76 -75q0 -62 -51 -138z" />
<glyph unicode="&#x21a;" horiz-adv-x="536" d="M515 567h-180v-567h-128v567h-185v113h493v-113zM230 -251l20 65q-48 10 -48 60q0 31 17.5 48t45.5 17q76 0 76 -75q0 -62 -51 -138z" />
<glyph unicode="&#x21b;" horiz-adv-x="437" d="M233 423v-251q0 -71 60 -71q46 0 90 33l31 -101q-74 -43 -152 -43q-71 0 -112.5 41t-41.5 125v267h-78v100h86l14 133h103v-133h160v-100h-160zM203 -251l20 65q-48 10 -48 60q0 31 17.5 48t45.5 17q76 0 76 -75q0 -62 -51 -138z" />
<glyph unicode="&#x237;" horiz-adv-x="270" d="M78 -197l-74 75q68 51 68 146v499h125v-489q0 -157 -119 -231z" />
<glyph unicode="&#x2c6;" horiz-adv-x="510" d="M309 591l-54 87l-55 -87h-94l87 150h123l87 -150h-94z" />
<glyph unicode="&#x2c7;" horiz-adv-x="510" d="M200 741l55 -86l54 86h94l-87 -150h-123l-87 150h94z" />
<glyph unicode="&#x2d8;" horiz-adv-x="510" d="M128 675l32 51q31 -47 95 -47q31 0 56.5 13.5t38.5 33.5l31 -51q-43 -81 -125 -81q-83 0 -128 81z" />
<glyph unicode="&#x2d9;" horiz-adv-x="510" d="M181 671q0 65 75 65q73 0 73 -65t-73 -65q-75 0 -75 65z" />
<glyph unicode="&#x2da;" horiz-adv-x="510" d="M157 630q0 40 28.5 69t69.5 29t69.5 -29t28.5 -69t-28.5 -69t-69.5 -29t-69.5 29t-28.5 69zM210 630q0 -19 13 -32t32 -13q18 0 31 13t13 32q0 18 -13 31t-31 13q-19 0 -32 -13t-13 -31z" />
<glyph unicode="&#x2db;" horiz-adv-x="510" d="M244 9l62 -9q-32 -1 -54.5 -20t-22.5 -50q0 -25 14 -39t35 -14q24 0 45 14l12 -57q-32 -17 -76 -17q-39 0 -64 26t-25 70q0 38 23 64t51 32z" />
<glyph unicode="&#x2dc;" horiz-adv-x="510" d="M130 604l-37 51q14 34 40.5 58t56.5 24q33 0 72 -30.5t58 -30.5q38 0 58 45l38 -50q-37 -82 -97 -82q-31 0 -71.5 30t-57.5 30q-37 0 -60 -45z" />
<glyph unicode="&#x2dd;" horiz-adv-x="510" d="M262 741l-89 -150h-104l69 150h124zM440 741l-88 -150h-105l70 150h123z" />
<glyph unicode="&#x394;" horiz-adv-x="625" d="M13 0l228 680h148l222 -680h-598zM315 553l-142 -457h279z" />
<glyph unicode="&#x3a9;" horiz-adv-x="697" d="M393 0v103q58 28 94.5 94.5t36.5 149.5q0 103 -47.5 163t-128.5 60q-80 0 -127 -60t-47 -163q0 -85 35 -149.5t94 -94.5v-103h-236v100h97q-52 34 -82.5 107t-30.5 163q0 141 83 230.5t214 89.5q133 0 215.5 -89t82.5 -231q0 -88 -30.5 -161t-81.5 -109h95v-100h-236z " />
<glyph unicode="&#x3bc;" horiz-adv-x="575" d="M198 523v-263q0 -80 19 -116.5t67 -36.5q61 0 93 67v349h126v-523h-126v40q-49 -50 -140 -50q-15 0 -39 4v-182h-126v711h126z" />
<glyph unicode="&#x3c0;" horiz-adv-x="645" d="M29 523h576v-100h-95v-279q0 -46 30 -46q23 0 42 17l7 -103q-6 -6 -37 -14t-64 -8q-105 0 -105 130v303h-134v-423h-126v423h-94v100z" />
<glyph unicode="&#x1e80;" horiz-adv-x="946" d="M568 0l-94 304l-101 -304h-137l-221 680h135l166 -536l103 311l-70 225h137l149 -516l161 516h138l-228 -680h-138zM431 748l-89 150h124l69 -150h-104z" />
<glyph unicode="&#x1e81;" horiz-adv-x="870" d="M711 523h136l-158 -523h-159l-94 359l-102 -359h-158l-149 523h136l97 -404l100 404h154l91 -404zM428 591l-89 150h124l69 -150h-104z" />
<glyph unicode="&#x1e82;" horiz-adv-x="946" d="M568 0l-94 304l-101 -304h-137l-221 680h135l166 -536l103 311l-70 225h137l149 -516l161 516h138l-228 -680h-138zM606 898l-88 -150h-105l70 150h123z" />
<glyph unicode="&#x1e83;" horiz-adv-x="870" d="M711 523h136l-158 -523h-159l-94 359l-102 -359h-158l-149 523h136l97 -404l100 404h154l91 -404zM577 741l-88 -150h-105l70 150h123z" />
<glyph unicode="&#x1e84;" horiz-adv-x="946" d="M568 0l-94 304l-101 -304h-137l-221 680h135l166 -536l103 311l-70 225h137l149 -516l161 516h138l-228 -680h-138zM295 826q0 62 69 62q71 0 71 -62t-71 -62q-69 0 -69 62zM512 826q0 62 71 62q68 0 68 -62t-68 -62q-71 0 -71 62z" />
<glyph unicode="&#x1e85;" horiz-adv-x="870" d="M711 523h136l-158 -523h-159l-94 359l-102 -359h-158l-149 523h136l97 -404l100 404h154l91 -404zM257 669q0 62 69 62q71 0 71 -62t-71 -62q-69 0 -69 62zM474 669q0 62 71 62q68 0 68 -62t-68 -62q-71 0 -71 62z" />
<glyph unicode="&#x1ef2;" horiz-adv-x="596" d="M235 0v272l-224 399v9h140l148 -290l147 290h140v-9l-225 -398v-273h-126zM251 748l-89 150h124l69 -150h-104z" />
<glyph unicode="&#x1ef3;" horiz-adv-x="536" d="M33 -169l19 96q38 -20 74 -20q31 0 49 18t31 58l8 29l-201 511h139l118 -383l113 382q21 0 63.5 0.5t63.5 0.5l-195 -565q-27 -80 -67.5 -118t-112.5 -38q-56 0 -102 29zM222 591l-89 150h124l69 -150h-104z" />
<glyph unicode="&#x2013;" horiz-adv-x="550" d="M62 353h426v-101h-426v101z" />
<glyph unicode="&#x2014;" horiz-adv-x="762" d="M62 353h638v-101h-638v101z" />
<glyph unicode="&#x2018;" horiz-adv-x="250" d="M187 660l-36 -130q49 -13 49 -76q0 -39 -19.5 -60.5t-56.5 -21.5q-36 0 -56 22t-20 60q0 50 22.5 121.5t46.5 114.5z" />
<glyph unicode="&#x2019;" horiz-adv-x="248" d="M64 399l37 132q-49 12 -49 74q0 40 19.5 61.5t55.5 21.5t56.5 -22.5t20.5 -60.5q0 -50 -22.5 -121t-47.5 -114z" />
<glyph unicode="&#x201a;" horiz-adv-x="257" d="M64 -143l37 132q-49 12 -49 74q0 40 19.5 61.5t55.5 21.5t56.5 -22.5t20.5 -60.5q0 -50 -22.5 -121t-47.5 -114z" />
<glyph unicode="&#x201c;" horiz-adv-x="421" d="M360 665l-34 -124q45 -11 45 -66q0 -35 -17.5 -54.5t-48.5 -19.5q-32 0 -50 20t-18 54q0 45 20 110t42 105zM172 665l-34 -124q44 -10 44 -66q0 -74 -66 -74q-32 0 -50 20t-18 54q0 45 20.5 110.5t42.5 104.5z" />
<glyph unicode="&#x201d;" horiz-adv-x="419" d="M62 426l33 122q-44 12 -44 68q0 35 17.5 54t49.5 19q31 0 49 -20t18 -53q0 -46 -20 -112.5t-42 -103.5zM251 426l33 122q-45 12 -45 68q0 34 17.5 53.5t48.5 19.5q32 0 50.5 -20t18.5 -53q0 -46 -20.5 -112t-41.5 -104z" />
<glyph unicode="&#x201e;" horiz-adv-x="429" d="M65 -147l33 124q-44 9 -44 66q0 75 67 75q31 0 49 -20.5t18 -54.5q0 -46 -20 -111t-42 -104zM253 -147l34 124q-45 9 -45 66q0 35 17.5 55t48.5 20q32 0 50 -20.5t18 -54.5q0 -46 -20 -111t-42 -104z" />
<glyph unicode="&#x2020;" horiz-adv-x="514" d="M485 353h-178v-541h-99v541h-180v101h180v256h99v-256h178v-101z" />
<glyph unicode="&#x2021;" horiz-adv-x="547" d="M502 53h-179v-241h-99v241h-179v101h179v199h-179v101h179v256h99v-256h179v-101h-179v-199h179v-101z" />
<glyph unicode="&#x2022;" horiz-adv-x="373" d="M79 302q0 56 28 87t79 31q50 0 78.5 -31t28.5 -87q0 -57 -28 -87.5t-79 -30.5t-79 30.5t-28 87.5z" />
<glyph unicode="&#x2026;" horiz-adv-x="697" d="M53 59q0 36 18.5 55.5t52.5 19.5t53 -19.5t19 -55.5t-19 -55t-53 -19t-52.5 19t-18.5 55zM278 59q0 75 71 75q33 0 52 -19.5t19 -55.5t-19 -55t-52 -19q-71 0 -71 74zM503 59q0 36 18.5 55.5t52.5 19.5q33 0 51.5 -19.5t18.5 -55.5t-18.5 -55t-51.5 -19q-34 0 -52.5 19 t-18.5 55z" />
<glyph unicode="&#x2030;" horiz-adv-x="1119" d="M769 168q0 86 44 134t115 48t115 -48t44 -134q0 -84 -44 -131t-115 -47q-72 0 -115.5 47t-43.5 131zM862 168q0 -41 18 -62.5t48 -21.5t48 21.5t18 62.5q0 43 -18 65.5t-48 22.5t-48 -22.5t-18 -65.5zM188 10l296 670h107v-9l-295 -671h-108v10zM33 509q0 85 43.5 133 t114.5 48t115 -48.5t44 -132.5q0 -85 -44 -132.5t-115 -47.5t-114.5 47.5t-43.5 132.5zM125 509q0 -42 18 -64t48 -22q31 0 48.5 22t17.5 64t-17.5 64t-48.5 22q-30 0 -48 -22t-18 -64zM429 169q0 85 43.5 133.5t114.5 48.5t115 -48.5t44 -133.5q0 -84 -44 -131.5 t-115 -47.5t-114.5 47.5t-43.5 131.5zM521 169q0 -42 18 -63.5t48 -21.5q66 0 66 85q0 87 -66 87q-30 0 -48 -22t-18 -65z" />
<glyph unicode="&#x2039;" horiz-adv-x="281" d="M41 289v25l138 204h9l46 -26l-88 -190l88 -190l-46 -26h-9z" />
<glyph unicode="&#x203a;" horiz-adv-x="281" d="M240 314v-25l-138 -203h-9l-46 25l88 191l-88 189l46 27h9z" />
<glyph unicode="&#x2044;" horiz-adv-x="108" d="M-139 10l314 670h71v-9l-313 -671h-72v10z" />
<glyph unicode="&#x2070;" horiz-adv-x="325" d="M34 617q0 80 33 126.5t95 46.5q63 0 96 -46t33 -127t-33 -127t-96 -46q-62 0 -95 46.5t-33 126.5zM102 617q0 -107 60 -107q61 0 61 107t-61 107q-60 0 -60 -107z" />
<glyph unicode="&#x2074;" horiz-adv-x="318" d="M293 511h-47v-62h-70v62h-155v48l132 225h93v-219h47v-54zM91 565h85v147z" />
<glyph unicode="&#x2075;" horiz-adv-x="288" d="M46 601l-3 3l14 180h188v-62h-130l-5 -67h24q121 0 121 -95q0 -58 -34 -87t-93 -29q-54 0 -101 22l18 60q39 -21 79 -21q60 0 60 53q0 43 -55 43h-83z" />
<glyph unicode="&#x2076;" horiz-adv-x="312" d="M175 729q-66 0 -73 -92q31 33 74 33q52 0 79 -27.5t27 -78.5q0 -54 -32 -87t-83 -33q-64 0 -99 47t-35 127q0 78 35.5 125t99.5 47q58 0 102 -26l-19 -59q-36 24 -76 24zM165 616q-32 0 -61 -31q9 -75 63 -75q21 0 33.5 15.5t12.5 38.5q0 52 -48 52z" />
<glyph unicode="&#x2077;" horiz-adv-x="261" d="M53 456l112 266h-142v62h219v-49l-113 -286h-76v7z" />
<glyph unicode="&#x2078;" horiz-adv-x="318" d="M159 444q-61 0 -93.5 26t-32.5 71q0 69 63 84q-24 5 -38.5 25t-14.5 46q0 45 29.5 69.5t86.5 24.5q115 0 115 -94q0 -25 -14.5 -45.5t-37.5 -25.5q62 -15 62 -84q0 -45 -32.5 -71t-92.5 -26zM159 598q-56 0 -56 -46q0 -22 15.5 -36t40.5 -14t40 14t15 36q0 21 -14 33.5 t-41 12.5zM159 732q-47 0 -47 -42q0 -18 11.5 -30.5t35.5 -12.5q23 0 34.5 12.5t11.5 30.5q0 42 -46 42z" />
<glyph unicode="&#x2079;" horiz-adv-x="313" d="M137 506q68 0 73 92q-30 -34 -74 -34q-51 0 -78.5 27.5t-27.5 77.5q0 54 33 87.5t84 33.5q63 0 98 -47t35 -126t-35 -126t-99 -47q-60 0 -102 26l19 59q35 -23 74 -23zM147 618q34 0 62 30q-9 76 -62 76q-22 0 -35 -15.5t-13 -39.5q0 -51 48 -51z" />
<glyph unicode="&#x2080;" horiz-adv-x="323" d="M33 67q0 81 33 127.5t95 46.5q63 0 96 -46.5t33 -127.5q0 -80 -33 -126t-96 -46q-62 0 -95 46t-33 126zM101 67q0 -105 60 -105q61 0 61 105q0 108 -61 108q-60 0 -60 -108z" />
<glyph unicode="&#x2081;" horiz-adv-x="241" d="M13 156l126 79h52v-335h-71v253l-79 -51z" />
<glyph unicode="&#x2082;" horiz-adv-x="299" d="M40 -100v54l109 97q39 35 39 74q0 21 -11.5 35.5t-33.5 14.5q-49 0 -49 -67l-64 12q2 56 32.5 88.5t84.5 32.5t83 -31t29 -80q0 -64 -60 -115l-61 -52h128v-63h-226z" />
<glyph unicode="&#x2083;" horiz-adv-x="290" d="M67 102h65q22 0 33 10.5t11 27.5q0 39 -50 39q-43 0 -80 -19l-15 60q45 21 102 21q55 0 84.5 -24.5t29.5 -69.5q0 -25 -13 -44.5t-36 -27.5q59 -14 59 -83q0 -45 -32 -71t-92 -26q-50 0 -103 20l18 60q38 -19 80 -19q26 0 41.5 12.5t15.5 34.5q0 38 -53 38h-65v61z" />
<glyph unicode="&#x2084;" horiz-adv-x="317" d="M293 -38h-47v-62h-70v62h-155v47l132 226h93v-219h47v-54zM91 16h85v147z" />
<glyph unicode="&#x2085;" horiz-adv-x="287" d="M46 52l-3 3l13 180h188v-62h-129l-5 -67h24q121 0 121 -96q0 -57 -34 -86t-93 -29q-54 0 -101 22l18 59q40 -20 78 -20q60 0 60 52q0 44 -54 44h-83z" />
<glyph unicode="&#x2086;" horiz-adv-x="312" d="M175 179q-66 0 -73 -92q32 34 74 34q51 0 78.5 -27.5t27.5 -78.5q0 -54 -32 -87t-83 -33q-64 0 -99 46.5t-35 126.5q0 79 35.5 126t99.5 47q53 0 102 -26l-19 -59q-35 23 -76 23zM165 67q-31 0 -62 -31q10 -75 64 -75q21 0 33.5 15.5t12.5 38.5q0 52 -48 52z" />
<glyph unicode="&#x2087;" horiz-adv-x="261" d="M53 -94l112 267h-142v62h219v-50l-113 -285h-76v6z" />
<glyph unicode="&#x2088;" horiz-adv-x="318" d="M159 -105q-61 0 -93.5 26t-32.5 71q0 69 63 83q-24 6 -38.5 26.5t-14.5 45.5q0 45 29.5 69.5t86.5 24.5q115 0 115 -94q0 -25 -14.5 -45.5t-37.5 -26.5q62 -14 62 -83q0 -45 -32.5 -71t-92.5 -26zM159 49q-28 0 -42 -13t-14 -33q0 -22 15.5 -36t40.5 -14t40 14t15 36 q0 20 -14 33t-41 13zM159 183q-22 0 -34.5 -11.5t-12.5 -30.5q0 -18 11.5 -30.5t35.5 -12.5q23 0 34.5 12.5t11.5 30.5q0 20 -12 31t-34 11z" />
<glyph unicode="&#x2089;" horiz-adv-x="312" d="M137 -44q67 0 72 92q-31 -33 -73 -33q-52 0 -79 27.5t-27 77.5q0 54 32.5 87.5t83.5 33.5q63 0 98 -47t35 -127q0 -79 -35 -125.5t-99 -46.5q-58 0 -102 26l19 59q36 -24 75 -24zM146 69q34 0 62 30q-9 76 -62 76q-21 0 -34 -16t-13 -39q0 -25 13 -38t34 -13z" />
<glyph unicode="&#x20ac;" horiz-adv-x="543" d="M390 359h-175v-16q0 -25 1 -37h158l-25 -77h-123q27 -122 119 -122q58 0 107 40l46 -101q-76 -56 -169 -56q-90 0 -151.5 62.5t-82.5 176.5h-48v77h40q-1 12 -1 37v16h-39v78h45q18 123 80.5 188t158.5 65q105 0 173 -66l-43 -101q-46 50 -115 50q-99 0 -124 -136h196z " />
<glyph unicode="&#x2113;" horiz-adv-x="408" d="M59 124l-30 52l74 51v263q0 99 41.5 149t114.5 50q121 0 121 -138q0 -103 -48 -193.5t-118 -150.5v-45q0 -44 15.5 -61t48.5 -17q29 0 66 21l-5 -98q-41 -17 -104 -17q-132 0 -132 133v31zM214 506v-220q102 100 102 268q0 68 -47 68q-55 0 -55 -116z" />
<glyph unicode="&#x2117;" horiz-adv-x="792" d="M46 339q0 151 100 251t249 100q151 0 251 -100t100 -251q0 -149 -100 -249t-251 -100q-149 0 -249 100t-100 249zM118 339q0 -120 78.5 -200t198.5 -80t199 80t79 200q0 121 -79 201t-199 80t-198.5 -80t-78.5 -201zM283 169v340h166q53 0 88.5 -32t35.5 -93 q0 -56 -36 -89.5t-88 -33.5h-71v-92h-95zM436 431h-58v-92h58q19 0 31.5 12.5t12.5 33.5t-12.5 33.5t-31.5 12.5z" />
<glyph unicode="&#x2122;" horiz-adv-x="720" d="M580 357v183l-76 -105h-13l-75 105v-183h-68v306h60l90 -128l90 128h59v-306h-67zM286 593h-78v-236h-66v236h-78v70h222v-70z" />
<glyph unicode="&#x2126;" horiz-adv-x="700" d="M394 0v103q58 28 94.5 94.5t36.5 149.5q0 103 -47.5 163t-128.5 60q-80 0 -127 -60t-47 -163q0 -85 35 -149.5t94 -94.5v-103h-236v100h97q-52 34 -82.5 107t-30.5 163q0 141 83 230.5t214 89.5q133 0 215.5 -89t82.5 -231q0 -88 -30.5 -161t-81.5 -109h95v-100h-236z " />
<glyph unicode="&#x212e;" horiz-adv-x="648" d="M330 601q71 0 126 -25.5t87.5 -69.5t49 -98t16.5 -114v-26h-431v-169q58 -58 152 -58q130 0 184 104h66q-30 -73 -93 -115t-157 -42q-93 0 -157.5 45t-92.5 112.5t-28 148.5q0 82 28 149.5t92.5 112.5t157.5 45zM330 548q-96 0 -152 -58v-170h305v170q-56 58 -153 58z " />
<glyph unicode="&#x2153;" horiz-adv-x="723" d="M145 10l314 670h71v-9l-313 -671h-72v10zM26 605l127 79h50v-335h-69v254l-80 -51zM494 199h65q22 0 33 10.5t11 27.5q0 39 -50 39q-43 0 -80 -19l-15 60q45 21 102 21q55 0 84.5 -24.5t29.5 -69.5q0 -25 -13 -44.5t-36 -27.5q59 -14 59 -83q0 -45 -32 -71t-92 -26 q-50 0 -103 20l18 60q38 -19 80 -19q26 0 41.5 12.5t15.5 34.5q0 38 -53 38h-65v61z" />
<glyph unicode="&#x2154;" horiz-adv-x="773" d="M199 10l314 670h71v-9l-313 -671h-72v10zM549 199h65q22 0 33 10.5t11 27.5q0 39 -50 39q-43 0 -80 -19l-15 60q45 21 102 21q55 0 84.5 -24.5t29.5 -69.5q0 -25 -13 -44.5t-36 -27.5q59 -14 59 -83q0 -45 -32 -71t-92 -26q-50 0 -103 20l18 60q38 -19 80 -19 q26 0 41.5 12.5t15.5 34.5q0 38 -53 38h-65v61zM47 349v54l109 98q39 33 39 73q0 22 -11.5 36t-33.5 14q-49 0 -49 -67l-64 12q2 56 32.5 88.5t84.5 32.5t82.5 -30.5t28.5 -79.5q0 -66 -59 -116l-61 -52h128v-63h-226z" />
<glyph unicode="&#x215b;" horiz-adv-x="721" d="M145 10l314 670h71v-9l-313 -671h-72v10zM557 -5q-61 0 -93.5 26t-32.5 71q0 69 63 83q-24 6 -38.5 26.5t-14.5 45.5q0 45 29.5 69.5t86.5 24.5q115 0 115 -94q0 -25 -14.5 -45.5t-37.5 -26.5q62 -14 62 -83q0 -45 -32.5 -71t-92.5 -26zM557 149q-28 0 -42 -13t-14 -33 q0 -22 15.5 -36t40.5 -14t40 14t15 36q0 20 -14 33t-41 13zM557 283q-22 0 -34.5 -11.5t-12.5 -30.5q0 -18 11.5 -30.5t35.5 -12.5q23 0 34.5 12.5t11.5 30.5q0 20 -12 31t-34 11zM26 605l127 79h50v-335h-69v254l-80 -51z" />
<glyph unicode="&#x215c;" horiz-adv-x="758" d="M187 10l314 670h71v-9l-313 -671h-72v10zM599 -5q-61 0 -93.5 26t-32.5 71q0 69 63 83q-24 6 -38.5 26.5t-14.5 45.5q0 45 29.5 69.5t86.5 24.5q115 0 115 -94q0 -25 -14.5 -45.5t-37.5 -26.5q62 -14 62 -83q0 -45 -32.5 -71t-92.5 -26zM599 149q-28 0 -42 -13t-14 -33 q0 -22 15.5 -36t40.5 -14t40 14t15 36q0 20 -14 33t-41 13zM599 283q-22 0 -34.5 -11.5t-12.5 -30.5q0 -18 11.5 -30.5t35.5 -12.5q23 0 34.5 12.5t11.5 30.5q0 20 -12 31t-34 11zM74 551h65q43 0 43 38q0 40 -49 40q-41 0 -81 -20l-14 61q42 20 102 20q55 0 84.5 -24.5 t29.5 -69.5q0 -54 -49 -71q59 -16 59 -84q0 -44 -32 -70.5t-92 -26.5q-50 0 -103 20l18 60q36 -18 80 -18q26 0 41 12t15 34q0 38 -52 38h-65v61z" />
<glyph unicode="&#x215d;" horiz-adv-x="755" d="M184 10l314 670h71v-9l-313 -671h-72v10zM596 -5q-61 0 -93.5 26t-32.5 71q0 69 63 83q-24 6 -38.5 26.5t-14.5 45.5q0 45 29.5 69.5t86.5 24.5q115 0 115 -94q0 -25 -14.5 -45.5t-37.5 -26.5q62 -14 62 -83q0 -45 -32.5 -71t-92.5 -26zM596 149q-28 0 -42 -13t-14 -33 q0 -22 15.5 -36t40.5 -14t40 14t15 36q0 20 -14 33t-41 13zM596 283q-22 0 -34.5 -11.5t-12.5 -30.5q0 -18 11.5 -30.5t35.5 -12.5q23 0 34.5 12.5t11.5 30.5q0 20 -12 31t-34 11zM52 501l-3 3l14 180h188v-62h-130l-5 -67h24q121 0 121 -95q0 -58 -34 -87t-93 -29 q-54 0 -101 22l18 60q39 -21 79 -21q60 0 60 53q0 43 -55 43h-83z" />
<glyph unicode="&#x215e;" horiz-adv-x="713" d="M141 10l314 670h71v-9l-313 -671h-72v10zM553 -5q-61 0 -93.5 26t-32.5 71q0 69 63 83q-24 6 -38.5 26.5t-14.5 45.5q0 45 29.5 69.5t86.5 24.5q115 0 115 -94q0 -25 -14.5 -45.5t-37.5 -26.5q62 -14 62 -83q0 -45 -32.5 -71t-92.5 -26zM553 149q-28 0 -42 -13t-14 -33 q0 -22 15.5 -36t40.5 -14t40 14t15 36q0 20 -14 33t-41 13zM553 283q-22 0 -34.5 -11.5t-12.5 -30.5q0 -18 11.5 -30.5t35.5 -12.5q23 0 34.5 12.5t11.5 30.5q0 20 -12 31t-34 11zM61 356l112 266h-142v62h219v-49l-113 -286h-76v7z" />
<glyph unicode="&#x2190;" horiz-adv-x="719" d="M230 344h423v-93h-422l153 -148l-61 -64l-257 260l255 257l63 -67z" />
<glyph unicode="&#x2191;" horiz-adv-x="719" d="M406 425v-421h-94v420l-147 -153l-64 62l259 257l257 -255l-67 -64z" />
<glyph unicode="&#x2192;" horiz-adv-x="719" d="M488 250h-422v93h421l-154 148l63 65l257 -261l-255 -256l-65 66z" />
<glyph unicode="&#x2193;" horiz-adv-x="719" d="M311 167v423h94v-421l147 153l65 -61l-261 -257l-255 255l66 63z" />
<glyph unicode="&#x2196;" horiz-adv-x="719" d="M301 422l298 -299l-65 -66l-298 298l5 -213l-90 -2l2 366l361 1l-1 -92z" />
<glyph unicode="&#x2197;" horiz-adv-x="719" d="M483 355l-298 -299l-67 66l298 298l-213 -4q0 14 -0.5 44.5t-0.5 44.5l365 -2l1 -362l-91 2z" />
<glyph unicode="&#x2198;" horiz-adv-x="719" d="M418 173l-299 298l66 66l297 -297l-4 212l89 2l-2 -365l-362 -1l2 92z" />
<glyph unicode="&#x2199;" horiz-adv-x="719" d="M234 239l299 297l66 -64l-298 -298l212 4l2 -90l-365 2l-1 362l92 -2z" />
<glyph unicode="&#x2202;" horiz-adv-x="527" d="M211 453q76 0 137 -65q-11 94 -61 159.5t-112 91.5l51 81q103 -25 177.5 -128.5t74.5 -250.5q0 -167 -62 -259t-177 -92q-91 0 -149 66.5t-58 175.5q0 99 47.5 160t131.5 61zM244 107q90 0 104 170q-47 71 -102 71q-41 0 -64.5 -29.5t-23.5 -87.5q0 -55 23.5 -89.5 t62.5 -34.5z" />
<glyph unicode="&#x2206;" horiz-adv-x="650" d="M26 0l228 680h148l222 -680h-598zM328 553l-142 -457h279z" />
<glyph unicode="&#x220f;" horiz-adv-x="625" d="M197 -188h-119v868h469v-868h-120v755h-230v-755z" />
<glyph unicode="&#x2211;" horiz-adv-x="479" d="M50 0v69l153 272l-155 272v67h381v-101h-229l127 -239l-126 -239h228v-101h-379z" />
<glyph unicode="&#x2212;" horiz-adv-x="542" d="M67 353h408v-101h-408v101z" />
<glyph unicode="&#x2215;" horiz-adv-x="388" d="M1 10l314 670h71v-9l-313 -671h-72v10z" />
<glyph unicode="&#x2219;" horiz-adv-x="267" d="M56 296q0 38 20 59t57 21t57.5 -21t20.5 -59q0 -39 -20.5 -59.5t-57.5 -20.5t-57 20.5t-20 59.5z" />
<glyph unicode="&#x221a;" horiz-adv-x="552" d="M187 467l132 -325l147 565l69 -23l-189 -684h-81l-133 327l-78 -46l-43 84z" />
<glyph unicode="&#x221e;" horiz-adv-x="793" d="M145 300q0 -38 21.5 -59t55.5 -21q32 0 73 41l41 39l-41 39q-42 40 -73 40q-34 0 -55.5 -20.5t-21.5 -58.5zM397 241l-44 -41q-38 -36 -70.5 -53t-75.5 -17q-66 0 -111 46.5t-45 123.5q0 78 45 124t111 46q42 0 75 -17t71 -53l44 -40l44 40q39 36 71.5 52.5t73.5 17.5 q66 0 111 -46t45 -124q0 -77 -45 -123.5t-111 -46.5q-42 0 -74.5 17t-71.5 53zM648 300q0 38 -21 58.5t-55 20.5q-31 0 -73 -40l-41 -39l41 -39q41 -41 73 -41q33 0 54.5 21t21.5 59z" />
<glyph unicode="&#x222b;" horiz-adv-x="402" d="M138 -29v577q0 81 36 126.5t106 45.5q27 0 60 -10.5t52 -22.5l-18 -109q-28 28 -63 28q-47 0 -47 -53v-578q0 -82 -35.5 -127.5t-106.5 -45.5q-27 0 -60 10.5t-52 22.5l18 109q28 -28 63 -28q47 0 47 55z" />
<glyph unicode="&#x2248;" horiz-adv-x="549" d="M454 495l30 -78q-38 -64 -110 -64q-34 0 -101 27t-95 27q-58 0 -85 -40l-27 82q35 61 107 61q38 0 106.5 -27t90.5 -27q54 0 84 39zM453 227l30 -79q-38 -64 -109 -64q-35 0 -102.5 27.5t-94.5 27.5q-58 0 -85 -41l-27 82q35 61 107 61q38 0 106.5 -27t90.5 -27 q54 0 84 40z" />
<glyph unicode="&#x2260;" horiz-adv-x="532" d="M137 40l22 72h-98v101h130l56 179h-186v101h217l35 111l74 -27l-27 -84h109v-101h-140l-57 -179h197v-101h-228l-31 -99z" />
<glyph unicode="&#x2264;" horiz-adv-x="548" d="M66 158h408v-101h-408v101zM66 365v99l399 162h9v-93l-292 -117l292 -115v-94h-9z" />
<glyph unicode="&#x2265;" horiz-adv-x="548" d="M74 158h408v-101h-408v101zM482 464v-99l-400 -158h-9v94l293 115l-293 117v93h9z" />
<glyph unicode="&#x25ca;" horiz-adv-x="502" d="M468 332l-178 -332h-79l-177 332l177 348h79zM362 331l-112 236l-111 -236l111 -223z" />
<glyph unicode="&#x25fc;" horiz-adv-x="525" d="M0 525h525v-525h-525v525z" />
<glyph unicode="&#xf6c3;" horiz-adv-x="510" d="M215 -251l20 65q-48 10 -48 60q0 31 17.5 48t45.5 17q76 0 76 -75q0 -62 -51 -138z" />
<glyph unicode="&#xf8ff;" horiz-adv-x="661" d="M74 720h512v-720h-512v720zM290 283h48q0 26 14 47t34 36t40 29.5t34 36t14 48.5q0 51 -36.5 85t-101.5 34q-39 0 -67 -14.5t-41.5 -37t-19 -43.5t-5.5 -41h47q0 40 21 66.5t65 26.5q41 0 64 -21.5t23 -54.5q0 -23 -21 -45t-45.5 -38t-45.5 -46t-21 -68zM279 194v-71h68 v71h-68z" />
<glyph unicode="&#xfb01;" horiz-adv-x="661" d="M34 397v100h80v47q0 176 157 176q64 0 113 -27l-28 -111q-32 25 -64 25q-52 0 -52 -58v-52h130v-100h-130v-397h-126v397h-80zM451 671q0 65 76 65q73 0 73 -65t-73 -65q-76 0 -76 65zM589 0h-126v523h126v-523z" />
<glyph unicode="&#xfb02;" horiz-adv-x="693" d="M34 397v100h80v47q0 176 157 176q64 0 113 -27l-28 -111q-32 25 -64 25q-52 0 -52 -58v-52h130v-100h-130v-397h-126v397h-80zM462 710h126v-561q0 -51 37 -51q22 0 48 16l5 -101q-46 -23 -101 -23q-59 0 -87 29t-28 96v595z" />
<glyph horiz-adv-x="510" d="M293 761l-20 -66q49 -9 49 -60q0 -30 -18 -47.5t-46 -17.5q-75 0 -75 75q0 68 51 138z" />
<glyph d="M33 339q0 166 55 258.5t171 92.5q117 0 172.5 -92.5t55.5 -258.5q0 -165 -55.5 -257t-172.5 -92q-116 0 -171 92t-55 257zM155 339q0 -119 24.5 -175t79.5 -56q57 0 81.5 56t24.5 175q0 120 -24.5 177t-81.5 57q-55 0 -79.5 -57t-24.5 -177z" />
<glyph d="M490 0h-431v112h170v428l-136 -82l-43 102l212 120h93v-568h135v-112z" />
<glyph d="M56 0v96l197 206q80 84 80 166q0 48 -22.5 76.5t-65.5 28.5q-92 0 -94 -136l-112 17q2 109 58.5 172.5t155.5 63.5q102 0 156 -60t54 -156q0 -62 -29.5 -116.5t-90.5 -118.5l-126 -127h259v-112h-420z" />
<glyph d="M110 397h128q41 0 63.5 26.5t22.5 65.5q0 43 -29.5 68t-75.5 25q-41 0 -83.5 -14.5t-64.5 -28.5l-29 108q32 16 84.5 29.5t100.5 13.5q110 0 167.5 -48t57.5 -138q0 -54 -26.5 -95.5t-71.5 -53.5q55 -15 86 -56.5t31 -106.5q0 -96 -62 -149t-182 -53q-91 0 -184 43 l31 105q78 -39 151 -39q52 0 84.5 28.5t32.5 77.5q0 46 -26.5 71.5t-77.5 25.5h-128v95z" />
<glyph d="M483 132h-65v-132h-125v132h-272v84l230 464h167v-448h65v-100zM130 232h163v337z" />
<glyph d="M74 319l-6 6l26 355h360v-112h-253l-11 -154h50q232 0 232 -192q0 -116 -65 -174t-177 -58q-100 0 -192 46l31 106q75 -43 153 -43q54 0 87.5 29.5t33.5 90.5q0 100 -118 100h-151z" />
<glyph d="M293 581q-115 0 -126 -196q58 68 141 68q82 0 129 -59.5t47 -161.5q0 -112 -57.5 -177t-149.5 -65q-115 0 -176.5 92t-61.5 259q0 161 62.5 255t177.5 94q55 0 105.5 -16.5t75.5 -35.5l-34 -104q-60 47 -133 47zM269 348q-51 0 -101 -76q14 -165 104 -165q39 0 63 35.5 t24 89.5q0 59 -24 87.5t-66 28.5z" />
<glyph d="M110 12l229 556h-291v112h431v-90l-231 -590h-138v12z" />
<glyph d="M260 -10q-110 0 -167.5 52t-57.5 144q0 130 114 169q-43 14 -69.5 55.5t-26.5 93.5q0 90 52.5 138t154.5 48q101 0 153.5 -47.5t52.5 -138.5q0 -53 -26 -94t-69 -55q114 -39 114 -169q0 -92 -57.5 -144t-167.5 -52zM261 309q-99 0 -99 -104q0 -55 27 -83t71 -28t71 28 t27 83q0 104 -97 104zM260 588q-39 0 -62.5 -24t-23.5 -72q0 -96 87 -96q42 0 63.5 26.5t21.5 69.5q0 48 -23.5 72t-62.5 24z" />
<glyph d="M226 99q111 0 125 186q-58 -58 -140 -58t-129 59.5t-47 161.5q0 112 57.5 177t149.5 65q114 0 176 -92t62 -259q0 -160 -63 -254.5t-177 -94.5q-55 0 -105.5 16.5t-75.5 35.5l34 104q58 -47 133 -47zM250 331q53 0 101 66q-12 176 -104 176q-39 0 -63 -35.5t-24 -89.5 q0 -59 24 -88t66 -29z" />
<glyph d="M379 359h-175v-16q0 -25 1 -37h158l-25 -77h-123q27 -122 119 -122q58 0 107 40l46 -101q-76 -56 -169 -56q-90 0 -151.5 62.5t-82.5 176.5h-48v77h40q-1 12 -1 37v16h-39v78h45q18 123 80.5 188t158.5 65q105 0 173 -66l-43 -101q-46 50 -115 50q-99 0 -124 -136h196z " />
<glyph d="M416 626l-26 -109q41 -18 78 -54l-57 -96q-27 26 -48 37l-71 -302h3q62 0 116 54l57 -96q-78 -74 -176 -74q-18 0 -27 1l-29 -124l-72 21l28 121q-69 28 -109.5 95t-40.5 162q0 126 70 200.5t180 74.5q17 0 25 -1l26 111zM170 262q0 -94 51 -135l69 294 q-53 -1 -86.5 -42.5t-33.5 -116.5z" />
<glyph d="M394 307h-148q13 -95 8 -152q5 -4 24 -21t34 -26.5t28 -9.5q30 0 40.5 31t8.5 95h106q9 -109 -20.5 -171.5t-102.5 -62.5q-20 0 -42.5 10.5t-37 21.5t-36 30t-28.5 24q-20 -43 -46 -64.5t-68 -21.5q-44 0 -68.5 29.5t-24.5 76.5q0 45 25.5 73.5t64.5 28.5q23 0 39 -10 q0 42 -18 119h-81v79h64q-10 55 -10 107q0 87 46.5 142t136.5 55q52 0 101 -18.5t78 -42.5l-37 -111q-53 55 -119 55q-39 0 -59.5 -30t-20.5 -80q0 -32 5 -77h158v-79zM120 127q-14 0 -22.5 -9.5t-8.5 -25.5q0 -32 22 -32q28 0 34 58q-11 9 -25 9z" />
<glyph d="M434 307h-111v-332q0 -82 -35.5 -127.5t-106.5 -45.5q-27 0 -60.5 10.5t-51.5 22.5l18 109q28 -28 62 -28q48 0 48 55v336h-106v79h106v162q0 81 35.5 126.5t105.5 45.5q27 0 60.5 -10.5t52.5 -22.5l-18 -109q-28 28 -63 28q-47 0 -47 -53v-167h111v-79z" />
<glyph d="M447 122h-126v-122h-127v122h-125v78h125v55h-125v78h99l-142 338v9h130l102 -305l106 305h130v-9l-147 -338h100v-78h-126v-55h126v-78z" />
<glyph d="M219 -129v121q-105 9 -175 52l29 119q66 -48 146 -55v187l-51 16q-133 43 -133 175q0 75 48.5 130t135.5 69v84h75v-81q103 -4 181 -48l-36 -113q-63 40 -145 45v-178l36 -12q79 -27 117 -69.5t38 -109.5q0 -82 -51.5 -139.5t-139.5 -70.5v-122h-75zM353 195q0 50 -59 75 v-156q59 20 59 81zM161 494q0 -53 58 -75v146q-58 -18 -58 -71z" />
<glyph horiz-adv-x="323" d="M33 167q0 81 33 127.5t95 46.5q63 0 96 -46.5t33 -127.5q0 -80 -33 -126t-96 -46q-62 0 -95 46t-33 126zM101 167q0 -105 60 -105q61 0 61 105q0 108 -61 108q-60 0 -60 -108z" />
<glyph horiz-adv-x="241" d="M13 256l126 79h52v-335h-71v253l-79 -51z" />
<glyph horiz-adv-x="299" d="M40 0v54l109 97q39 35 39 74q0 21 -11.5 35.5t-33.5 14.5q-49 0 -49 -67l-64 12q2 56 32.5 88.5t84.5 32.5t83 -31t29 -80q0 -64 -60 -115l-61 -52h128v-63h-226z" />
<glyph horiz-adv-x="290" d="M67 202h65q22 0 33 10.5t11 27.5q0 39 -50 39q-43 0 -80 -19l-15 60q45 21 102 21q55 0 84.5 -24.5t29.5 -69.5q0 -25 -13 -44.5t-36 -27.5q59 -14 59 -83q0 -45 -32 -71t-92 -26q-50 0 -103 20l18 60q38 -19 80 -19q26 0 41.5 12.5t15.5 34.5q0 38 -53 38h-65v61z" />
<glyph horiz-adv-x="317" d="M293 62h-47v-62h-70v62h-155v47l132 226h93v-219h47v-54zM91 116h85v147z" />
<glyph horiz-adv-x="287" d="M46 152l-3 3l13 180h188v-62h-129l-5 -67h24q121 0 121 -96q0 -57 -34 -86t-93 -29q-54 0 -101 22l18 59q40 -20 78 -20q60 0 60 52q0 44 -54 44h-83z" />
<glyph horiz-adv-x="312" d="M175 279q-66 0 -73 -92q32 34 74 34q51 0 78.5 -27.5t27.5 -78.5q0 -54 -32 -87t-83 -33q-64 0 -99 46.5t-35 126.5q0 79 35.5 126t99.5 47q53 0 102 -26l-19 -59q-35 23 -76 23zM165 167q-31 0 -62 -31q10 -75 64 -75q21 0 33.5 15.5t12.5 38.5q0 52 -48 52z" />
<glyph horiz-adv-x="261" d="M53 6l112 267h-142v62h219v-50l-113 -285h-76v6z" />
<glyph horiz-adv-x="318" d="M159 -5q-61 0 -93.5 26t-32.5 71q0 69 63 83q-24 6 -38.5 26.5t-14.5 45.5q0 45 29.5 69.5t86.5 24.5q115 0 115 -94q0 -25 -14.5 -45.5t-37.5 -26.5q62 -14 62 -83q0 -45 -32.5 -71t-92.5 -26zM159 149q-28 0 -42 -13t-14 -33q0 -22 15.5 -36t40.5 -14t40 14t15 36 q0 20 -14 33t-41 13zM159 283q-22 0 -34.5 -11.5t-12.5 -30.5q0 -18 11.5 -30.5t35.5 -12.5q23 0 34.5 12.5t11.5 30.5q0 20 -12 31t-34 11z" />
<glyph horiz-adv-x="312" d="M137 56q67 0 72 92q-31 -33 -73 -33q-52 0 -79 27.5t-27 77.5q0 54 32.5 87.5t83.5 33.5q63 0 98 -47t35 -127q0 -79 -35 -125.5t-99 -46.5q-58 0 -102 26l19 59q36 -24 75 -24zM146 169q34 0 62 30q-9 76 -62 76q-21 0 -34 -16t-13 -39q0 -25 13 -38t34 -13z" />
<glyph horiz-adv-x="323" d="M33 512q0 80 33 126.5t95 46.5q63 0 96 -46t33 -127t-33 -127t-96 -46q-62 0 -95 46.5t-33 126.5zM101 512q0 -107 60 -107q61 0 61 107t-61 107q-60 0 -60 -107z" />
<glyph horiz-adv-x="240" d="M12 601l127 79h50v-335h-69v254l-80 -51z" />
<glyph horiz-adv-x="299" d="M40 344v54l109 98q39 33 39 73q0 22 -11.5 36t-33.5 14q-49 0 -49 -67l-64 12q2 56 32.5 88.5t84.5 32.5t82.5 -30.5t28.5 -79.5q0 -66 -59 -116l-61 -52h128v-63h-226z" />
<glyph horiz-adv-x="290" d="M67 546h65q43 0 43 38q0 40 -49 40q-41 0 -81 -20l-14 61q43 20 102 20q55 0 84.5 -24.5t29.5 -69.5q0 -54 -49 -71q59 -16 59 -84q0 -44 -32 -70.5t-92 -26.5q-50 0 -103 20l18 60q36 -18 80 -18q26 0 41 12t15 34q0 38 -52 38h-65v61z" />
<glyph horiz-adv-x="318" d="M293 407h-47v-62h-70v62h-155v48l132 225h93v-219h47v-54zM91 461h85v147z" />
<glyph horiz-adv-x="288" d="M46 497l-3 3l14 180h188v-62h-130l-5 -67h24q121 0 121 -95q0 -58 -34 -87t-93 -29q-54 0 -101 22l18 60q39 -21 79 -21q60 0 60 53q0 43 -55 43h-83z" />
<glyph horiz-adv-x="312" d="M175 624q-66 0 -73 -92q31 33 74 33q52 0 79 -27.5t27 -78.5q0 -54 -32 -87t-83 -33q-64 0 -99 47t-35 127q0 78 35.5 125t99.5 47q58 0 102 -26l-19 -59q-36 24 -76 24zM165 511q-32 0 -61 -31q9 -75 63 -75q21 0 33.5 15.5t12.5 38.5q0 52 -48 52z" />
<glyph horiz-adv-x="261" d="M53 352l112 266h-142v62h219v-49l-113 -286h-76v7z" />
<glyph horiz-adv-x="318" d="M159 339q-61 0 -93.5 26t-32.5 71q0 69 63 84q-24 5 -38.5 25t-14.5 46q0 45 29.5 69.5t86.5 24.5q115 0 115 -94q0 -25 -14.5 -45.5t-37.5 -25.5q62 -16 62 -84q0 -45 -32.5 -71t-92.5 -26zM159 493q-56 0 -56 -46q0 -22 15.5 -36t40.5 -14t40 14t15 36q0 21 -14 33.5 t-41 12.5zM159 627q-47 0 -47 -42q0 -18 11.5 -30.5t35.5 -12.5q23 0 34.5 12.5t11.5 30.5q0 42 -46 42z" />
<glyph horiz-adv-x="313" d="M137 401q68 0 73 92q-30 -34 -74 -34q-51 0 -78.5 27.5t-27.5 77.5q0 54 33 87.5t84 33.5q63 0 98 -47t35 -126t-35 -126t-99 -47q-60 0 -102 26l19 59q35 -23 74 -23zM147 513q34 0 62 30q-9 76 -62 76q-22 0 -35 -15.5t-13 -39.5q0 -51 48 -51z" />
<glyph horiz-adv-x="281" d="M152 341q0 -132 29.5 -239t68.5 -173l-71 -42q-49 54 -93 175.5t-44 279.5q0 157 43.5 277.5t93.5 176.5l71 -42q-39 -66 -68.5 -172.5t-29.5 -240.5z" />
<glyph horiz-adv-x="281" d="M129 341q0 134 -29.5 240.5t-68.5 172.5l71 42q50 -56 93.5 -176.5t43.5 -277.5q0 -158 -44 -279.5t-93 -175.5l-71 42q39 66 68.5 173t29.5 239z" />
<glyph horiz-adv-x="467" d="M62 393h343v-101h-343v101z" />
<glyph horiz-adv-x="310" d="M274 -108h-203v898h203v-101h-103v-696h103v-101z" />
<glyph horiz-adv-x="310" d="M36 790h203v-898h-203v101h103v696h-103v101z" />
<glyph horiz-adv-x="305" d="M238 -25h23v-90h-44q-137 0 -137 125q0 37 21.5 111.5t21.5 113.5q0 35 -21 50t-69 15v77q47 0 68.5 17.5t21.5 53.5q0 38 -21.5 111.5t-21.5 110.5q0 56 34 88t103 32h44v-90h-23q-59 0 -59 -59q0 -26 21.5 -98.5t21.5 -111.5q0 -77 -72 -93q72 -16 72 -95 q0 -38 -21.5 -110t-21.5 -98q0 -60 59 -60z" />
<glyph horiz-adv-x="241" d="M71 -108v898h99v-898h-99z" />
<glyph horiz-adv-x="305" d="M89 -115h-46v90h26q30 0 44 17t14 43t-22 98t-22 110q0 79 73 95q-73 16 -73 93q0 39 22 111.5t22 98.5t-14 42.5t-44 16.5h-26v90h46q68 0 102 -32t34 -88q0 -37 -21.5 -110.5t-21.5 -111.5q0 -36 21.5 -53.5t68.5 -17.5v-77q-48 0 -69 -15t-21 -50q0 -39 21.5 -113.5 t21.5 -111.5q0 -59 -34 -92t-102 -33z" />
<glyph horiz-adv-x="281" d="M41 329v25l138 204h9l46 -26l-88 -190l88 -190l-46 -26h-9z" />
<glyph horiz-adv-x="281" d="M240 354v-25l-138 -203h-9l-46 25l88 191l-88 189l46 27h9z" />
<glyph horiz-adv-x="482" d="M41 329v25l138 204h9l46 -26l-88 -190l88 -190l-46 -26h-9zM241 329v25l138 204h10l45 -26l-87 -190l88 -190l-46 -26h-10z" />
<glyph horiz-adv-x="482" d="M240 354v-25l-138 -203h-9l-46 25l88 191l-88 189l46 27h9zM440 354v-25l-136 -203h-10l-46 25l88 191l-88 189l46 27h10z" />
<glyph horiz-adv-x="550" d="M62 393h426v-101h-426v101z" />
<glyph horiz-adv-x="762" d="M62 393h638v-101h-638v101z" />
<glyph horiz-adv-x="370" d="M79 342q0 57 27 87.5t78 30.5t79 -31t28 -87q0 -57 -28 -87.5t-79 -30.5t-78 30.5t-27 87.5z" />
<glyph horiz-adv-x="266" d="M56 336q0 38 20 59t57 21t57.5 -21t20.5 -59q0 -39 -20.5 -59.5t-57.5 -20.5t-57 20.5t-20 59.5z" />
<glyph horiz-adv-x="583" d="M511 523v-523h-125v50q-50 -60 -133 -60q-94 0 -150 72t-56 200t56 199t150 71q79 0 133 -57v48h125zM175 260q0 -73 31.5 -115.5t85.5 -42.5q56 0 94 44v229q-39 45 -94 45t-86 -42.5t-31 -117.5z" />
<glyph horiz-adv-x="573" d="M44 292q0 106 54 173t154 67q33 0 66.5 -12t52.5 -34v37h127v-448q0 -131 -65.5 -202t-156.5 -71q-69 0 -109.5 36t-40.5 97q0 47 21 81.5t60 46.5q-73 11 -118 70t-45 159zM173 292q0 -66 32.5 -97.5t82.5 -31.5h83v215q-13 17 -37.5 29.5t-49.5 12.5q-52 0 -81.5 -35 t-29.5 -93zM371 33v24h-41q-48 0 -78 -21.5t-30 -65.5q0 -28 17.5 -44t44.5 -16q37 0 62 34.5t25 88.5z" />
<glyph d="M26 -71q0 60 41.5 101t115.5 48l-154 445h130l110 -386l109 385q21 0 63.5 0.5t63.5 0.5l-165 -519q-36 -113 -78 -157.5t-110 -44.5q-57 0 -91.5 33.5t-34.5 93.5zM148 -90q25 0 38 19.5t28 67.5l5 14q-113 0 -113 -61q0 -18 11.5 -29t30.5 -11z" />
<glyph horiz-adv-x="583" d="M250 591l-89 150h124l69 -150h-104zM511 523v-523h-125v50q-50 -60 -133 -60q-94 0 -150 72t-56 200t56 199t150 71q79 0 133 -57v48h125zM175 260q0 -73 31.5 -115.5t85.5 -42.5q56 0 94 44v229q-39 45 -94 45t-86 -42.5t-31 -117.5z" />
<glyph horiz-adv-x="583" d="M511 523v-523h-125v50q-50 -60 -133 -60q-94 0 -150 72t-56 200t56 199t150 71q79 0 133 -57v48h125zM175 260q0 -73 31.5 -115.5t85.5 -42.5q56 0 94 44v229q-39 45 -94 45t-86 -42.5t-31 -117.5zM438 741l-88 -150h-105l70 150h123z" />
<glyph horiz-adv-x="583" d="M511 523v-523h-125v50q-50 -60 -133 -60q-94 0 -150 72t-56 200t56 199t150 71q79 0 133 -57v48h125zM175 260q0 -73 31.5 -115.5t85.5 -42.5q56 0 94 44v229q-39 45 -94 45t-86 -42.5t-31 -117.5zM356 591l-54 87l-55 -87h-94l87 150h123l87 -150h-94z" />
<glyph horiz-adv-x="583" d="M511 523v-523h-125v50q-50 -60 -133 -60q-94 0 -150 72t-56 200t56 199t150 71q79 0 133 -57v48h125zM175 260q0 -73 31.5 -115.5t85.5 -42.5q56 0 94 44v229q-39 45 -94 45t-86 -42.5t-31 -117.5zM174 604l-37 51q14 34 40.5 58t56.5 24q33 0 72 -30.5t58 -30.5 q38 0 58 45l38 -50q-37 -82 -97 -82q-31 0 -71.5 30t-57.5 30q-37 0 -60 -45z" />
<glyph horiz-adv-x="583" d="M511 523v-523h-125v50q-50 -60 -133 -60q-94 0 -150 72t-56 200t56 199t150 71q79 0 133 -57v48h125zM175 260q0 -73 31.5 -115.5t85.5 -42.5q56 0 94 44v229q-39 45 -94 45t-86 -42.5t-31 -117.5zM132 669q0 62 69 62q71 0 71 -62t-71 -62q-69 0 -69 62zM349 669 q0 62 71 62q68 0 68 -62t-68 -62q-71 0 -71 62z" />
<glyph horiz-adv-x="583" d="M511 523v-523h-125v50q-50 -60 -133 -60q-94 0 -150 72t-56 200t56 199t150 71q79 0 133 -57v48h125zM175 260q0 -73 31.5 -115.5t85.5 -42.5q56 0 94 44v229q-39 45 -94 45t-86 -42.5t-31 -117.5zM413 614h-219v89h219v-89z" />
<glyph horiz-adv-x="583" d="M511 523v-523h-125v50q-50 -60 -133 -60q-94 0 -150 72t-56 200t56 199t150 71q79 0 133 -57v48h125zM175 260q0 -73 31.5 -115.5t85.5 -42.5q56 0 94 44v229q-39 45 -94 45t-86 -42.5t-31 -117.5zM177 675l32 51q31 -47 95 -47q31 0 56.5 13.5t38.5 33.5l31 -51 q-43 -81 -125 -81q-83 0 -128 81z" />
<glyph horiz-adv-x="583" d="M511 523v-523h-125v50q-50 -60 -133 -60q-94 0 -150 72t-56 200t56 199t150 71q79 0 133 -57v48h125zM175 260q0 -73 31.5 -115.5t85.5 -42.5q56 0 94 44v229q-39 45 -94 45t-86 -42.5t-31 -117.5zM205 670q0 40 28.5 69t69.5 29t69.5 -29t28.5 -69t-28.5 -69t-69.5 -29 t-69.5 29t-28.5 69zM258 670q0 -19 13 -32t32 -13q18 0 31 13t13 32q0 18 -13 31t-31 13q-19 0 -32 -13t-13 -31z" />
<glyph horiz-adv-x="583" d="M398 838l-58 -82h-77l45 82h90zM207 654q0 39 26.5 61.5t71.5 22.5t71.5 -22.5t26.5 -61.5t-26.5 -61t-71.5 -22t-71.5 22t-26.5 61zM260 654q0 -33 45 -33q43 0 43 33t-43 33q-45 0 -45 -33zM511 523v-523h-125v50q-50 -60 -133 -60q-94 0 -150 72t-56 200t56 199 t150 71q79 0 133 -57v48h125zM175 260q0 -73 31.5 -115.5t85.5 -42.5q56 0 94 44v229q-39 45 -94 45t-86 -42.5t-31 -117.5z" />
<glyph horiz-adv-x="583" d="M511 523v-523h-22q-32 -1 -54.5 -20t-22.5 -50q0 -25 14 -39t35 -14q24 0 45 14l12 -57q-32 -17 -76 -17q-39 0 -64 26t-25 70q0 58 50 87h-17v50q-50 -60 -133 -60q-94 0 -150 72t-56 200t56 199t150 71q79 0 133 -57v48h125zM175 260q0 -73 31.5 -115.5t85.5 -42.5 q56 0 94 44v229q-39 45 -94 45t-86 -42.5t-31 -117.5z" />
<glyph horiz-adv-x="570" d="M44 292q0 106 54 173t154 67q33 0 66.5 -12t52.5 -34v37h127v-448q0 -131 -65.5 -202t-156.5 -71q-69 0 -109.5 36t-40.5 97q0 47 21 81.5t60 46.5q-73 11 -118 70t-45 159zM173 292q0 -66 32.5 -97.5t82.5 -31.5h83v215q-13 17 -37.5 29.5t-49.5 12.5q-52 0 -81.5 -35 t-29.5 -93zM371 33v24h-41q-48 0 -78 -21.5t-30 -65.5q0 -28 17.5 -44t44.5 -16q37 0 62 34.5t25 88.5zM352 591l-54 87l-55 -87h-94l87 150h123l87 -150h-94z" />
<glyph horiz-adv-x="570" d="M171 675l32 51q31 -47 95 -47q31 0 56.5 13.5t38.5 33.5l31 -51q-43 -81 -125 -81q-83 0 -128 81zM44 292q0 106 54 173t154 67q33 0 66.5 -12t52.5 -34v37h127v-448q0 -131 -65.5 -202t-156.5 -71q-69 0 -109.5 36t-40.5 97q0 47 21 81.5t60 46.5q-73 11 -118 70 t-45 159zM173 292q0 -66 32.5 -97.5t82.5 -31.5h83v215q-13 17 -37.5 29.5t-49.5 12.5q-52 0 -81.5 -35t-29.5 -93zM371 33v24h-41q-48 0 -78 -21.5t-30 -65.5q0 -28 17.5 -44t44.5 -16q37 0 62 34.5t25 88.5z" />
<glyph horiz-adv-x="570" d="M44 292q0 106 54 173t154 67q33 0 66.5 -12t52.5 -34v37h127v-448q0 -131 -65.5 -202t-156.5 -71q-69 0 -109.5 36t-40.5 97q0 47 21 81.5t60 46.5q-73 11 -118 70t-45 159zM173 292q0 -66 32.5 -97.5t82.5 -31.5h83v215q-13 17 -37.5 29.5t-49.5 12.5q-52 0 -81.5 -35 t-29.5 -93zM371 33v24h-41q-48 0 -78 -21.5t-30 -65.5q0 -28 17.5 -44t44.5 -16q37 0 62 34.5t25 88.5zM230 671q0 65 75 65q73 0 73 -65t-73 -65q-75 0 -75 65z" />
<glyph horiz-adv-x="570" d="M44 292q0 106 54 173t154 67q33 0 66.5 -12t52.5 -34v37h127v-448q0 -131 -65.5 -202t-156.5 -71q-69 0 -109.5 36t-40.5 97q0 47 21 81.5t60 46.5q-73 11 -118 70t-45 159zM173 292q0 -66 32.5 -97.5t82.5 -31.5h83v215q-13 17 -37.5 29.5t-49.5 12.5q-52 0 -81.5 -35 t-29.5 -93zM371 33v24h-41q-48 0 -78 -21.5t-30 -65.5q0 -28 17.5 -44t44.5 -16q37 0 62 34.5t25 88.5zM341 777l-20 -66q49 -9 49 -60q0 -30 -18 -47.5t-46 -17.5q-75 0 -75 75q0 68 51 138z" />
<glyph horiz-adv-x="528" d="M407 741l-88 -150h-105l70 150h123zM26 -71q0 60 41.5 101t115.5 48l-154 445h130l110 -386l109 385q21 0 63.5 0.5t63.5 0.5l-165 -519q-36 -113 -78 -157.5t-110 -44.5q-57 0 -91.5 33.5t-34.5 93.5zM148 -90q25 0 38 19.5t28 67.5l5 14q-113 0 -113 -61 q0 -18 11.5 -29t30.5 -11z" />
<glyph horiz-adv-x="528" d="M26 -71q0 60 41.5 101t115.5 48l-154 445h130l110 -386l109 385q21 0 63.5 0.5t63.5 0.5l-165 -519q-36 -113 -78 -157.5t-110 -44.5q-57 0 -91.5 33.5t-34.5 93.5zM148 -90q25 0 38 19.5t28 67.5l5 14q-113 0 -113 -61q0 -18 11.5 -29t30.5 -11zM322 591l-54 87l-55 -87 h-94l87 150h123l87 -150h-94z" />
<glyph horiz-adv-x="528" d="M26 -71q0 60 41.5 101t115.5 48l-154 445h130l110 -386l109 385q21 0 63.5 0.5t63.5 0.5l-165 -519q-36 -113 -78 -157.5t-110 -44.5q-57 0 -91.5 33.5t-34.5 93.5zM148 -90q25 0 38 19.5t28 67.5l5 14q-113 0 -113 -61q0 -18 11.5 -29t30.5 -11zM97 669q0 62 69 62 q71 0 71 -62t-71 -62q-69 0 -69 62zM314 669q0 62 71 62q68 0 68 -62t-68 -62q-71 0 -71 62z" />
<glyph horiz-adv-x="528" d="M227 591l-89 150h124l69 -150h-104zM26 -71q0 60 41.5 101t115.5 48l-154 445h130l110 -386l109 385q21 0 63.5 0.5t63.5 0.5l-165 -519q-36 -113 -78 -157.5t-110 -44.5q-57 0 -91.5 33.5t-34.5 93.5zM148 -90q25 0 38 19.5t28 67.5l5 14q-113 0 -113 -61 q0 -18 11.5 -29t30.5 -11z" />
</font>
</defs>
</svg>
