<?xml version="1.0" standalone="no"?>
<!DOCTYPE svg PUBLIC "-//W3C//DTD SVG 1.1//EN" "http://www.w3.org/Graphics/SVG/1.1/DTD/svg11.dtd" >
<svg xmlns="http://www.w3.org/2000/svg" xmlns:xlink="http://www.w3.org/1999/xlink" version="1.1">
<metadata></metadata>
<defs>
<font id="pluto_sanscond_light" horiz-adv-x="520" >
<font-face units-per-em="1000" ascent="750" descent="-250" />
<missing-glyph horiz-adv-x="205" />
<glyph unicode=" "  horiz-adv-x="205" />
<glyph unicode="&#x09;" horiz-adv-x="205" />
<glyph unicode="&#xa0;" horiz-adv-x="205" />
<glyph unicode="!" horiz-adv-x="243" d="M96 203l-8 476h65l-8 -476h-49zM72 44q0 55 49 55q23 0 36.5 -14.5t13.5 -40.5q0 -55 -50 -55q-49 0 -49 55z" />
<glyph unicode="&#x22;" horiz-adv-x="376" d="M126 680l-2 -240h-48l-2 240h52zM302 680l-3 -240h-48l-1 240h52z" />
<glyph unicode="#" horiz-adv-x="598" d="M312 6l33 155h-173l-34 -161h-51v6l33 155h-80v53h91l55 256h-77v53h88l34 157h50v-6l-32 -151h172l34 157h50v-6l-32 -151h86v-53h-97l-55 -256h82v-53h-93l-34 -161h-50v6zM238 470l-55 -256h173l54 256h-172z" />
<glyph unicode="$" horiz-adv-x="529" d="M243 -128v118q-54 2 -105 19t-81 38l16 62q77 -55 170 -58v269l-65 19q-130 37 -130 160q0 73 50.5 126t144.5 62v83h43v-81q103 -3 186 -52l-21 -60q-29 20 -75.5 35t-89.5 16v-258l39 -11q79 -24 117.5 -63t38.5 -106q0 -83 -53 -136.5t-142 -61.5v-120h-43zM296 305 l-10 3v-255q58 9 93 44t35 90q0 45 -29 73t-89 45zM112 503q0 -81 93 -108l38 -12v243q-64 -8 -97.5 -42t-33.5 -81z" />
<glyph unicode="%" horiz-adv-x="735" d="M188 6l305 674h57v-6l-306 -674h-56v6zM38 517q0 80 41 126t108 46t108 -46t41 -126t-41 -125.5t-108 -45.5t-108 45.5t-41 125.5zM89 517q0 -57 26.5 -88.5t71.5 -31.5t71.5 31.5t26.5 88.5q0 58 -26.5 89.5t-71.5 31.5t-71.5 -31.5t-26.5 -89.5zM399 160q0 81 40.5 127 t107.5 46t108 -46t41 -127q0 -79 -41 -124.5t-108 -45.5t-107.5 45t-40.5 125zM449 160q0 -57 26.5 -88t71.5 -31t71.5 31t26.5 88q0 59 -26.5 90.5t-71.5 31.5t-71.5 -31.5t-26.5 -90.5z" />
<glyph unicode="&#x26;" horiz-adv-x="626" d="M590 4v-10h-76l-68 78q-84 -81 -192 -81q-90 0 -142.5 47.5t-52.5 128.5q0 114 144 185q-30 34 -45 53.5t-29.5 53t-14.5 67.5q0 72 46 118t126 46q77 0 124.5 -45t47.5 -118q0 -114 -120 -170l-43 -21l153 -172q62 88 89 214l51 -30q-32 -135 -101 -228zM265 49 q76 0 143 67l-168 193q-54 -26 -84.5 -56.5t-30.5 -78.5q0 -57 38 -91t102 -34zM178 522q0 -57 79 -145l57 26q81 37 81 121q0 45 -31.5 76.5t-77.5 31.5q-51 0 -79.5 -30.5t-28.5 -79.5z" />
<glyph unicode="'" horiz-adv-x="200" d="M126 680l-2 -240h-48l-2 240h52z" />
<glyph unicode="(" horiz-adv-x="257" d="M113 261q0 -145 34 -255.5t74 -173.5l-40 -25q-45 56 -86 175.5t-41 278.5q0 160 41 278.5t86 175.5l40 -25q-41 -64 -74.5 -173.5t-33.5 -255.5z" />
<glyph unicode=")" horiz-adv-x="257" d="M145 261q0 146 -33.5 255.5t-74.5 173.5l39 25q45 -57 86 -175.5t41 -278.5q0 -159 -41 -278.5t-86 -175.5l-39 25q40 63 74 173.5t34 255.5z" />
<glyph unicode="*" horiz-adv-x="430" d="M108 389l67 116l-121 32l14 47l123 -38l-3 134h54l-4 -135l123 39l15 -47l-124 -33l70 -114l-41 -25l-67 116l-66 -116z" />
<glyph unicode="+" horiz-adv-x="495" d="M274 530v-201h169v-54h-169v-200h-53v200h-169v54h169v201h53z" />
<glyph unicode="," horiz-adv-x="237" d="M72 -153l39 141q-43 5 -43 51q0 57 50 57q23 0 37 -16t14 -41q0 -40 -21 -109t-38 -100z" />
<glyph unicode="-" horiz-adv-x="465" d="M73 330h319v-55h-319v55z" />
<glyph unicode="." horiz-adv-x="236" d="M69 44q0 55 48 55q51 0 51 -55t-51 -55q-48 0 -48 55z" />
<glyph unicode="/" horiz-adv-x="428" d="M32 6l306 674h57v-6l-305 -674h-58v6z" />
<glyph unicode="0" horiz-adv-x="611" d="M60 339q0 161 61.5 256t183.5 95q123 0 184 -94.5t61 -256.5q0 -161 -61 -255t-184 -94q-122 0 -183.5 94.5t-61.5 254.5zM123 339q0 -132 44 -209t138 -77t138 76.5t44 209.5q0 134 -44 212t-138 78t-138 -78t-44 -212z" />
<glyph unicode="1" horiz-adv-x="416" d="M25 544l247 136h50v-680h-65v603l-208 -111z" />
<glyph unicode="2" horiz-adv-x="544" d="M64 0v52l239 227q55 51 80 95.5t25 99.5q0 70 -37 112.5t-108 42.5q-72 0 -110 -49t-40 -130l-59 9q2 105 57 168t156 63q100 0 154 -60t54 -152q0 -66 -29.5 -119t-94.5 -115l-194 -185h335v-59h-428z" />
<glyph unicode="3" horiz-adv-x="550" d="M127 381h151q60 0 93.5 36t33.5 87q0 62 -44.5 95.5t-111.5 33.5q-91 0 -170 -50l-17 56q90 51 192 51q101 0 158.5 -46.5t57.5 -131.5q0 -58 -30.5 -102.5t-80.5 -54.5q132 -31 132 -171q0 -90 -64 -142t-173 -52q-93 0 -194 47l18 57q86 -46 173 -46q75 0 124.5 39 t49.5 105q0 61 -37.5 95.5t-109.5 34.5h-151v59z" />
<glyph unicode="4" horiz-adv-x="610" d="M573 150h-126v-150h-65v150h-350v48l331 482h84v-478h126v-52zM100 202h282v415z" />
<glyph unicode="5" horiz-adv-x="544" d="M86 353l-4 4l24 323h365v-59h-310l-15 -217h108q110 0 173 -45.5t63 -142.5q0 -113 -68.5 -169.5t-173.5 -56.5t-200 49l19 57q84 -48 176 -48q76 0 128.5 40.5t52.5 125.5q0 73 -48 106t-129 33h-161z" />
<glyph unicode="6" horiz-adv-x="592" d="M124 341v-19q76 132 203 132q99 0 155.5 -59.5t56.5 -165.5t-63 -172.5t-159 -66.5q-121 0 -189.5 95.5t-68.5 255.5q0 158 69 253.5t191 95.5q62 0 114 -20t82 -45l-23 -54q-25 24 -69.5 42.5t-96.5 18.5q-98 0 -150 -79t-52 -212zM317 398q-38 0 -72 -15.5t-57 -40.5 t-36 -44.5t-23 -39.5q15 -96 62.5 -151.5t123.5 -55.5q68 0 113.5 51t45.5 127q0 80 -43.5 124.5t-113.5 44.5z" />
<glyph unicode="7" horiz-adv-x="471" d="M118 7l257 614h-342v59h415v-50l-257 -630h-73v7z" />
<glyph unicode="8" horiz-adv-x="587" d="M294 -10q-108 0 -171.5 52t-63.5 142q0 142 143 171q-56 10 -89.5 54.5t-33.5 102.5q0 85 57.5 131.5t157.5 46.5q99 0 156.5 -46.5t57.5 -131.5q0 -58 -33 -102.5t-90 -54.5q144 -28 144 -171q0 -90 -64 -142t-171 -52zM294 327q-85 0 -127.5 -36.5t-42.5 -98.5 q0 -66 48 -106.5t122 -40.5q73 0 121.5 40.5t48.5 106.5q0 62 -42 98.5t-128 36.5zM294 635q-68 0 -109.5 -33.5t-41.5 -95.5q0 -54 37.5 -91t113.5 -37t113 37t37 91q0 62 -41 95.5t-109 33.5z" />
<glyph unicode="9" horiz-adv-x="592" d="M468 339v18q-29 -50 -79 -90.5t-123 -40.5q-99 0 -156 59.5t-57 165.5t63 172.5t159 66.5q122 0 190.5 -95.5t68.5 -255.5q0 -158 -69 -253.5t-192 -95.5q-62 0 -114 20t-82 45l23 54q25 -24 69.5 -42.5t96.5 -18.5q98 0 150 79t52 212zM276 282q38 0 71 15.5t56 40.5 t36 44t23 39q-14 96 -61.5 152t-122.5 56q-69 0 -114.5 -50.5t-45.5 -127.5q0 -80 43.5 -124.5t114.5 -44.5z" />
<glyph unicode=":" horiz-adv-x="244" d="M72 484q0 54 48 54q51 0 51 -54q0 -55 -51 -55q-48 0 -48 55zM72 44q0 54 48 54q51 0 51 -54q0 -55 -51 -55q-48 0 -48 55z" />
<glyph unicode=";" horiz-adv-x="250" d="M80 -151l39 139q-43 5 -43 51q0 27 13.5 41.5t36.5 14.5t36.5 -16t13.5 -40q0 -40 -20.5 -108.5t-37.5 -98.5zM76 484q0 54 48 54q51 0 51 -54q0 -55 -51 -55q-48 0 -48 55z" />
<glyph unicode="&#x3c;" horiz-adv-x="501" d="M43 275v54l385 207h5v-54l-336 -179l336 -179v-54h-5z" />
<glyph unicode="=" horiz-adv-x="541" d="M76 471h389v-54h-389v54zM76 188h389v-54h-389v54z" />
<glyph unicode="&#x3e;" horiz-adv-x="501" d="M458 329v-54l-384 -205h-6v54l336 179l-336 179v54h6z" />
<glyph unicode="?" horiz-adv-x="407" d="M203 203h-55q-6 24 -6 41q0 24 10 42.5t34 46.5l65 79q45 53 45 115q0 46 -29 76.5t-79 30.5q-84 0 -126 -81l-24 48q57 89 164 89q72 0 115.5 -45.5t43.5 -115.5q0 -81 -62 -152l-68 -80q-31 -36 -31 -67q0 -17 3 -27zM129 44q0 55 48 55q50 0 50 -55t-50 -55 q-48 0 -48 55z" />
<glyph unicode="@" horiz-adv-x="860" d="M607 491v-367q0 -35 9 -50t34 -15q48 0 84.5 67t36.5 193q0 163 -90 257.5t-242 94.5q-150 0 -244 -109t-94 -299t93 -299.5t245 -109.5q85 0 160 42l16 -44q-80 -46 -176 -46q-174 0 -281 123.5t-107 333.5q0 206 109 331t279 125t275.5 -108.5t105.5 -288.5 q0 -155 -54 -233t-134 -78q-38 0 -56 14t-27 46q-46 -60 -136 -60q-87 0 -140.5 67.5t-53.5 174.5q0 108 53.5 177t140.5 69q89 0 132 -53v45h62zM283 253q0 -82 40.5 -133.5t106.5 -51.5q71 0 115 57v263q-40 54 -115 54q-66 0 -106.5 -52.5t-40.5 -136.5z" />
<glyph unicode="A" horiz-adv-x="608" d="M24 0l246 680h74l234 -680h-65l-56 166h-309l-59 -166h-65zM307 613l-140 -395h273z" />
<glyph unicode="B" horiz-adv-x="593" d="M93 0v680h210q92 0 142 -43.5t50 -131.5q0 -114 -102 -152q148 -26 148 -173q0 -85 -51 -132.5t-148 -47.5h-249zM159 318v-260h176q68 0 103.5 33t35.5 92q0 67 -40.5 101t-116.5 34h-158zM159 622v-243h131q65 0 102 31.5t37 89.5q0 122 -133 122h-137z" />
<glyph unicode="C" horiz-adv-x="614" d="M56 340q0 162 79 256t209 94q135 0 222 -110l-37 -45q-77 93 -180 93q-106 0 -166 -76t-60 -212t60 -212t166 -76q103 0 180 93l37 -45q-87 -110 -222 -110q-130 0 -209 94t-79 256z" />
<glyph unicode="D" horiz-adv-x="674" d="M93 0v680h225q133 -1 216 -90.5t83 -250.5q0 -160 -83.5 -249.5t-215.5 -89.5h-225zM159 59h152q108 0 173.5 73t65.5 207q0 135 -65 208.5t-174 73.5h-152v-562z" />
<glyph unicode="E" horiz-adv-x="588" d="M535 0h-442v680h442v-59h-378v-237h316v-59h-316v-266h378v-59z" />
<glyph unicode="F" horiz-adv-x="557" d="M472 284h-315v-284h-64v680h425v-59h-361v-278h315v-59z" />
<glyph unicode="G" horiz-adv-x="667" d="M582 599l-31 -51q-82 80 -181 80q-109 0 -178.5 -77.5t-69.5 -211.5t69.5 -210.5t175.5 -76.5q105 0 175 58v190h-204v59h266v-286q-42 -35 -109 -59t-132 -24q-132 0 -220 94.5t-88 254.5q0 161 88 256t220 95q126 0 219 -91z" />
<glyph unicode="H" horiz-adv-x="713" d="M555 0v312h-396v-312h-66v680h66v-309h396v309h65v-680h-65z" />
<glyph unicode="I" horiz-adv-x="252" d="M93 0v680h66v-680h-66z" />
<glyph unicode="J" horiz-adv-x="559" d="M27 225l63 6q5 -93 43.5 -137.5t114.5 -44.5q158 0 158 188v443h66v-442q0 -116 -58.5 -183t-166.5 -67q-104 0 -159.5 61t-60.5 176z" />
<glyph unicode="K" horiz-adv-x="587" d="M93 0v680h66v-316h69l250 316h69v-10l-265 -336l290 -325v-9h-79l-268 305h-66v-305h-66z" />
<glyph unicode="L" horiz-adv-x="506" d="M488 0h-395v680h66v-621h329v-59z" />
<glyph unicode="M" horiz-adv-x="807" d="M648 0v570l-237 -344h-15l-237 344v-570h-66v680h64l246 -359l247 359h64v-680h-66z" />
<glyph unicode="N" horiz-adv-x="711" d="M559 0l-401 570v-570h-65v680h58l401 -572v572h66v-680h-59z" />
<glyph unicode="O" horiz-adv-x="705" d="M55 339q0 157 83 254t214 97q132 0 215 -97t83 -254q0 -155 -83 -252t-215 -97q-131 0 -214 97t-83 252zM120 339q0 -133 64.5 -209.5t167.5 -76.5t168 77t65 209q0 134 -65 211t-168 77t-167.5 -77t-64.5 -211z" />
<glyph unicode="P" horiz-adv-x="588" d="M93 0v680h249q87 0 146.5 -61t59.5 -177q0 -106 -60.5 -170t-145.5 -64h-183v-208h-66zM329 621h-170v-354h170q64 0 108 47.5t44 127.5q0 87 -43 133t-109 46z" />
<glyph unicode="Q" horiz-adv-x="705" d="M55 339q0 157 83 254t214 97q132 0 215 -97t83 -254q0 -131 -60 -221.5t-161 -117.5q2 -2 22 -24t27 -29t27 -24t34 -24t35 -13.5t42 -6.5q56 0 94 17l9 -57q-46 -19 -106 -19q-49 0 -95 24.5t-74 53.5t-54.5 58t-37.5 34q-131 0 -214 97t-83 252zM119 339 q0 -132 65 -209t168 -77t168.5 77t65.5 209q0 134 -65 211t-169 77q-103 0 -168 -77t-65 -211z" />
<glyph unicode="R" horiz-adv-x="606" d="M93 0v680h253q87 0 145.5 -57t58.5 -158q0 -90 -54 -146.5t-134 -62.5l213 -246v-10h-75l-217 256h-124v-256h-66zM331 621h-172v-311h172q66 0 109 41t43 114q0 76 -43 116t-109 40z" />
<glyph unicode="S" horiz-adv-x="538" d="M50 46l16 64q33 -22 85.5 -40.5t101.5 -18.5q72 0 120 36t48 98q0 90 -113 121l-113 31q-138 39 -138 164q0 78 56.5 133t163.5 55q54 0 107.5 -15t88.5 -37l-20 -59q-31 20 -80.5 35t-93.5 15q-78 0 -118 -35.5t-40 -89.5q0 -42 24.5 -67.5t74.5 -40.5l112 -33 q79 -23 117.5 -64.5t38.5 -109.5q0 -89 -64.5 -143.5t-168.5 -54.5q-57 0 -115 17.5t-90 38.5z" />
<glyph unicode="T" horiz-adv-x="531" d="M513 621h-208v-621h-66v621h-219v59h493v-59z" />
<glyph unicode="U" horiz-adv-x="671" d="M152 680v-406q0 -105 45 -164.5t138 -59.5q92 0 138 62t46 163v405h66v-409q0 -123 -64 -203t-186 -80q-123 0 -186 76.5t-63 206.5v409h66z" />
<glyph unicode="V" horiz-adv-x="612" d="M263 0l-233 680h69l204 -612l215 612h71l-247 -680h-79z" />
<glyph unicode="W" horiz-adv-x="932" d="M592 0l-125 369l-134 -369h-70l-233 680h69l204 -606l135 372l-79 234h70l197 -597l212 597h70l-246 -680h-70z" />
<glyph unicode="X" horiz-adv-x="597" d="M569 680v-6l-225 -334l225 -334v-6h-77l-194 294l-194 -294h-76v6l224 334l-224 334v6h75l195 -295l195 295h76z" />
<glyph unicode="Y" horiz-adv-x="593" d="M264 0v288l-240 386v6h73l200 -332l200 332h72v-6l-240 -385v-289h-65z" />
<glyph unicode="Z" d="M46 50l345 571h-345v59h429v-50l-346 -571h346v-59h-429v50z" />
<glyph unicode="[" horiz-adv-x="296" d="M256 -188h-172v898h172v-55h-117v-788h117v-55z" />
<glyph unicode="\" horiz-adv-x="428" d="M89 680l306 -674v-6h-57l-306 674v6h57z" />
<glyph unicode="]" horiz-adv-x="296" d="M40 710h171v-898h-171v55h116v788h-116v55z" />
<glyph unicode="^" horiz-adv-x="481" d="M213 680h51l157 -267v-6h-60l-122 220l-121 -220h-59v6z" />
<glyph unicode="_" horiz-adv-x="570" d="M72 -42h425v-55h-425v55z" />
<glyph unicode="`" horiz-adv-x="510" d="M265 604l-78 137h66l70 -137h-58z" />
<glyph unicode="a" horiz-adv-x="515" d="M436 0h-64v56q-66 -66 -159 -66q-77 0 -122.5 43t-45.5 116q0 92 65.5 138t171.5 46q45 0 90 -12v25q0 128 -126 128q-80 0 -143 -34l-13 55q74 37 165 37q87 0 134 -48.5t47 -139.5v-344zM111 155q0 -52 33 -81.5t87 -29.5q83 0 141 65v163q-38 12 -86 12 q-78 0 -126.5 -32t-48.5 -97z" />
<glyph unicode="b" horiz-adv-x="569" d="M514 262q0 -127 -58.5 -199.5t-156.5 -72.5q-91 0 -151 71v-61h-64v710h64v-248q59 70 151 70q98 0 156.5 -72t58.5 -198zM448 259q0 99 -45 156.5t-123 57.5q-40 0 -75.5 -20t-56.5 -48v-289q21 -28 57 -47.5t75 -19.5q78 0 123 56t45 154z" />
<glyph unicode="c" horiz-adv-x="508" d="M120 262q0 -99 46.5 -157t124.5 -58q81 0 136 65l32 -49q-70 -77 -169 -77q-106 0 -170.5 75t-64.5 201t64.5 200.5t170.5 74.5q99 0 169 -77l-32 -49q-55 65 -137 65q-77 0 -123.5 -57.5t-46.5 -156.5z" />
<glyph unicode="d" horiz-adv-x="570" d="M486 710v-710h-64v61q-59 -71 -150 -71q-98 0 -157 73t-59 199t58.5 198t157.5 72q88 0 150 -69v247h64zM122 259q0 -98 45 -154t122 -56q39 0 75 19t58 46v292q-22 29 -57.5 48t-75.5 19q-77 0 -122 -57.5t-45 -156.5z" />
<glyph unicode="e" horiz-adv-x="538" d="M473 238h-355q3 -91 47 -143t134 -52q80 0 151 62l27 -51q-76 -68 -186 -68q-119 0 -177.5 74.5t-58.5 199.5q0 122 63 199.5t169 77.5q98 0 147 -60.5t49 -154.5q0 -44 -10 -84zM121 291h299q4 24 4 39q0 66 -35.5 108t-101.5 42q-75 0 -119 -52t-47 -137z" />
<glyph unicode="f" horiz-adv-x="395" d="M41 437v54h92v66q0 78 35 120.5t106 42.5q66 0 112 -44l-19 -55q-41 41 -84 41q-86 0 -86 -103v-68h164v-54h-164v-437h-64v437h-92z" />
<glyph unicode="g" horiz-adv-x="570" d="M57 280q0 113 58.5 182.5t155.5 69.5q92 0 150 -67v58h65v-500q0 -110 -57 -165.5t-147 -55.5q-13 0 -26.5 1t-24 2.5t-22 5t-19.5 5.5t-18.5 6.5t-15.5 6.5t-15 7.5t-12.5 6.5t-11.5 7l-9 5l16 59q77 -55 151 -55q64 0 105 38t41 119v83q-60 -69 -150 -69q-96 0 -155 69 t-59 181zM122 280q0 -87 45.5 -139.5t122.5 -52.5q73 0 131 69v245q-58 71 -130 71q-77 0 -123 -52.5t-46 -140.5z" />
<glyph unicode="h" horiz-adv-x="576" d="M496 0h-64v316q0 155 -133 155q-56 0 -95.5 -35t-55.5 -89v-347h-64v710h64v-275q53 97 173 97q87 0 131 -53t44 -152v-327z" />
<glyph unicode="i" horiz-adv-x="232" d="M73 672q0 43 44 43q41 0 41 -43q0 -42 -41 -42q-44 0 -44 42zM148 0h-64v523h64v-523z" />
<glyph unicode="j" horiz-adv-x="232" d="M39 -197l-37 45q43 27 62.5 61.5t19.5 93.5v520h64v-518q0 -77 -27.5 -124.5t-81.5 -77.5zM74 672q0 43 43 43q41 0 41 -43q0 -42 -41 -42q-43 0 -43 42z" />
<glyph unicode="k" horiz-adv-x="488" d="M447 523v-11l-235 -235l247 -266v-11h-78l-233 257v-257h-64v710h64v-416l225 229h74z" />
<glyph unicode="l" horiz-adv-x="280" d="M88 710h65v-596q0 -37 11.5 -52t36.5 -15q28 0 59 21l7 -52q-38 -26 -87 -26q-46 0 -69 25.5t-23 84.5v610z" />
<glyph unicode="m" horiz-adv-x="886" d="M806 0h-64v324q0 76 -30.5 111.5t-97.5 35.5q-95 0 -132 -115q1 -7 1 -22v-334h-65v324q0 147 -127 147q-56 0 -91.5 -32.5t-51.5 -87.5v-351h-64v523h64v-85q51 94 164 94q123 0 158 -106q50 106 161 106q91 0 133 -49t42 -149v-334z" />
<glyph unicode="n" horiz-adv-x="576" d="M496 0h-64v316q0 155 -132 155q-57 0 -96.5 -35t-55.5 -89v-347h-64v523h64v-88q53 97 173 97q87 0 131 -53t44 -152v-327z" />
<glyph unicode="o" horiz-adv-x="582" d="M55 260q0 127 64.5 202t170.5 75q107 0 172.5 -75t65.5 -202q0 -126 -65.5 -200t-172.5 -74q-106 0 -170.5 74t-64.5 200zM118 260q0 -99 47.5 -156t124.5 -57q79 0 126 57t47 156q0 100 -47 158t-126 58q-78 0 -125 -58t-47 -158z" />
<glyph unicode="p" horiz-adv-x="569" d="M84 -188v711h64v-60q59 71 150 71q98 0 157 -73t59 -199q0 -127 -59 -198.5t-157 -71.5q-91 0 -150 68v-248h-64zM448 264q0 98 -45.5 154.5t-122.5 56.5q-40 0 -75.5 -19.5t-56.5 -47.5v-292q20 -27 56 -46.5t76 -19.5q78 0 123 57.5t45 156.5z" />
<glyph unicode="q" horiz-adv-x="570" d="M56 259q0 127 58.5 199.5t156.5 72.5q92 0 151 -72v64h64v-711h-64v246q-62 -69 -151 -69q-98 0 -156.5 72t-58.5 198zM122 262q0 -99 45 -156.5t123 -57.5q39 0 74 20t58 48v289q-22 28 -57.5 48t-74.5 20q-77 0 -122.5 -56.5t-45.5 -154.5z" />
<glyph unicode="r" horiz-adv-x="381" d="M149 0h-65v523h65v-93q38 102 126 102q50 0 84 -31l-15 -58q-36 28 -75 28q-83 0 -120 -131v-340z" />
<glyph unicode="s" horiz-adv-x="455" d="M392 496l-17 -57q-66 36 -139 36q-54 0 -84 -24t-30 -63q0 -35 21 -52.5t68 -31.5l68 -21q127 -38 127 -137q0 -66 -51.5 -111t-134.5 -45q-93 0 -168 42l15 59q72 -45 151 -45q55 0 89 27t34 68q0 35 -23.5 55.5t-68.5 34.5l-67 20q-64 19 -95 50t-31 86q0 63 47.5 104 t129.5 41q40 0 86.5 -11t72.5 -25z" />
<glyph unicode="t" horiz-adv-x="414" d="M186 469v-326q0 -95 81 -95q56 0 105 40l19 -53q-66 -45 -138 -45q-132 0 -132 146v333h-86v54h90l7 133h54v-133h182v-54h-182z" />
<glyph unicode="u" horiz-adv-x="575" d="M79 523h65v-316q0 -155 131 -155q57 0 97 35t55 89v347h65v-523h-65v88q-52 -97 -172 -97q-87 0 -131.5 53t-44.5 152v327z" />
<glyph unicode="v" horiz-adv-x="541" d="M439 523h70l-197 -523h-83l-197 523h71l168 -462z" />
<glyph unicode="w" horiz-adv-x="858" d="M753 523h71l-174 -523h-81l-139 448l-144 -448h-81l-169 523h71l141 -457l143 457h79l138 -457z" />
<glyph unicode="x" horiz-adv-x="500" d="M464 523v-6l-170 -257l170 -254v-6h-72l-143 222l-141 -222h-73v6l168 254l-168 257v6h71l143 -224l144 224h71z" />
<glyph unicode="y" horiz-adv-x="527" d="M22 -168l12 51q39 -25 86 -25q40 0 62.5 25t41.5 80l14 42l-213 518h72l171 -451l155 451h66l-207 -574q-27 -75 -62 -111t-97 -36q-57 0 -101 30z" />
<glyph unicode="z" horiz-adv-x="455" d="M50 50l274 419h-274v54h355v-50l-274 -419h274v-54h-355v50z" />
<glyph unicode="{" horiz-adv-x="271" d="M199 -145h23v-49h-33q-57 0 -84 31t-27 80q0 35 26 118.5t26 128.5q0 37 -20 55t-64 18v44q84 0 84 74q0 45 -26 128t-26 118q0 48 27.5 78.5t83.5 30.5h33v-50h-23q-33 0 -51 -20t-18 -51q0 -29 26.5 -113t26.5 -128q0 -38 -15.5 -59.5t-49.5 -29.5q34 -8 49.5 -30 t15.5 -63q0 -43 -26.5 -126.5t-26.5 -112.5q0 -31 18 -51.5t51 -20.5z" />
<glyph unicode="|" horiz-adv-x="222" d="M84 -188v898h54v-898h-54z" />
<glyph unicode="}" horiz-adv-x="272" d="M83 -194h-34v49h25q32 0 49.5 20.5t17.5 51.5q0 29 -26 112.5t-26 126.5q0 41 15 63t50 30q-35 8 -50 29t-15 60q0 44 26 128t26 113q0 31 -17.5 51t-49.5 20h-25v50h34q56 0 83.5 -31t27.5 -78q0 -35 -26 -118t-26 -128q0 -74 83 -74v-44q-44 0 -63.5 -18t-19.5 -55 q0 -45 26 -128.5t26 -118.5q0 -49 -27.5 -80t-83.5 -31z" />
<glyph unicode="~" horiz-adv-x="454" d="M358 352l29 -28q-8 -41 -31 -66t-55 -25q-31 0 -76.5 43.5t-70.5 43.5q-21 0 -36.5 -17.5t-20.5 -50.5l-29 29q6 37 28.5 63.5t55.5 26.5q26 0 53.5 -21.5t52 -43.5t42.5 -22q43 0 58 68z" />
<glyph unicode="&#xa1;" horiz-adv-x="229" d="M139 323l8 -477h-65l8 477h49zM163 482q0 -55 -48 -55q-24 0 -37.5 14.5t-13.5 40.5q0 55 51 55q48 0 48 -55z" />
<glyph unicode="&#xa2;" horiz-adv-x="530" d="M396 627l-25 -105q47 -17 88 -62l-32 -49q-32 37 -70 52l-98 -413q15 -3 32 -3q81 0 136 65l32 -49q-70 -77 -169 -77q-15 0 -45 4l-29 -125l-40 12l29 123q-70 27 -110 95.5t-40 166.5q0 126 64.5 200.5t170.5 74.5q15 0 41 -4l25 105zM120 262q0 -74 26.5 -125.5 t73.5 -74.5l97 412q-16 2 -27 2q-77 0 -123.5 -57.5t-46.5 -156.5z" />
<glyph unicode="&#xa3;" horiz-adv-x="549" d="M404 326h-188q21 -132 17 -181q11 -8 38 -35t51 -45t43 -18q76 0 74 164h57q7 -221 -117 -221q-28 0 -57.5 19.5t-60.5 50t-41 37.5q-26 -107 -97 -107q-37 0 -57 25.5t-20 66.5t24 68t62 27q28 0 45 -13q1 17 -1.5 39.5t-4 34t-8.5 47.5t-8 41h-84v44h76q-12 69 -12 125 q0 86 43 140.5t126 54.5q56 0 98.5 -26t67.5 -58l-23 -55q-17 21 -30 34.5t-42 28.5t-61 15q-56 0 -85 -40.5t-29 -105.5q0 -45 9 -113h195v-44zM136 135q-22 0 -36 -15t-14 -40q0 -49 36 -49q44 0 52 90q-16 14 -38 14z" />
<glyph unicode="&#xa4;" horiz-adv-x="529" d="M88 301q0 60 35 103l-56 56l40 39l56 -57q42 31 99 31q60 0 102 -34l58 60l40 -39l-60 -59q33 -41 33 -100q0 -56 -32 -99l59 -58l-40 -39l-58 59q-42 -33 -102 -33q-59 0 -99 31l-56 -57l-40 39l56 55q-35 43 -35 102zM138 301q0 -53 35 -88t89 -35q55 0 89 35t34 88 q0 54 -34 89.5t-89 35.5q-54 0 -89 -35.5t-35 -89.5z" />
<glyph unicode="&#xa5;" horiz-adv-x="518" d="M437 156h-147v-156h-65v156h-145v45h145v74h-145v45h129l-170 354v6h67l152 -337l153 337h68v-6l-174 -354h132v-45h-147v-74h147v-45z" />
<glyph unicode="&#xa6;" horiz-adv-x="226" d="M140 -188h-54v347h54v-347zM86 710h54v-335h-54v335z" />
<glyph unicode="&#xa7;" horiz-adv-x="552" d="M71 -52l15 55q92 -45 189 -45q67 0 109 24t42 66q0 34 -27 49.5t-87 29.5l-122 26q-68 16 -98 48t-30 90q0 98 94 140q-92 26 -92 111q0 62 57 105t156 43q114 0 202 -44l-18 -54q-93 44 -189 44q-68 0 -106.5 -27.5t-38.5 -65.5q0 -53 76 -67l132 -25q75 -15 115.5 -55 t40.5 -100q0 -96 -96 -137q96 -33 96 -109q0 -68 -61 -107.5t-158 -39.5q-116 0 -201 45zM313 401l-62 11q-65 -4 -98 -38t-33 -77q0 -40 20.5 -62t70.5 -33l83 -18q62 2 99 30.5t37 76.5q0 88 -117 110z" />
<glyph unicode="&#xa8;" horiz-adv-x="510" d="M108 671q0 42 41 42q40 0 40 -42q0 -41 -40 -41q-41 0 -41 41zM321 671q0 42 42 42q39 0 39 -42q0 -41 -39 -41q-42 0 -42 41z" />
<glyph unicode="&#xa9;" horiz-adv-x="810" d="M55 339q0 151 100 251t249 100q151 0 251 -100t100 -251q0 -149 -100 -249t-251 -100q-149 0 -249 100t-100 249zM97 339q0 -132 88 -220t219 -88q133 0 221 88t88 220q0 133 -88 221.5t-221 88.5q-131 0 -219 -88.5t-88 -221.5zM285 340q0 -55 35.5 -90t91.5 -35 q66 0 106 42l24 -38q-52 -54 -134 -54q-76 0 -126 49.5t-50 125.5t50 125t126 49q82 0 134 -54l-24 -38q-40 43 -106 43q-56 0 -91.5 -35.5t-35.5 -89.5z" />
<glyph unicode="&#xaa;" horiz-adv-x="428" d="M310 347q-40 0 -49 42q-38 -42 -89 -42q-45 0 -72 29t-27 73q0 57 39 86t105 29q22 0 42 -5v16q0 38 -15.5 54t-48.5 16q-50 0 -86 -23l-9 43q43 23 104 23q54 0 77.5 -27t23.5 -82v-157q0 -18 5 -25.5t19 -7.5q11 0 28 14l5 -40q-26 -16 -52 -16zM182 389q43 0 77 34v99 q-19 7 -46 7q-98 0 -98 -75q0 -30 18 -47.5t49 -17.5zM87 258h259v-41h-259v41z" />
<glyph unicode="&#xab;" horiz-adv-x="455" d="M53 295v15l136 198h5l24 -20l-108 -185l108 -186l-24 -20h-5zM231 295v15l135 198h6l23 -20l-107 -185l108 -186l-24 -20h-6z" />
<glyph unicode="&#xac;" horiz-adv-x="546" d="M416 135v200h-337v54h390v-254h-53z" />
<glyph unicode="&#xad;" horiz-adv-x="465" d="M73 330h319v-55h-319v55z" />
<glyph unicode="&#xae;" horiz-adv-x="810" d="M55 339q0 151 100 251t249 100q151 0 251 -100t100 -251q0 -149 -100 -249t-251 -100q-149 0 -249 100t-100 249zM97 339q0 -132 88 -220t219 -88q133 0 221 88t88 220q0 133 -88 221.5t-221 88.5q-131 0 -219 -88.5t-88 -221.5zM274 169v340h152q51 0 85 -28t34 -82 q0 -50 -31.5 -76.5t-72.5 -30.5l119 -114v-9h-59l-124 123h-51v-123h-52zM425 466h-99v-135h99q30 0 50 18t20 48q0 33 -20 51t-50 18z" />
<glyph unicode="&#xaf;" horiz-adv-x="510" d="M357 637h-205v49h205v-49z" />
<glyph unicode="&#xb0;" horiz-adv-x="410" d="M56 517q0 80 41.5 126t107.5 46q67 0 108 -46t41 -126t-41 -125.5t-108 -45.5q-66 0 -107.5 45.5t-41.5 125.5zM104 517q0 -59 27.5 -91t73.5 -32q47 0 74.5 32t27.5 91q0 60 -27.5 92.5t-74.5 32.5q-46 0 -73.5 -32.5t-27.5 -92.5z" />
<glyph unicode="&#xb1;" horiz-adv-x="557" d="M305 640v-200h169v-55h-169v-158h-53v158h-169v55h169v200h53zM83 137h391v-55h-391v55z" />
<glyph unicode="&#xb2;" horiz-adv-x="287" d="M44 466v33l111 100q46 39 46 85q0 30 -15.5 48.5t-44.5 18.5q-32 0 -48.5 -21.5t-17.5 -56.5l-37 6q1 51 28 81t76 30q48 0 73.5 -28.5t25.5 -73.5q0 -62 -58 -112l-82 -73h149v-37h-206z" />
<glyph unicode="&#xb3;" horiz-adv-x="284" d="M70 648h69q26 0 40.5 15.5t14.5 37.5q0 52 -65 52q-41 0 -81 -21l-9 36q47 22 93 22q48 0 75.5 -22.5t27.5 -63.5q0 -54 -48 -71q57 -13 57 -80q0 -42 -30 -67t-82 -25q-43 0 -94 22l10 35q37 -20 82 -20q32 0 52.5 16.5t20.5 44.5q0 25 -16.5 39.5t-47.5 14.5h-69v35z " />
<glyph unicode="&#xb4;" horiz-adv-x="510" d="M323 741l-78 -137h-58l70 137h66z" />
<glyph unicode="&#xb5;" horiz-adv-x="544" d="M149 523v-298q0 -174 125 -174q101 0 139 110v362h65v-523h-65v72q-50 -82 -159 -82q-65 0 -105 31v-209h-65v711h65z" />
<glyph unicode="&#xb6;" horiz-adv-x="457" d="M185 -188v483h-48q-46 0 -75 30.5t-29 83.5t29 83t75 31h101v-711h-53zM318 -188v711h52v-711h-52z" />
<glyph unicode="&#xb7;" horiz-adv-x="240" d="M71 298q0 55 48 55q51 0 51 -55t-51 -55q-48 0 -48 55z" />
<glyph unicode="&#xb8;" horiz-adv-x="510" d="M193 -96l22 98h31l-15 -69q14 4 27 4q33 0 52.5 -17.5t19.5 -45.5q0 -34 -24.5 -53t-62.5 -19q-31 0 -63 12l8 29q29 -11 53 -11q53 0 53 41q0 35 -47 35q-31 0 -52 -8z" />
<glyph unicode="&#xb9;" horiz-adv-x="222" d="M18 717l118 67h30v-318h-40v272l-92 -52z" />
<glyph unicode="&#xba;" horiz-adv-x="444" d="M73 517q0 81 41 126.5t108 45.5t107.5 -45.5t40.5 -126.5t-40.5 -126t-107.5 -45t-108 45t-41 126zM118 517q0 -62 28 -94.5t76 -32.5t76 32.5t28 94.5t-28 95t-76 33t-76 -33t-28 -95zM93 258h259v-41h-259v41z" />
<glyph unicode="&#xbb;" horiz-adv-x="454" d="M224 310v-15l-136 -198h-5l-24 20l108 186l-108 185l24 20h5zM401 310v-15l-135 -198h-6l-23 20l108 186l-109 185l24 20h6z" />
<glyph unicode="&#xbc;" horiz-adv-x="694" d="M140 6l313 674h42v-6l-313 -674h-42v6zM654 67h-55v-67h-40v67h-160v29l148 222h52v-219h55v-32zM442 99h117v178zM30 617l118 67h30v-318h-40v272l-92 -52z" />
<glyph unicode="&#xbd;" horiz-adv-x="669" d="M140 6l313 674h42v-6l-313 -674h-42v6zM419 0v33l112 99q45 41 45 86q0 29 -15.5 48t-44.5 19q-63 0 -65 -78l-37 6q1 51 28 81t76 30q48 0 73.5 -28.5t25.5 -74.5q0 -60 -58 -111l-82 -73h148v-37h-206zM30 617l118 67h30v-318h-40v272l-92 -52z" />
<glyph unicode="&#xbe;" horiz-adv-x="756" d="M204 6l313 674h42v-6l-313 -674h-42v6zM719 67h-55v-67h-40v67h-160v29l148 222h52v-219h55v-32zM507 99h117v178zM81 548h69q26 0 40.5 15.5t14.5 37.5q0 52 -65 52q-41 0 -81 -21l-9 36q47 22 93 22q48 0 75.5 -22.5t27.5 -63.5q0 -54 -48 -71q57 -13 57 -80 q0 -42 -30 -67t-82 -25q-43 0 -94 22l10 35q37 -20 82 -20q32 0 52.5 16.5t20.5 44.5q0 25 -16.5 39.5t-47.5 14.5h-69v35z" />
<glyph unicode="&#xbf;" horiz-adv-x="398" d="M199 323h55q6 -24 6 -41q0 -24 -10 -42.5t-34 -46.5l-65 -79q-45 -53 -45 -116q0 -45 29.5 -75.5t78.5 -30.5q85 0 126 81l24 -48q-57 -89 -164 -89q-72 0 -115.5 45.5t-43.5 115.5q0 81 62 152l68 80q31 36 31 66q0 17 -3 28zM273 482q0 -55 -48 -55q-50 0 -50 55t50 55 q48 0 48 -55z" />
<glyph unicode="&#xc0;" horiz-adv-x="608" d="M24 0l246 680h74l234 -680h-65l-56 166h-309l-59 -166h-65zM307 613l-140 -395h273zM281 761l-78 137h66l70 -137h-58z" />
<glyph unicode="&#xc1;" horiz-adv-x="608" d="M24 0l246 680h74l234 -680h-65l-56 166h-309l-59 -166h-65zM307 613l-140 -395h273zM402 898l-78 -137h-58l70 137h66z" />
<glyph unicode="&#xc2;" horiz-adv-x="608" d="M24 0l246 680h74l234 -680h-65l-56 166h-309l-59 -166h-65zM307 613l-140 -395h273zM376 761l-70 99l-69 -99h-55l92 137h66l91 -137h-55z" />
<glyph unicode="&#xc3;" horiz-adv-x="608" d="M24 0l246 680h74l234 -680h-65l-56 166h-309l-59 -166h-65zM307 613l-140 -395h273zM185 784l-23 29q12 28 34.5 48.5t48.5 20.5q29 0 66.5 -34t56.5 -34q39 0 59 50l24 -29q-32 -69 -83 -69q-28 0 -66.5 34t-56.5 34q-36 0 -60 -50z" />
<glyph unicode="&#xc4;" horiz-adv-x="608" d="M24 0l246 680h74l234 -680h-65l-56 166h-309l-59 -166h-65zM307 613l-140 -395h273zM160 828q0 42 41 42q40 0 40 -42q0 -41 -40 -41q-41 0 -41 41zM373 828q0 42 42 42q39 0 39 -42q0 -41 -39 -41q-42 0 -42 41z" />
<glyph unicode="&#xc5;" horiz-adv-x="608" d="M209 749q0 41 28.5 69.5t69.5 28.5t69.5 -28.5t28.5 -69.5q0 -61 -55 -88l228 -661h-65l-56 166h-309l-59 -166h-65l239 661q-54 27 -54 88zM307 613l-140 -395h273zM243 749q0 -26 19 -45t45 -19t45 19t19 45t-19 45t-45 19t-45 -19t-19 -45z" />
<glyph unicode="&#xc6;" horiz-adv-x="900" d="M406 0v166h-240l-88 -166h-70l364 680h475v-59h-379v-239h316v-55h-316v-268h379v-59h-441zM194 218h212v393z" />
<glyph unicode="&#xc7;" horiz-adv-x="614" d="M283 -96l20 89q-113 14 -180 106t-67 241q0 162 79 256t209 94q135 0 222 -110l-37 -45q-77 93 -180 93q-106 0 -166 -76t-60 -212t60 -212t166 -76q103 0 180 93l37 -45q-87 -110 -222 -110h-11l-12 -57q14 4 27 4q33 0 52.5 -17.5t19.5 -45.5q0 -34 -24.5 -53 t-62.5 -19q-31 0 -63 12l8 29q29 -11 53 -11q53 0 53 41q0 35 -47 35q-31 0 -52 -8z" />
<glyph unicode="&#xc8;" horiz-adv-x="588" d="M535 0h-442v680h442v-59h-378v-237h316v-59h-316v-266h378v-59zM290 761l-78 137h66l70 -137h-58z" />
<glyph unicode="&#xc9;" horiz-adv-x="588" d="M535 0h-442v680h442v-59h-378v-237h316v-59h-316v-266h378v-59zM413 898l-78 -137h-58l70 137h66z" />
<glyph unicode="&#xca;" horiz-adv-x="588" d="M535 0h-442v680h442v-59h-378v-237h316v-59h-316v-266h378v-59zM384 761l-70 99l-69 -99h-55l92 137h66l91 -137h-55z" />
<glyph unicode="&#xcb;" horiz-adv-x="588" d="M535 0h-442v680h442v-59h-378v-237h316v-59h-316v-266h378v-59zM168 828q0 42 41 42q40 0 40 -42q0 -41 -40 -41q-41 0 -41 41zM381 828q0 42 42 42q39 0 39 -42q0 -41 -39 -41q-42 0 -42 41z" />
<glyph unicode="&#xcc;" horiz-adv-x="252" d="M93 0v680h66v-680h-66zM104 761l-78 137h66l70 -137h-58z" />
<glyph unicode="&#xcd;" horiz-adv-x="252" d="M93 0v680h66v-680h-66zM232 898l-78 -137h-58l70 137h66z" />
<glyph unicode="&#xce;" horiz-adv-x="252" d="M93 0v680h66v-680h-66zM195 761l-70 99l-69 -99h-55l92 137h66l91 -137h-55z" />
<glyph unicode="&#xcf;" horiz-adv-x="252" d="M93 0v680h66v-680h-66zM-23 828q0 42 41 42q40 0 40 -42q0 -41 -40 -41q-41 0 -41 41zM190 828q0 42 42 42q39 0 39 -42q0 -41 -39 -41q-42 0 -42 41z" />
<glyph unicode="&#xd0;" horiz-adv-x="678" d="M309 322h-265v39h265v-39zM98 0v680h225q133 -1 216 -90.5t83 -250.5q0 -160 -83.5 -249.5t-215.5 -89.5h-225zM163 59h153q109 0 174.5 73.5t65.5 206.5q0 135 -65.5 208.5t-174.5 73.5h-153v-562z" />
<glyph unicode="&#xd1;" horiz-adv-x="711" d="M559 0l-401 570v-570h-65v680h58l401 -572v572h66v-680h-59zM240 784l-23 29q12 28 34.5 48.5t48.5 20.5q29 0 66.5 -34t56.5 -34q39 0 59 50l24 -29q-32 -69 -83 -69q-28 0 -66.5 34t-56.5 34q-36 0 -60 -50z" />
<glyph unicode="&#xd2;" horiz-adv-x="705" d="M55 339q0 157 83 254t214 97q132 0 215 -97t83 -254q0 -155 -83 -252t-215 -97q-131 0 -214 97t-83 252zM120 339q0 -133 64.5 -209.5t167.5 -76.5t168 77t65 209q0 134 -65 211t-168 77t-167.5 -77t-64.5 -211zM326 761l-78 137h66l70 -137h-58z" />
<glyph unicode="&#xd3;" horiz-adv-x="705" d="M55 339q0 157 83 254t214 97q132 0 215 -97t83 -254q0 -155 -83 -252t-215 -97q-131 0 -214 97t-83 252zM120 339q0 -133 64.5 -209.5t167.5 -76.5t168 77t65 209q0 134 -65 211t-168 77t-167.5 -77t-64.5 -211zM457 898l-78 -137h-58l70 137h66z" />
<glyph unicode="&#xd4;" horiz-adv-x="705" d="M55 339q0 157 83 254t214 97q132 0 215 -97t83 -254q0 -155 -83 -252t-215 -97q-131 0 -214 97t-83 252zM120 339q0 -133 64.5 -209.5t167.5 -76.5t168 77t65 209q0 134 -65 211t-168 77t-167.5 -77t-64.5 -211zM421 761l-70 99l-69 -99h-55l92 137h66l91 -137h-55z" />
<glyph unicode="&#xd5;" horiz-adv-x="705" d="M55 339q0 157 83 254t214 97q132 0 215 -97t83 -254q0 -155 -83 -252t-215 -97q-131 0 -214 97t-83 252zM120 339q0 -133 64.5 -209.5t167.5 -76.5t168 77t65 209q0 134 -65 211t-168 77t-167.5 -77t-64.5 -211zM231 784l-23 29q12 28 34.5 48.5t48.5 20.5q29 0 66.5 -34 t56.5 -34q39 0 59 50l24 -29q-32 -69 -83 -69q-28 0 -66.5 34t-56.5 34q-36 0 -60 -50z" />
<glyph unicode="&#xd6;" horiz-adv-x="705" d="M55 339q0 157 83 254t214 97q132 0 215 -97t83 -254q0 -155 -83 -252t-215 -97q-131 0 -214 97t-83 252zM120 339q0 -133 64.5 -209.5t167.5 -76.5t168 77t65 209q0 134 -65 211t-168 77t-167.5 -77t-64.5 -211zM206 828q0 42 41 42q40 0 40 -42q0 -41 -40 -41 q-41 0 -41 41zM419 828q0 42 42 42q39 0 39 -42q0 -41 -39 -41q-42 0 -42 41z" />
<glyph unicode="&#xd7;" horiz-adv-x="453" d="M384 444l-120 -142l120 -141l-38 -39l-119 142l-119 -142l-38 39l120 141l-120 142l38 38l119 -142l119 142z" />
<glyph unicode="&#xd8;" horiz-adv-x="705" d="M55 339q0 157 83 254t214 97q100 0 176 -60l35 50h49v-6l-51 -74q89 -99 89 -261q0 -155 -83 -252t-215 -97q-97 0 -172 56l-31 -46h-51v6l49 71q-92 97 -92 262zM120 339q0 -131 64 -209l308 448q-58 49 -140 49q-103 0 -167.5 -77t-64.5 -211zM585 339q0 128 -62 206 l-307 -447q59 -45 136 -45q103 0 168 77t65 209z" />
<glyph unicode="&#xd9;" horiz-adv-x="671" d="M152 680v-406q0 -105 45 -164.5t138 -59.5q92 0 138 62t46 163v405h66v-409q0 -123 -64 -203t-186 -80q-123 0 -186 76.5t-63 206.5v409h66zM310 761l-78 137h66l70 -137h-58z" />
<glyph unicode="&#xda;" horiz-adv-x="671" d="M152 680v-406q0 -105 45 -164.5t138 -59.5q92 0 138 62t46 163v405h66v-409q0 -123 -64 -203t-186 -80q-123 0 -186 76.5t-63 206.5v409h66zM439 898l-78 -137h-58l70 137h66z" />
<glyph unicode="&#xdb;" horiz-adv-x="671" d="M152 680v-406q0 -105 45 -164.5t138 -59.5q92 0 138 62t46 163v405h66v-409q0 -123 -64 -203t-186 -80q-123 0 -186 76.5t-63 206.5v409h66zM404 761l-70 99l-69 -99h-55l92 137h66l91 -137h-55z" />
<glyph unicode="&#xdc;" horiz-adv-x="671" d="M152 680v-406q0 -105 45 -164.5t138 -59.5q92 0 138 62t46 163v405h66v-409q0 -123 -64 -203t-186 -80q-123 0 -186 76.5t-63 206.5v409h66zM189 828q0 42 41 42q40 0 40 -42q0 -41 -40 -41q-41 0 -41 41zM402 828q0 42 42 42q39 0 39 -42q0 -41 -39 -41q-42 0 -42 41z " />
<glyph unicode="&#xdd;" horiz-adv-x="593" d="M264 0v288l-240 386v6h73l200 -332l200 332h72v-6l-240 -385v-289h-65zM401 898l-78 -137h-58l70 137h66z" />
<glyph unicode="&#xde;" horiz-adv-x="587" d="M93 0v680h65v-110h183q90 0 148 -54t58 -169q0 -105 -59.5 -162t-146.5 -57h-183v-128h-65zM329 511h-171v-324h171q66 0 109 41t43 120q0 85 -42 124t-110 39z" />
<glyph unicode="&#xdf;" horiz-adv-x="575" d="M292 720q82 0 134 -55.5t52 -131.5q0 -42 -20 -80.5t-40 -63t-20 -33.5q0 -7 20 -25t43.5 -39.5t43.5 -59t20 -78.5q0 -75 -46 -119.5t-120 -44.5q-78 0 -129 32l11 55q44 -30 98 -30q50 0 83.5 31.5t33.5 83.5q0 34 -19.5 65.5t-43.5 50.5t-43.5 39t-19.5 34 q0 16 20.5 42t41 60.5t20.5 71.5q0 60 -36 98t-89 38q-65 0 -102 -54.5t-37 -147.5v-459h-64v459q0 125 58 193t150 68z" />
<glyph unicode="&#xe0;" horiz-adv-x="515" d="M436 0h-64v56q-66 -66 -159 -66q-77 0 -122.5 43t-45.5 116q0 92 65.5 138t171.5 46q45 0 90 -12v25q0 128 -126 128q-80 0 -143 -34l-13 55q74 37 165 37q87 0 134 -48.5t47 -139.5v-344zM111 155q0 -52 33 -81.5t87 -29.5q83 0 141 65v163q-38 12 -86 12 q-78 0 -126.5 -32t-48.5 -97zM246 604l-78 137h66l70 -137h-58z" />
<glyph unicode="&#xe1;" horiz-adv-x="515" d="M436 0h-64v56q-66 -66 -159 -66q-77 0 -122.5 43t-45.5 116q0 92 65.5 138t171.5 46q45 0 90 -12v25q0 128 -126 128q-80 0 -143 -34l-13 55q74 37 165 37q87 0 134 -48.5t47 -139.5v-344zM111 155q0 -52 33 -81.5t87 -29.5q83 0 141 65v163q-38 12 -86 12 q-78 0 -126.5 -32t-48.5 -97zM365 741l-78 -137h-58l70 137h66z" />
<glyph unicode="&#xe2;" horiz-adv-x="515" d="M436 0h-64v56q-66 -66 -159 -66q-77 0 -122.5 43t-45.5 116q0 92 65.5 138t171.5 46q45 0 90 -12v25q0 128 -126 128q-80 0 -143 -34l-13 55q74 37 165 37q87 0 134 -48.5t47 -139.5v-344zM111 155q0 -52 33 -81.5t87 -29.5q83 0 141 65v163q-38 12 -86 12 q-78 0 -126.5 -32t-48.5 -97zM339 604l-70 99l-69 -99h-55l92 137h66l91 -137h-55z" />
<glyph unicode="&#xe3;" horiz-adv-x="515" d="M436 0h-64v56q-66 -66 -159 -66q-77 0 -122.5 43t-45.5 116q0 92 65.5 138t171.5 46q45 0 90 -12v25q0 128 -126 128q-80 0 -143 -34l-13 55q74 37 165 37q87 0 134 -48.5t47 -139.5v-344zM111 155q0 -52 33 -81.5t87 -29.5q83 0 141 65v163q-38 12 -86 12 q-78 0 -126.5 -32t-48.5 -97zM146 627l-23 29q12 28 34.5 48.5t48.5 20.5q29 0 66.5 -34t56.5 -34q39 0 59 50l24 -29q-32 -69 -83 -69q-28 0 -66.5 34t-56.5 34q-36 0 -60 -50z" />
<glyph unicode="&#xe4;" horiz-adv-x="515" d="M436 0h-64v56q-66 -66 -159 -66q-77 0 -122.5 43t-45.5 116q0 92 65.5 138t171.5 46q45 0 90 -12v25q0 128 -126 128q-80 0 -143 -34l-13 55q74 37 165 37q87 0 134 -48.5t47 -139.5v-344zM111 155q0 -52 33 -81.5t87 -29.5q83 0 141 65v163q-38 12 -86 12 q-78 0 -126.5 -32t-48.5 -97zM119 671q0 42 41 42q40 0 40 -42q0 -41 -40 -41q-41 0 -41 41zM332 671q0 42 42 42q39 0 39 -42q0 -41 -39 -41q-42 0 -42 41z" />
<glyph unicode="&#xe5;" horiz-adv-x="515" d="M163 670q0 40 28.5 69t69.5 29t69.5 -29t28.5 -69t-28.5 -69t-69.5 -29t-69.5 29t-28.5 69zM197 670q0 -26 19 -45t45 -19t45 19t19 45t-19 45t-45 19t-45 -19t-19 -45zM436 0h-64v56q-66 -66 -159 -66q-77 0 -122.5 43t-45.5 116q0 92 65.5 138t171.5 46q45 0 90 -12v25 q0 128 -126 128q-80 0 -143 -34l-13 55q74 37 165 37q87 0 134 -48.5t47 -139.5v-344zM111 155q0 -52 33 -81.5t87 -29.5q83 0 141 65v163q-38 12 -86 12q-78 0 -126.5 -32t-48.5 -97z" />
<glyph unicode="&#xe6;" horiz-adv-x="828" d="M763 240h-331q2 -95 40 -148.5t115 -53.5q81 0 150 65l26 -44q-78 -73 -180 -73q-66 0 -110.5 32.5t-63.5 80.5q-76 -109 -191 -109q-79 0 -126 42.5t-47 118.5q0 87 63.5 133.5t170.5 48.5q43 0 93 -12q2 76 -26.5 114.5t-101.5 38.5t-142 -33l-12 55q75 36 168 36 q132 0 158 -121q21 51 64 88.5t109 37.5q95 0 139.5 -59.5t44.5 -153.5q0 -48 -10 -84zM589 486q-72 0 -112 -60t-40 -137h277q4 24 4 41q0 68 -31.5 112t-97.5 44zM111 154q0 -51 34 -80.5t86 -29.5q48 0 86 26t55 60v141q-47 13 -83 13q-81 -1 -129.5 -32.5t-48.5 -97.5z " />
<glyph unicode="&#xe7;" horiz-adv-x="508" d="M227 -96l19 86q-87 15 -138.5 87.5t-51.5 184.5q0 126 64.5 200.5t170.5 74.5q99 0 169 -77l-32 -49q-55 65 -137 65q-77 0 -123.5 -57.5t-46.5 -156.5t46.5 -157t124.5 -58q81 0 136 65l32 -49q-70 -77 -169 -77q-10 0 -15 1l-11 -54q14 4 27 4q33 0 52.5 -17.5 t19.5 -45.5q0 -34 -24.5 -53t-62.5 -19q-31 0 -63 12l8 29q29 -11 53 -11q53 0 53 41q0 35 -47 35q-31 0 -52 -8z" />
<glyph unicode="&#xe8;" horiz-adv-x="538" d="M473 238h-355q3 -91 47 -143t134 -52q80 0 151 62l27 -51q-76 -68 -186 -68q-119 0 -177.5 74.5t-58.5 199.5q0 122 63 199.5t169 77.5q98 0 147 -60.5t49 -154.5q0 -44 -10 -84zM121 291h299q4 24 4 39q0 66 -35.5 108t-101.5 42q-75 0 -119 -52t-47 -137zM276 604 l-78 137h66l70 -137h-58z" />
<glyph unicode="&#xe9;" horiz-adv-x="538" d="M473 238h-355q3 -91 47 -143t134 -52q80 0 151 62l27 -51q-76 -68 -186 -68q-119 0 -177.5 74.5t-58.5 199.5q0 122 63 199.5t169 77.5q98 0 147 -60.5t49 -154.5q0 -44 -10 -84zM121 291h299q4 24 4 39q0 66 -35.5 108t-101.5 42q-75 0 -119 -52t-47 -137zM388 741 l-78 -137h-58l70 137h66z" />
<glyph unicode="&#xea;" horiz-adv-x="538" d="M473 238h-355q3 -91 47 -143t134 -52q80 0 151 62l27 -51q-76 -68 -186 -68q-119 0 -177.5 74.5t-58.5 199.5q0 122 63 199.5t169 77.5q98 0 147 -60.5t49 -154.5q0 -44 -10 -84zM121 291h299q4 24 4 39q0 66 -35.5 108t-101.5 42q-75 0 -119 -52t-47 -137zM361 604 l-70 99l-69 -99h-55l92 137h66l91 -137h-55z" />
<glyph unicode="&#xeb;" horiz-adv-x="538" d="M473 238h-355q3 -91 47 -143t134 -52q80 0 151 62l27 -51q-76 -68 -186 -68q-119 0 -177.5 74.5t-58.5 199.5q0 122 63 199.5t169 77.5q98 0 147 -60.5t49 -154.5q0 -44 -10 -84zM121 291h299q4 24 4 39q0 66 -35.5 108t-101.5 42q-75 0 -119 -52t-47 -137zM144 671 q0 42 41 42q40 0 40 -42q0 -41 -40 -41q-41 0 -41 41zM357 671q0 42 42 42q39 0 39 -42q0 -41 -39 -41q-42 0 -42 41z" />
<glyph unicode="&#xec;" horiz-adv-x="232" d="M97 604l-78 137h66l70 -137h-58zM148 0h-64v523h64v-523z" />
<glyph unicode="&#xed;" horiz-adv-x="232" d="M221 741l-78 -137h-58l70 137h66zM148 0h-64v523h64v-523z" />
<glyph unicode="&#xee;" horiz-adv-x="232" d="M148 0h-64v523h64v-523zM185 604l-70 99l-69 -99h-55l92 137h66l91 -137h-55z" />
<glyph unicode="&#xef;" horiz-adv-x="232" d="M-31 671q0 42 41 42q40 0 40 -42q0 -41 -40 -41q-41 0 -41 41zM182 671q0 42 42 42q39 0 39 -42q0 -41 -39 -41q-42 0 -42 41zM148 0h-64v523h64v-523z" />
<glyph unicode="&#xf0;" horiz-adv-x="547" d="M422 705l-52 -63q115 -117 115 -301q0 -164 -60.5 -257.5t-169.5 -93.5q-85 0 -140.5 66.5t-55.5 172.5q0 104 49 164.5t134 60.5q106 0 178 -121v8q0 152 -89 255l-56 -68l-21 21l57 68q-41 40 -89 59l26 44q55 -18 100 -57l52 62zM257 51q66 0 107 57.5t52 160.5 q-24 49 -64 89t-95 40q-60 0 -97 -44t-37 -126q0 -77 38 -127t96 -50z" />
<glyph unicode="&#xf1;" horiz-adv-x="576" d="M496 0h-64v316q0 155 -132 155q-57 0 -96.5 -35t-55.5 -89v-347h-64v523h64v-88q53 97 173 97q87 0 131 -53t44 -152v-327zM177 627l-23 29q12 28 34.5 48.5t48.5 20.5q29 0 66.5 -34t56.5 -34q39 0 59 50l24 -29q-32 -69 -83 -69q-28 0 -66.5 34t-56.5 34q-36 0 -60 -50 z" />
<glyph unicode="&#xf2;" horiz-adv-x="582" d="M55 260q0 127 64.5 202t170.5 75q107 0 172.5 -75t65.5 -202q0 -126 -65.5 -200t-172.5 -74q-106 0 -170.5 74t-64.5 200zM118 260q0 -99 47.5 -156t124.5 -57q79 0 126 57t47 156q0 100 -47 158t-126 58q-78 0 -125 -58t-47 -158zM265 604l-78 137h66l70 -137h-58z" />
<glyph unicode="&#xf3;" horiz-adv-x="582" d="M55 260q0 127 64.5 202t170.5 75q107 0 172.5 -75t65.5 -202q0 -126 -65.5 -200t-172.5 -74q-106 0 -170.5 74t-64.5 200zM118 260q0 -99 47.5 -156t124.5 -57q79 0 126 57t47 156q0 100 -47 158t-126 58q-78 0 -125 -58t-47 -158zM396 741l-78 -137h-58l70 137h66z" />
<glyph unicode="&#xf4;" horiz-adv-x="582" d="M55 260q0 127 64.5 202t170.5 75q107 0 172.5 -75t65.5 -202q0 -126 -65.5 -200t-172.5 -74q-106 0 -170.5 74t-64.5 200zM118 260q0 -99 47.5 -156t124.5 -57q79 0 126 57t47 156q0 100 -47 158t-126 58q-78 0 -125 -58t-47 -158zM361 604l-70 99l-69 -99h-55l92 137h66 l91 -137h-55z" />
<glyph unicode="&#xf5;" horiz-adv-x="582" d="M55 260q0 127 64.5 202t170.5 75q107 0 172.5 -75t65.5 -202q0 -126 -65.5 -200t-172.5 -74q-106 0 -170.5 74t-64.5 200zM118 260q0 -99 47.5 -156t124.5 -57q79 0 126 57t47 156q0 100 -47 158t-126 58q-78 0 -125 -58t-47 -158zM169 627l-23 29q12 28 34.5 48.5 t48.5 20.5q29 0 66.5 -34t56.5 -34q39 0 59 50l24 -29q-32 -69 -83 -69q-28 0 -66.5 34t-56.5 34q-36 0 -60 -50z" />
<glyph unicode="&#xf6;" horiz-adv-x="582" d="M55 260q0 127 64.5 202t170.5 75q107 0 172.5 -75t65.5 -202q0 -126 -65.5 -200t-172.5 -74q-106 0 -170.5 74t-64.5 200zM118 260q0 -99 47.5 -156t124.5 -57q79 0 126 57t47 156q0 100 -47 158t-126 58q-78 0 -125 -58t-47 -158zM144 671q0 42 41 42q40 0 40 -42 q0 -41 -40 -41q-41 0 -41 41zM357 671q0 42 42 42q39 0 39 -42q0 -41 -39 -41q-42 0 -42 41z" />
<glyph unicode="&#xf7;" horiz-adv-x="526" d="M68 329h390v-54h-390v54zM211 477q0 53 46 53t46 -53t-46 -53t-46 53zM211 127q0 53 46 53t46 -53t-46 -53t-46 53z" />
<glyph unicode="&#xf8;" horiz-adv-x="582" d="M55 260q0 127 64.5 202t170.5 75q87 0 147 -51l25 36h38v-6l-38 -54q66 -75 66 -202q0 -126 -65.5 -200t-172.5 -74q-74 0 -131 38l-17 -24h-38v6l28 40q-77 75 -77 214zM118 260q0 -102 51 -161l232 335q-45 42 -111 42q-78 0 -125 -58t-47 -158zM463 260q0 87 -39 146 l-229 -330q40 -29 95 -29q79 0 126 57t47 156z" />
<glyph unicode="&#xf9;" horiz-adv-x="575" d="M79 523h65v-316q0 -155 131 -155q57 0 97 35t55 89v347h65v-523h-65v88q-52 -97 -172 -97q-87 0 -131.5 53t-44.5 152v327zM260 604l-78 137h66l70 -137h-58z" />
<glyph unicode="&#xfa;" horiz-adv-x="575" d="M79 523h65v-316q0 -155 131 -155q57 0 97 35t55 89v347h65v-523h-65v88q-52 -97 -172 -97q-87 0 -131.5 53t-44.5 152v327zM391 741l-78 -137h-58l70 137h66z" />
<glyph unicode="&#xfb;" horiz-adv-x="575" d="M79 523h65v-316q0 -155 131 -155q57 0 97 35t55 89v347h65v-523h-65v88q-52 -97 -172 -97q-87 0 -131.5 53t-44.5 152v327zM356 604l-70 99l-69 -99h-55l92 137h66l91 -137h-55z" />
<glyph unicode="&#xfc;" horiz-adv-x="575" d="M79 523h65v-316q0 -155 131 -155q57 0 97 35t55 89v347h65v-523h-65v88q-52 -97 -172 -97q-87 0 -131.5 53t-44.5 152v327zM139 671q0 42 41 42q40 0 40 -42q0 -41 -40 -41q-41 0 -41 41zM352 671q0 42 42 42q39 0 39 -42q0 -41 -39 -41q-42 0 -42 41z" />
<glyph unicode="&#xfd;" horiz-adv-x="527" d="M22 -168l12 51q39 -25 86 -25q40 0 62.5 25t41.5 80l14 42l-213 518h72l171 -451l155 451h66l-207 -574q-27 -75 -62 -111t-97 -36q-57 0 -101 30zM367 741l-78 -137h-58l70 137h66z" />
<glyph unicode="&#xfe;" horiz-adv-x="569" d="M514 262q0 -127 -59 -198.5t-157 -71.5q-91 0 -150 68v-248h-64v898h64v-247q59 71 150 71q98 0 157 -73t59 -199zM448 264q0 98 -45.5 154.5t-122.5 56.5q-40 0 -75.5 -19.5t-56.5 -47.5v-292q20 -27 56 -46.5t76 -19.5q78 0 123 57.5t45 156.5z" />
<glyph unicode="&#xff;" horiz-adv-x="527" d="M22 -168l12 51q39 -25 86 -25q40 0 62.5 25t41.5 80l14 42l-213 518h72l171 -451l155 451h66l-207 -574q-27 -75 -62 -111t-97 -36q-57 0 -101 30zM119 671q0 42 41 42q40 0 40 -42q0 -41 -40 -41q-41 0 -41 41zM332 671q0 42 42 42q39 0 39 -42q0 -41 -39 -41 q-42 0 -42 41z" />
<glyph unicode="&#x100;" horiz-adv-x="608" d="M24 0l246 680h74l234 -680h-65l-56 166h-309l-59 -166h-65zM307 613l-140 -395h273zM409 794h-205v49h205v-49z" />
<glyph unicode="&#x101;" horiz-adv-x="515" d="M436 0h-64v56q-66 -66 -159 -66q-77 0 -122.5 43t-45.5 116q0 92 65.5 138t171.5 46q45 0 90 -12v25q0 128 -126 128q-80 0 -143 -34l-13 55q74 37 165 37q87 0 134 -48.5t47 -139.5v-344zM111 155q0 -52 33 -81.5t87 -29.5q83 0 141 65v163q-38 12 -86 12 q-78 0 -126.5 -32t-48.5 -97zM367 637h-205v49h205v-49z" />
<glyph unicode="&#x102;" horiz-adv-x="608" d="M24 0l246 680h74l234 -680h-65l-56 166h-309l-59 -166h-65zM307 613l-140 -395h273zM193 845l22 29q35 -56 92 -56q58 0 92 56l21 -29q-38 -74 -113 -74q-40 0 -69 22t-45 52z" />
<glyph unicode="&#x103;" horiz-adv-x="515" d="M436 0h-64v56q-66 -66 -159 -66q-77 0 -122.5 43t-45.5 116q0 92 65.5 138t171.5 46q45 0 90 -12v25q0 128 -126 128q-80 0 -143 -34l-13 55q74 37 165 37q87 0 134 -48.5t47 -139.5v-344zM111 155q0 -52 33 -81.5t87 -29.5q83 0 141 65v163q-38 12 -86 12 q-78 0 -126.5 -32t-48.5 -97zM150 688l22 29q35 -56 92 -56q58 0 92 56l21 -29q-38 -74 -113 -74q-40 0 -69 22t-45 52z" />
<glyph unicode="&#x104;" horiz-adv-x="608" d="M24 0l246 680h74l234 -680h-14q-36 -2 -61 -22.5t-25 -54.5q0 -28 15.5 -43.5t38.5 -15.5q27 0 49 15l7 -36q-32 -16 -64 -16q-36 0 -59 23.5t-23 65.5q0 35 20 59t48 32l-53 159h-309l-59 -166h-65zM307 613l-140 -395h273z" />
<glyph unicode="&#x105;" horiz-adv-x="515" d="M436 0h-12q-36 -4 -59 -24t-23 -55q0 -27 15 -42.5t38 -15.5q27 0 49 14l7 -36q-30 -15 -64 -15q-36 0 -59 23.5t-23 64.5q0 35 19.5 58t47.5 32v52q-66 -66 -159 -66q-77 0 -122.5 43t-45.5 116q0 92 65.5 138t171.5 46q45 0 90 -12v25q0 128 -126 128q-80 0 -143 -34 l-13 55q74 37 165 37q87 0 134 -48.5t47 -139.5v-344zM111 155q0 -52 33 -81.5t87 -29.5q83 0 141 65v163q-38 12 -86 12q-78 0 -126.5 -32t-48.5 -97z" />
<glyph unicode="&#x106;" horiz-adv-x="614" d="M56 340q0 162 79 256t209 94q135 0 222 -110l-37 -45q-77 93 -180 93q-106 0 -166 -76t-60 -212t60 -212t166 -76q103 0 180 93l37 -45q-87 -110 -222 -110q-130 0 -209 94t-79 256zM450 898l-78 -137h-58l70 137h66z" />
<glyph unicode="&#x107;" horiz-adv-x="508" d="M120 262q0 -99 46.5 -157t124.5 -58q81 0 136 65l32 -49q-70 -77 -169 -77q-106 0 -170.5 75t-64.5 201t64.5 200.5t170.5 74.5q99 0 169 -77l-32 -49q-55 65 -137 65q-77 0 -123.5 -57.5t-46.5 -156.5zM389 741l-78 -137h-58l70 137h66z" />
<glyph unicode="&#x108;" horiz-adv-x="614" d="M56 340q0 162 79 256t209 94q135 0 222 -110l-37 -45q-77 93 -180 93q-106 0 -166 -76t-60 -212t60 -212t166 -76q103 0 180 93l37 -45q-87 -110 -222 -110q-130 0 -209 94t-79 256zM414 761l-70 99l-69 -99h-55l92 137h66l91 -137h-55z" />
<glyph unicode="&#x109;" horiz-adv-x="508" d="M120 262q0 -99 46.5 -157t124.5 -58q81 0 136 65l32 -49q-70 -77 -169 -77q-106 0 -170.5 75t-64.5 201t64.5 200.5t170.5 74.5q99 0 169 -77l-32 -49q-55 65 -137 65q-77 0 -123.5 -57.5t-46.5 -156.5zM363 604l-70 99l-69 -99h-55l92 137h66l91 -137h-55z" />
<glyph unicode="&#x10a;" horiz-adv-x="614" d="M56 340q0 162 79 256t209 94q135 0 222 -110l-37 -45q-77 93 -180 93q-106 0 -166 -76t-60 -212t60 -212t166 -76q103 0 180 93l37 -45q-87 -110 -222 -110q-130 0 -209 94t-79 256zM298 829q0 43 43 43q41 0 41 -43q0 -42 -41 -42q-43 0 -43 42z" />
<glyph unicode="&#x10b;" horiz-adv-x="508" d="M120 262q0 -99 46.5 -157t124.5 -58q81 0 136 65l32 -49q-70 -77 -169 -77q-106 0 -170.5 75t-64.5 201t64.5 200.5t170.5 74.5q99 0 169 -77l-32 -49q-55 65 -137 65q-77 0 -123.5 -57.5t-46.5 -156.5zM249 672q0 43 43 43q41 0 41 -43q0 -42 -41 -42q-43 0 -43 42z" />
<glyph unicode="&#x10c;" horiz-adv-x="614" d="M56 340q0 162 79 256t209 94q135 0 222 -110l-37 -45q-77 93 -180 93q-106 0 -166 -76t-60 -212t60 -212t166 -76q103 0 180 93l37 -45q-87 -110 -222 -110q-130 0 -209 94t-79 256zM279 898l70 -99l69 99h55l-91 -137h-66l-92 137h55z" />
<glyph unicode="&#x10d;" horiz-adv-x="508" d="M120 262q0 -99 46.5 -157t124.5 -58q81 0 136 65l32 -49q-70 -77 -169 -77q-106 0 -170.5 75t-64.5 201t64.5 200.5t170.5 74.5q99 0 169 -77l-32 -49q-55 65 -137 65q-77 0 -123.5 -57.5t-46.5 -156.5zM225 741l70 -99l69 99h55l-91 -137h-66l-92 137h55z" />
<glyph unicode="&#x10e;" horiz-adv-x="674" d="M93 0v680h225q133 -1 216 -90.5t83 -250.5q0 -160 -83.5 -249.5t-215.5 -89.5h-225zM159 59h152q108 0 173.5 73t65.5 207q0 135 -65 208.5t-174 73.5h-152v-562zM222 898l70 -99l69 99h55l-91 -137h-66l-92 137h55z" />
<glyph unicode="&#x10f;" horiz-adv-x="598" d="M486 710v-710h-64v61q-59 -71 -150 -71q-98 0 -157 73t-59 199t58.5 198t157.5 72q88 0 150 -69v247h64zM122 259q0 -98 45 -154t122 -56q39 0 75 19t58 46v292q-22 29 -57.5 48t-75.5 19q-77 0 -122 -57.5t-45 -156.5zM570 527l21 69q-43 4 -43 44q0 48 44 48 q24 0 37 -14.5t13 -38.5q0 -58 -37 -122z" />
<glyph unicode="&#x110;" horiz-adv-x="678" d="M98 361v319h225q133 -1 216 -90.5t83 -250.5q0 -160 -83.5 -249.5t-215.5 -89.5h-225v322h-54v39h54zM163 59h153q109 0 174.5 73.5t65.5 206.5q0 135 -65.5 208.5t-174.5 73.5h-153v-260h146v-39h-146v-263z" />
<glyph unicode="&#x111;" horiz-adv-x="570" d="M486 710v-76h88v-39h-88v-595h-64v61q-59 -71 -150 -71q-98 0 -157 73t-59 199t58.5 198t157.5 72q88 0 150 -69v132h-113v39h113v76h64zM122 259q0 -98 45 -154t122 -56q39 0 75 19t58 46v292q-22 29 -57.5 48t-75.5 19q-77 0 -122 -57.5t-45 -156.5z" />
<glyph unicode="&#x112;" horiz-adv-x="588" d="M535 0h-442v680h442v-59h-378v-237h316v-59h-316v-266h378v-59zM418 794h-205v49h205v-49z" />
<glyph unicode="&#x113;" horiz-adv-x="538" d="M473 238h-355q3 -91 47 -143t134 -52q80 0 151 62l27 -51q-76 -68 -186 -68q-119 0 -177.5 74.5t-58.5 199.5q0 122 63 199.5t169 77.5q98 0 147 -60.5t49 -154.5q0 -44 -10 -84zM121 291h299q4 24 4 39q0 66 -35.5 108t-101.5 42q-75 0 -119 -52t-47 -137zM389 637h-205 v49h205v-49z" />
<glyph unicode="&#x114;" horiz-adv-x="588" d="M535 0h-442v680h442v-59h-378v-237h316v-59h-316v-266h378v-59zM201 845l22 29q35 -56 92 -56q58 0 92 56l21 -29q-38 -74 -113 -74q-40 0 -69 22t-45 52z" />
<glyph unicode="&#x115;" horiz-adv-x="538" d="M473 238h-355q3 -91 47 -143t134 -52q80 0 151 62l27 -51q-76 -68 -186 -68q-119 0 -177.5 74.5t-58.5 199.5q0 122 63 199.5t169 77.5q98 0 147 -60.5t49 -154.5q0 -44 -10 -84zM121 291h299q4 24 4 39q0 66 -35.5 108t-101.5 42q-75 0 -119 -52t-47 -137zM177 688 l22 29q35 -56 92 -56q58 0 92 56l21 -29q-38 -74 -113 -74q-40 0 -69 22t-45 52z" />
<glyph unicode="&#x116;" horiz-adv-x="588" d="M535 0h-442v680h442v-59h-378v-237h316v-59h-316v-266h378v-59zM272 829q0 43 43 43q41 0 41 -43q0 -42 -41 -42q-43 0 -43 42z" />
<glyph unicode="&#x117;" horiz-adv-x="538" d="M473 238h-355q3 -91 47 -143t134 -52q80 0 151 62l27 -51q-76 -68 -186 -68q-119 0 -177.5 74.5t-58.5 199.5q0 122 63 199.5t169 77.5q98 0 147 -60.5t49 -154.5q0 -44 -10 -84zM121 291h299q4 24 4 39q0 66 -35.5 108t-101.5 42q-75 0 -119 -52t-47 -137zM248 672 q0 43 43 43q41 0 41 -43q0 -42 -41 -42q-43 0 -43 42z" />
<glyph unicode="&#x118;" horiz-adv-x="588" d="M535 0h-8q-34 -2 -58 -22.5t-24 -54.5q0 -28 15.5 -43.5t38.5 -15.5q27 0 49 15l7 -36q-32 -16 -64 -16q-36 0 -59 23.5t-23 65.5q0 58 51 84h-367v680h442v-59h-378v-237h316v-59h-316v-266h378v-59z" />
<glyph unicode="&#x119;" horiz-adv-x="540" d="M473 238h-355q3 -91 47 -143t134 -52q80 0 151 62l27 -51q-60 -54 -142 -65q-41 -21 -41 -66q0 -28 15.5 -43.5t38.5 -15.5q27 0 49 15l7 -36q-32 -16 -64 -16q-36 0 -59 23.5t-23 65.5t31 70q-118 1 -176 75t-58 199q0 122 63 199.5t169 77.5q98 0 147 -60.5t49 -154.5 q0 -44 -10 -84zM121 291h299q4 24 4 39q0 66 -35.5 108t-101.5 42q-75 0 -119 -52t-47 -137z" />
<glyph unicode="&#x11a;" horiz-adv-x="588" d="M535 0h-442v680h442v-59h-378v-237h316v-59h-316v-266h378v-59zM245 898l70 -99l69 99h55l-91 -137h-66l-92 137h55z" />
<glyph unicode="&#x11b;" horiz-adv-x="538" d="M473 238h-355q3 -91 47 -143t134 -52q80 0 151 62l27 -51q-76 -68 -186 -68q-119 0 -177.5 74.5t-58.5 199.5q0 122 63 199.5t169 77.5q98 0 147 -60.5t49 -154.5q0 -44 -10 -84zM121 291h299q4 24 4 39q0 66 -35.5 108t-101.5 42q-75 0 -119 -52t-47 -137zM219 741 l70 -99l69 99h55l-91 -137h-66l-92 137h55z" />
<glyph unicode="&#x11c;" horiz-adv-x="667" d="M582 599l-31 -51q-82 80 -181 80q-109 0 -178.5 -77.5t-69.5 -211.5t69.5 -210.5t175.5 -76.5q105 0 175 58v190h-204v59h266v-286q-42 -35 -109 -59t-132 -24q-132 0 -220 94.5t-88 254.5q0 161 88 256t220 95q126 0 219 -91zM432 761l-70 99l-69 -99h-55l92 137h66 l91 -137h-55z" />
<glyph unicode="&#x11d;" horiz-adv-x="570" d="M57 280q0 113 58.5 182.5t155.5 69.5q92 0 150 -67v58h65v-500q0 -110 -57 -165.5t-147 -55.5q-13 0 -26.5 1t-24 2.5t-22 5t-19.5 5.5t-18.5 6.5t-15.5 6.5t-15 7.5t-12.5 6.5t-11.5 7l-9 5l16 59q77 -55 151 -55q64 0 105 38t41 119v83q-60 -69 -150 -69q-96 0 -155 69 t-59 181zM122 280q0 -87 45.5 -139.5t122.5 -52.5q73 0 131 69v245q-58 71 -130 71q-77 0 -123 -52.5t-46 -140.5zM361 604l-70 99l-69 -99h-55l92 137h66l91 -137h-55z" />
<glyph unicode="&#x11e;" horiz-adv-x="667" d="M582 599l-31 -51q-82 80 -181 80q-109 0 -178.5 -77.5t-69.5 -211.5t69.5 -210.5t175.5 -76.5q105 0 175 58v190h-204v59h266v-286q-42 -35 -109 -59t-132 -24q-132 0 -220 94.5t-88 254.5q0 161 88 256t220 95q126 0 219 -91zM252 845l22 29q35 -56 92 -56q58 0 92 56 l21 -29q-38 -74 -113 -74q-40 0 -69 22t-45 52z" />
<glyph unicode="&#x11f;" horiz-adv-x="570" d="M57 280q0 113 58.5 182.5t155.5 69.5q92 0 150 -67v58h65v-500q0 -110 -57 -165.5t-147 -55.5q-13 0 -26.5 1t-24 2.5t-22 5t-19.5 5.5t-18.5 6.5t-15.5 6.5t-15 7.5t-12.5 6.5t-11.5 7l-9 5l16 59q77 -55 151 -55q64 0 105 38t41 119v83q-60 -69 -150 -69q-96 0 -155 69 t-59 181zM122 280q0 -87 45.5 -139.5t122.5 -52.5q73 0 131 69v245q-58 71 -130 71q-77 0 -123 -52.5t-46 -140.5zM181 688l22 29q35 -56 92 -56q58 0 92 56l21 -29q-38 -74 -113 -74q-40 0 -69 22t-45 52z" />
<glyph unicode="&#x120;" horiz-adv-x="667" d="M582 599l-31 -51q-82 80 -181 80q-109 0 -178.5 -77.5t-69.5 -211.5t69.5 -210.5t175.5 -76.5q105 0 175 58v190h-204v59h266v-286q-42 -35 -109 -59t-132 -24q-132 0 -220 94.5t-88 254.5q0 161 88 256t220 95q126 0 219 -91zM319 829q0 43 43 43q41 0 41 -43 q0 -42 -41 -42q-43 0 -43 42z" />
<glyph unicode="&#x121;" horiz-adv-x="570" d="M57 280q0 113 58.5 182.5t155.5 69.5q92 0 150 -67v58h65v-500q0 -110 -57 -165.5t-147 -55.5q-13 0 -26.5 1t-24 2.5t-22 5t-19.5 5.5t-18.5 6.5t-15.5 6.5t-15 7.5t-12.5 6.5t-11.5 7l-9 5l16 59q77 -55 151 -55q64 0 105 38t41 119v83q-60 -69 -150 -69q-96 0 -155 69 t-59 181zM122 280q0 -87 45.5 -139.5t122.5 -52.5q73 0 131 69v245q-58 71 -130 71q-77 0 -123 -52.5t-46 -140.5zM258 672q0 43 43 43q41 0 41 -43q0 -42 -41 -42q-43 0 -43 42z" />
<glyph unicode="&#x122;" horiz-adv-x="667" d="M582 599l-31 -51q-82 80 -181 80q-109 0 -178.5 -77.5t-69.5 -211.5t69.5 -210.5t175.5 -76.5q105 0 175 58v190h-204v59h266v-286q-42 -35 -109 -59t-132 -24q-132 0 -220 94.5t-88 254.5q0 161 88 256t220 95q126 0 219 -91zM335 -231l21 69q-43 4 -43 44q0 48 44 48 q24 0 37 -14.5t13 -38.5q0 -58 -37 -122z" />
<glyph unicode="&#x123;" horiz-adv-x="570" d="M57 280q0 113 58.5 182.5t155.5 69.5q92 0 150 -67v58h65v-500q0 -110 -57 -165.5t-147 -55.5q-13 0 -26.5 1t-24 2.5t-22 5t-19.5 5.5t-18.5 6.5t-15.5 6.5t-15 7.5t-12.5 6.5t-11.5 7l-9 5l16 59q77 -55 151 -55q64 0 105 38t41 119v83q-60 -69 -150 -69q-96 0 -155 69 t-59 181zM122 280q0 -87 45.5 -139.5t122.5 -52.5q73 0 131 69v245q-58 71 -130 71q-77 0 -123 -52.5t-46 -140.5zM324 766l-20 -70q21 -1 32 -13.5t11 -30.5q0 -23 -12 -35.5t-32 -12.5q-24 0 -37 14.5t-13 38.5q0 62 36 123z" />
<glyph unicode="&#x124;" horiz-adv-x="713" d="M555 0v312h-396v-312h-66v680h66v-309h396v309h65v-680h-65zM426 761l-70 99l-69 -99h-55l92 137h66l91 -137h-55z" />
<glyph unicode="&#x125;" horiz-adv-x="576" d="M496 0h-64v316q0 155 -133 155q-56 0 -95.5 -35t-55.5 -89v-347h-64v710h64v-275q53 97 173 97q87 0 131 -53t44 -152v-327zM368 753l-70 99l-69 -99h-55l92 137h66l91 -137h-55z" />
<glyph unicode="&#x126;" horiz-adv-x="721" d="M558 0v312h-396v-312h-65v504h-38v39h38v137h65v-137h396v137h66v-137h43v-39h-43v-504h-66zM162 371h396v133h-396v-133z" />
<glyph unicode="&#x127;" horiz-adv-x="576" d="M496 0h-64v316q0 155 -133 155q-56 0 -95.5 -35t-55.5 -89v-347h-64v595h-69v39h69v76h64v-76h132v-39h-132v-160q53 97 173 97q87 0 131 -53t44 -152v-327z" />
<glyph unicode="&#x128;" horiz-adv-x="252" d="M93 0v680h66v-680h-66zM5 784l-23 29q12 28 34.5 48.5t48.5 20.5q29 0 66.5 -34t56.5 -34q39 0 59 50l24 -29q-32 -69 -83 -69q-28 0 -66.5 34t-56.5 34q-36 0 -60 -50z" />
<glyph unicode="&#x129;" horiz-adv-x="232" d="M-5 627l-23 29q12 28 34.5 48.5t48.5 20.5q29 0 66.5 -34t56.5 -34q39 0 59 50l24 -29q-32 -69 -83 -69q-28 0 -66.5 34t-56.5 34q-36 0 -60 -50zM148 0h-64v523h64v-523z" />
<glyph unicode="&#x12a;" horiz-adv-x="252" d="M93 0v680h66v-680h-66zM229 794h-205v49h205v-49z" />
<glyph unicode="&#x12b;" horiz-adv-x="232" d="M218 637h-205v49h205v-49zM148 0h-64v523h64v-523z" />
<glyph unicode="&#x12c;" horiz-adv-x="252" d="M93 0v680h66v-680h-66zM12 845l22 29q35 -56 92 -56q58 0 92 56l21 -29q-38 -74 -113 -74q-40 0 -69 22t-45 52z" />
<glyph unicode="&#x12d;" horiz-adv-x="232" d="M2 688l22 29q35 -56 92 -56q58 0 92 56l21 -29q-38 -74 -113 -74q-40 0 -69 22t-45 52zM148 0h-64v523h64v-523z" />
<glyph unicode="&#x12e;" horiz-adv-x="253" d="M160 0h-11q-36 -2 -61 -22.5t-25 -54.5q0 -28 15.5 -43.5t38.5 -15.5q27 0 49 15l7 -36q-32 -16 -64 -16q-36 0 -59 23.5t-23 65.5q0 35 19.5 58.5t47.5 32.5v673h66v-680z" />
<glyph unicode="&#x12f;" horiz-adv-x="234" d="M150 0h-12q-34 -2 -58 -22.5t-24 -54.5q0 -28 15.5 -43.5t38.5 -15.5q27 0 49 15l7 -36q-32 -16 -64 -16q-36 0 -59 23.5t-23 65.5q0 34 19.5 58t46.5 32v517h64v-523zM75 672q0 43 44 43q41 0 41 -43q0 -42 -41 -42q-44 0 -44 42z" />
<glyph unicode="&#x130;" horiz-adv-x="252" d="M93 0v680h66v-680h-66zM84 829q0 43 43 43q41 0 41 -43q0 -42 -41 -42q-43 0 -43 42z" />
<glyph unicode="&#x131;" horiz-adv-x="232" d="M148 0h-64v523h64v-523z" />
<glyph unicode="&#x132;" horiz-adv-x="824" d="M93 0v680h66v-680h-66zM292 225l63 6q5 -93 43.5 -137.5t114.5 -44.5q158 0 158 188v443h66v-442q0 -116 -58.5 -183t-166.5 -67q-104 0 -159.5 61t-60.5 176z" />
<glyph unicode="&#x133;" horiz-adv-x="505" d="M73 672q0 43 44 43q41 0 41 -43q0 -42 -41 -42q-44 0 -44 42zM148 0h-64v523h64v-523zM311 -197l-37 45q43 27 62.5 61.5t19.5 93.5v520h64v-518q0 -77 -27.5 -124.5t-81.5 -77.5zM346 672q0 43 43 43q41 0 41 -43q0 -42 -41 -42q-43 0 -43 42z" />
<glyph unicode="&#x134;" horiz-adv-x="559" d="M27 225l63 6q5 -93 43.5 -137.5t114.5 -44.5q158 0 158 188v443h66v-442q0 -116 -58.5 -183t-166.5 -67q-104 0 -159.5 61t-60.5 176zM508 761l-70 99l-69 -99h-55l92 137h66l91 -137h-55z" />
<glyph unicode="&#x135;" horiz-adv-x="232" d="M38 -197l-36 41q42 27 62 62.5t20 94.5v522h64v-518q0 -140 -110 -202zM183 604l-70 99l-69 -99h-55l92 137h66l91 -137h-55z" />
<glyph unicode="&#x136;" horiz-adv-x="587" d="M93 0v680h66v-316h69l250 316h69v-10l-265 -336l290 -325v-9h-79l-268 305h-66v-305h-66zM274 -231l21 69q-43 4 -43 44q0 48 44 48q24 0 37 -14.5t13 -38.5q0 -58 -37 -122z" />
<glyph unicode="&#x137;" horiz-adv-x="488" d="M447 523v-11l-235 -235l247 -266v-11h-78l-233 257v-257h-64v710h64v-416l225 229h74zM233 -231l21 69q-43 4 -43 44q0 48 44 48q24 0 37 -14.5t13 -38.5q0 -58 -37 -122z" />
<glyph unicode="&#x138;" horiz-adv-x="488" d="M447 523v-11l-235 -251l247 -250v-11h-78l-233 241v-241h-64v522h64v-245l225 246h74z" />
<glyph unicode="&#x139;" horiz-adv-x="506" d="M488 0h-395v680h66v-621h329v-59zM230 898l-78 -137h-58l70 137h66z" />
<glyph unicode="&#x13a;" horiz-adv-x="280" d="M88 710h65v-596q0 -37 11.5 -52t36.5 -15q28 0 59 21l7 -52q-38 -26 -87 -26q-46 0 -69 25.5t-23 84.5v610zM218 890l-78 -137h-58l70 137h66z" />
<glyph unicode="&#x13b;" horiz-adv-x="506" d="M488 0h-395v680h66v-621h329v-59zM265 -231l21 69q-43 4 -43 44q0 48 44 48q24 0 37 -14.5t13 -38.5q0 -58 -37 -122z" />
<glyph unicode="&#x13c;" horiz-adv-x="280" d="M88 710h65v-596q0 -37 11.5 -52t36.5 -15q28 0 59 21l7 -52q-38 -26 -87 -26q-46 0 -69 25.5t-23 84.5v610zM144 -231l21 69q-43 4 -43 44q0 48 44 48q24 0 37 -14.5t13 -38.5q0 -58 -37 -122z" />
<glyph unicode="&#x13d;" horiz-adv-x="510" d="M488 0h-395v680h66v-621h329v-59zM368 528l21 69q-43 4 -43 44q0 48 44 48q24 0 37 -14.5t13 -38.5q0 -58 -37 -122z" />
<glyph unicode="&#x13e;" horiz-adv-x="299" d="M88 710h65v-596q0 -37 11.5 -52t36.5 -15q28 0 59 21l7 -52q-38 -26 -87 -26q-46 0 -69 25.5t-23 84.5v610zM236 527l21 69q-43 4 -43 44q0 48 44 48q24 0 37 -14.5t13 -38.5q0 -58 -37 -122z" />
<glyph unicode="&#x13f;" horiz-adv-x="515" d="M488 0h-395v680h66v-621h329v-59zM295 364q0 53 47 53q49 0 49 -53t-49 -53q-47 0 -47 53z" />
<glyph unicode="&#x140;" horiz-adv-x="315" d="M88 710h65v-596q0 -37 11.5 -52t36.5 -15q28 0 59 21l7 -52q-38 -26 -87 -26q-46 0 -69 25.5t-23 84.5v610zM230 364q0 53 47 53q49 0 49 -53t-49 -53q-47 0 -47 53z" />
<glyph unicode="&#x141;" horiz-adv-x="511" d="M492 0h-394v280l-45 -26v57l45 26v343h65v-304l119 70v-56l-119 -71v-260h329v-59z" />
<glyph unicode="&#x142;" horiz-adv-x="285" d="M92 710h65v-289l76 44v-56l-76 -45v-250q0 -37 11.5 -52t36.5 -15q28 0 59 21l7 -52q-38 -26 -87 -26q-46 0 -69 25.5t-23 84.5v226l-43 -25v57l43 25v327z" />
<glyph unicode="&#x143;" horiz-adv-x="711" d="M559 0l-401 570v-570h-65v680h58l401 -572v572h66v-680h-59zM460 898l-78 -137h-58l70 137h66z" />
<glyph unicode="&#x144;" horiz-adv-x="576" d="M496 0h-64v316q0 155 -132 155q-57 0 -96.5 -35t-55.5 -89v-347h-64v523h64v-88q53 97 173 97q87 0 131 -53t44 -152v-327zM387 741l-78 -137h-58l70 137h66z" />
<glyph unicode="&#x145;" horiz-adv-x="711" d="M559 0l-401 570v-570h-65v680h58l401 -572v572h66v-680h-59zM324 -231l21 69q-43 4 -43 44q0 48 44 48q24 0 37 -14.5t13 -38.5q0 -58 -37 -122z" />
<glyph unicode="&#x146;" horiz-adv-x="576" d="M496 0h-64v316q0 155 -132 155q-57 0 -96.5 -35t-55.5 -89v-347h-64v523h64v-88q53 97 173 97q87 0 131 -53t44 -152v-327zM272 -231l21 69q-43 4 -43 44q0 48 44 48q24 0 37 -14.5t13 -38.5q0 -58 -37 -122z" />
<glyph unicode="&#x147;" horiz-adv-x="711" d="M559 0l-401 570v-570h-65v680h58l401 -572v572h66v-680h-59zM295 898l70 -99l69 99h55l-91 -137h-66l-92 137h55z" />
<glyph unicode="&#x148;" horiz-adv-x="576" d="M496 0h-64v316q0 155 -132 155q-57 0 -96.5 -35t-55.5 -89v-347h-64v523h64v-88q53 97 173 97q87 0 131 -53t44 -152v-327zM225 741l70 -99l69 99h55l-91 -137h-66l-92 137h55z" />
<glyph unicode="&#x149;" horiz-adv-x="646" d="M566 0h-64v316q0 155 -132 155q-57 0 -96.5 -35t-55.5 -89v-347h-64v523h64v-88q53 97 173 97q87 0 131 -53t44 -152v-327zM45 530l21 69q-43 4 -43 44q0 48 44 48q24 0 37 -14.5t13 -38.5q0 -58 -37 -122z" />
<glyph unicode="&#x14a;" horiz-adv-x="709" d="M552 14l-394 559v-573h-65v680h57l402 -572v572h64v-659q0 -152 -118 -217l-36 41q90 60 90 169z" />
<glyph unicode="&#x14b;" horiz-adv-x="576" d="M496 327v-308q0 -151 -118 -215l-37 42q44 29 67.5 68t23.5 104v298q0 155 -132 155q-57 0 -96.5 -35t-55.5 -89v-347h-64v523h64v-88q53 97 173 97q87 0 131 -53t44 -152z" />
<glyph unicode="&#x14c;" horiz-adv-x="705" d="M55 339q0 157 83 254t214 97q132 0 215 -97t83 -254q0 -155 -83 -252t-215 -97q-131 0 -214 97t-83 252zM120 339q0 -133 64.5 -209.5t167.5 -76.5t168 77t65 209q0 134 -65 211t-168 77t-167.5 -77t-64.5 -211zM455 794h-205v49h205v-49z" />
<glyph unicode="&#x14d;" horiz-adv-x="582" d="M55 260q0 127 64.5 202t170.5 75q107 0 172.5 -75t65.5 -202q0 -126 -65.5 -200t-172.5 -74q-106 0 -170.5 74t-64.5 200zM118 260q0 -99 47.5 -156t124.5 -57q79 0 126 57t47 156q0 100 -47 158t-126 58q-78 0 -125 -58t-47 -158zM394 637h-205v49h205v-49z" />
<glyph unicode="&#x14e;" horiz-adv-x="705" d="M55 339q0 157 83 254t214 97q132 0 215 -97t83 -254q0 -155 -83 -252t-215 -97q-131 0 -214 97t-83 252zM120 339q0 -133 64.5 -209.5t167.5 -76.5t168 77t65 209q0 134 -65 211t-168 77t-167.5 -77t-64.5 -211zM239 845l22 29q35 -56 92 -56q58 0 92 56l21 -29 q-38 -74 -113 -74q-40 0 -69 22t-45 52z" />
<glyph unicode="&#x14f;" horiz-adv-x="582" d="M55 260q0 127 64.5 202t170.5 75q107 0 172.5 -75t65.5 -202q0 -126 -65.5 -200t-172.5 -74q-106 0 -170.5 74t-64.5 200zM118 260q0 -99 47.5 -156t124.5 -57q79 0 126 57t47 156q0 100 -47 158t-126 58q-78 0 -125 -58t-47 -158zM178 688l22 29q35 -56 92 -56 q58 0 92 56l21 -29q-38 -74 -113 -74q-40 0 -69 22t-45 52z" />
<glyph unicode="&#x150;" horiz-adv-x="705" d="M55 339q0 157 83 254t214 97q132 0 215 -97t83 -254q0 -155 -83 -252t-215 -97q-131 0 -214 97t-83 252zM120 339q0 -133 64.5 -209.5t167.5 -76.5t168 77t65 209q0 134 -65 211t-168 77t-167.5 -77t-64.5 -211zM397 898l-78 -137h-58l70 137h66zM544 898l-78 -137h-58 l70 137h66z" />
<glyph unicode="&#x151;" horiz-adv-x="582" d="M55 260q0 127 64.5 202t170.5 75q107 0 172.5 -75t65.5 -202q0 -126 -65.5 -200t-172.5 -74q-106 0 -170.5 74t-64.5 200zM118 260q0 -99 47.5 -156t124.5 -57q79 0 126 57t47 156q0 100 -47 158t-126 58q-78 0 -125 -58t-47 -158zM325 741l-78 -137h-58l70 137h66z M472 741l-78 -137h-58l70 137h66z" />
<glyph unicode="&#x152;" horiz-adv-x="1020" d="M966 0h-441v53q-74 -63 -175 -63q-127 0 -211 100t-84 249q0 151 84 251t211 100q102 0 175 -64v54h441v-59h-378v-239h316v-55h-316v-268h378v-59zM117 339q0 -123 67 -205t169 -82q109 0 172 75v425q-63 75 -172 75q-102 0 -169 -82t-67 -206z" />
<glyph unicode="&#x153;" horiz-adv-x="966" d="M901 240h-358q1 -92 47 -146t134 -54q81 0 154 63l25 -48q-77 -69 -182 -69q-174 0 -217 159q-23 -75 -80 -117t-135 -42q-105 0 -169.5 74t-64.5 200q0 127 64.5 202t169.5 75q79 0 136 -43.5t80 -120.5q22 75 77 119.5t132 44.5q97 0 146.5 -61t49.5 -157q0 -39 -9 -79 zM117 260q0 -98 47.5 -155.5t125.5 -57.5q79 0 127 57t48 156q0 100 -48 158t-127 58q-78 0 -125.5 -58t-47.5 -158zM546 289h305q4 26 4 40q0 65 -37 110.5t-103 45.5q-77 0 -122 -53.5t-47 -142.5z" />
<glyph unicode="&#x154;" horiz-adv-x="606" d="M93 0v680h253q87 0 145.5 -57t58.5 -158q0 -90 -54 -146.5t-134 -62.5l213 -246v-10h-75l-217 256h-124v-256h-66zM331 621h-172v-311h172q66 0 109 41t43 114q0 76 -43 116t-109 40zM393 898l-78 -137h-58l70 137h66z" />
<glyph unicode="&#x155;" horiz-adv-x="381" d="M149 0h-65v523h65v-93q38 102 126 102q50 0 84 -31l-15 -58q-36 28 -75 28q-83 0 -120 -131v-340zM292 741l-78 -137h-58l70 137h66z" />
<glyph unicode="&#x156;" horiz-adv-x="606" d="M93 0v680h253q87 0 145.5 -57t58.5 -158q0 -90 -54 -146.5t-134 -62.5l213 -246v-10h-75l-217 256h-124v-256h-66zM331 621h-172v-311h172q66 0 109 41t43 114q0 76 -43 116t-109 40zM282 -231l21 69q-43 4 -43 44q0 48 44 48q24 0 37 -14.5t13 -38.5q0 -58 -37 -122z " />
<glyph unicode="&#x157;" horiz-adv-x="381" d="M149 0h-65v523h65v-93q38 102 126 102q50 0 84 -31l-15 -58q-36 28 -75 28q-83 0 -120 -131v-340zM92 -231l21 69q-43 4 -43 44q0 48 44 48q24 0 37 -14.5t13 -38.5q0 -58 -37 -122z" />
<glyph unicode="&#x158;" horiz-adv-x="606" d="M93 0v680h253q87 0 145.5 -57t58.5 -158q0 -90 -54 -146.5t-134 -62.5l213 -246v-10h-75l-217 256h-124v-256h-66zM331 621h-172v-311h172q66 0 109 41t43 114q0 76 -43 116t-109 40zM216 898l70 -99l69 99h55l-91 -137h-66l-92 137h55z" />
<glyph unicode="&#x159;" horiz-adv-x="381" d="M149 0h-65v523h65v-93q38 102 126 102q50 0 84 -31l-15 -58q-36 28 -75 28q-83 0 -120 -131v-340zM142 741l70 -99l69 99h55l-91 -137h-66l-92 137h55z" />
<glyph unicode="&#x15a;" horiz-adv-x="538" d="M50 46l16 64q33 -22 85.5 -40.5t101.5 -18.5q72 0 120 36t48 98q0 90 -113 121l-113 31q-138 39 -138 164q0 78 56.5 133t163.5 55q54 0 107.5 -15t88.5 -37l-20 -59q-31 20 -80.5 35t-93.5 15q-78 0 -118 -35.5t-40 -89.5q0 -42 24.5 -67.5t74.5 -40.5l112 -33 q79 -23 117.5 -64.5t38.5 -109.5q0 -89 -64.5 -143.5t-168.5 -54.5q-57 0 -115 17.5t-90 38.5zM378 898l-78 -137h-58l70 137h66z" />
<glyph unicode="&#x15b;" horiz-adv-x="455" d="M392 496l-17 -57q-66 36 -139 36q-54 0 -84 -24t-30 -63q0 -35 21 -52.5t68 -31.5l68 -21q127 -38 127 -137q0 -66 -51.5 -111t-134.5 -45q-93 0 -168 42l15 59q72 -45 151 -45q55 0 89 27t34 68q0 35 -23.5 55.5t-68.5 34.5l-67 20q-64 19 -95 50t-31 86q0 63 47.5 104 t129.5 41q40 0 86.5 -11t72.5 -25zM326 741l-78 -137h-58l70 137h66z" />
<glyph unicode="&#x15c;" horiz-adv-x="538" d="M50 46l16 64q33 -22 85.5 -40.5t101.5 -18.5q72 0 120 36t48 98q0 90 -113 121l-113 31q-138 39 -138 164q0 78 56.5 133t163.5 55q54 0 107.5 -15t88.5 -37l-20 -59q-31 20 -80.5 35t-93.5 15q-78 0 -118 -35.5t-40 -89.5q0 -42 24.5 -67.5t74.5 -40.5l112 -33 q79 -23 117.5 -64.5t38.5 -109.5q0 -89 -64.5 -143.5t-168.5 -54.5q-57 0 -115 17.5t-90 38.5zM338 761l-70 99l-69 -99h-55l92 137h66l91 -137h-55z" />
<glyph unicode="&#x15d;" horiz-adv-x="455" d="M392 496l-17 -57q-66 36 -139 36q-54 0 -84 -24t-30 -63q0 -35 21 -52.5t68 -31.5l68 -21q127 -38 127 -137q0 -66 -51.5 -111t-134.5 -45q-93 0 -168 42l15 59q72 -45 151 -45q55 0 89 27t34 68q0 35 -23.5 55.5t-68.5 34.5l-67 20q-64 19 -95 50t-31 86q0 63 47.5 104 t129.5 41q40 0 86.5 -11t72.5 -25zM299 604l-70 99l-69 -99h-55l92 137h66l91 -137h-55z" />
<glyph unicode="&#x15e;" horiz-adv-x="538" d="M215 -96l19 87q-52 3 -103.5 19.5t-80.5 35.5l16 64q33 -22 85.5 -40.5t101.5 -18.5q72 0 120 36t48 98q0 90 -113 121l-113 31q-138 39 -138 164q0 78 56.5 133t163.5 55q54 0 107.5 -15t88.5 -37l-20 -59q-31 20 -80.5 35t-93.5 15q-78 0 -118 -35.5t-40 -89.5 q0 -42 24.5 -67.5t74.5 -40.5l112 -33q79 -23 117.5 -64.5t38.5 -109.5q0 -87 -61.5 -141t-161.5 -57l-12 -57q14 4 27 4q33 0 52.5 -17.5t19.5 -45.5q0 -34 -24.5 -53t-62.5 -19q-31 0 -63 12l8 29q29 -11 53 -11q53 0 53 41q0 35 -47 35q-31 0 -52 -8z" />
<glyph unicode="&#x15f;" horiz-adv-x="456" d="M178 -96l19 87q-82 5 -145 41l15 59q72 -45 151 -45q55 0 89 27t34 68q0 35 -23.5 55.5t-68.5 34.5l-67 20q-64 19 -95 50t-31 86q0 63 47.5 104t129.5 41q40 0 86.5 -11t72.5 -25l-17 -57q-66 36 -139 36q-54 0 -84 -24t-30 -63q0 -35 21 -52.5t68 -31.5l68 -21 q127 -38 127 -137q0 -64 -49 -108.5t-129 -47.5l-12 -57q14 4 27 4q33 0 52.5 -17.5t19.5 -45.5q0 -34 -24.5 -53t-62.5 -19q-31 0 -63 12l8 29q29 -11 53 -11q53 0 53 41q0 35 -47 35q-31 0 -52 -8z" />
<glyph unicode="&#x160;" horiz-adv-x="538" d="M50 46l16 64q33 -22 85.5 -40.5t101.5 -18.5q72 0 120 36t48 98q0 90 -113 121l-113 31q-138 39 -138 164q0 78 56.5 133t163.5 55q54 0 107.5 -15t88.5 -37l-20 -59q-31 20 -80.5 35t-93.5 15q-78 0 -118 -35.5t-40 -89.5q0 -42 24.5 -67.5t74.5 -40.5l112 -33 q79 -23 117.5 -64.5t38.5 -109.5q0 -89 -64.5 -143.5t-168.5 -54.5q-57 0 -115 17.5t-90 38.5zM193 898l70 -99l69 99h55l-91 -137h-66l-92 137h55z" />
<glyph unicode="&#x161;" horiz-adv-x="455" d="M392 496l-17 -57q-66 36 -139 36q-54 0 -84 -24t-30 -63q0 -35 21 -52.5t68 -31.5l68 -21q127 -38 127 -137q0 -66 -51.5 -111t-134.5 -45q-93 0 -168 42l15 59q72 -45 151 -45q55 0 89 27t34 68q0 35 -23.5 55.5t-68.5 34.5l-67 20q-64 19 -95 50t-31 86q0 63 47.5 104 t129.5 41q40 0 86.5 -11t72.5 -25zM161 741l70 -99l69 99h55l-91 -137h-66l-92 137h55z" />
<glyph unicode="&#x162;" horiz-adv-x="531" d="M513 621h-208v-621h-21l-14 -67q14 4 27 4q33 0 52.5 -17.5t19.5 -45.5q0 -34 -24.5 -53t-62.5 -19q-31 0 -63 12l8 29q29 -11 53 -11q53 0 53 41q0 35 -47 35q-31 0 -52 -8l-2 4l21 96h-14v621h-219v59h493v-59z" />
<glyph unicode="&#x163;" horiz-adv-x="415" d="M197 -96l20 90q-95 18 -95 142v333h-86v54h90l7 133h54v-133h182v-54h-182v-326q0 -95 81 -95q56 0 105 40l19 -53q-66 -45 -138 -45h-7l-12 -57q14 4 27 4q33 0 52.5 -17.5t19.5 -45.5q0 -34 -24.5 -53t-62.5 -19q-31 0 -63 12l8 29q29 -11 53 -11q53 0 53 41 q0 35 -47 35q-31 0 -52 -8z" />
<glyph unicode="&#x164;" horiz-adv-x="531" d="M513 621h-208v-621h-66v621h-219v59h493v-59zM203 898l70 -99l69 99h55l-91 -137h-66l-92 137h55z" />
<glyph unicode="&#x165;" horiz-adv-x="426" d="M186 469v-326q0 -95 81 -95q56 0 105 40l19 -53q-66 -45 -138 -45q-132 0 -132 146v333h-86v54h90l7 133h54v-133h182v-54h-182zM392 527l21 69q-43 4 -43 44q0 48 44 48q24 0 37 -14.5t13 -38.5q0 -58 -37 -122z" />
<glyph unicode="&#x166;" horiz-adv-x="531" d="M239 0v312h-98v39h98v270h-219v59h493v-59h-208v-270h101v-39h-101v-312h-66z" />
<glyph unicode="&#x167;" horiz-adv-x="417" d="M189 469v-175h127v-39h-127v-112q0 -95 81 -95q56 0 105 40l19 -51q-69 -47 -142 -47q-128 0 -128 146v119h-73v39h73v175h-86v54h90l7 133h54v-133h182v-54h-182z" />
<glyph unicode="&#x168;" horiz-adv-x="671" d="M152 680v-406q0 -105 45 -164.5t138 -59.5q92 0 138 62t46 163v405h66v-409q0 -123 -64 -203t-186 -80q-123 0 -186 76.5t-63 206.5v409h66zM214 784l-23 29q12 28 34.5 48.5t48.5 20.5q29 0 66.5 -34t56.5 -34q39 0 59 50l24 -29q-32 -69 -83 -69q-28 0 -66.5 34 t-56.5 34q-36 0 -60 -50z" />
<glyph unicode="&#x169;" horiz-adv-x="575" d="M79 523h65v-316q0 -155 131 -155q57 0 97 35t55 89v347h65v-523h-65v88q-52 -97 -172 -97q-87 0 -131.5 53t-44.5 152v327zM163 627l-23 29q12 28 34.5 48.5t48.5 20.5q29 0 66.5 -34t56.5 -34q39 0 59 50l24 -29q-32 -69 -83 -69q-28 0 -66.5 34t-56.5 34q-36 0 -60 -50 z" />
<glyph unicode="&#x16a;" horiz-adv-x="671" d="M152 680v-406q0 -105 45 -164.5t138 -59.5q92 0 138 62t46 163v405h66v-409q0 -123 -64 -203t-186 -80q-123 0 -186 76.5t-63 206.5v409h66zM437 794h-205v49h205v-49z" />
<glyph unicode="&#x16b;" horiz-adv-x="575" d="M79 523h65v-316q0 -155 131 -155q57 0 97 35t55 89v347h65v-523h-65v88q-52 -97 -172 -97q-87 0 -131.5 53t-44.5 152v327zM391 637h-205v49h205v-49z" />
<glyph unicode="&#x16c;" horiz-adv-x="671" d="M152 680v-406q0 -105 45 -164.5t138 -59.5q92 0 138 62t46 163v405h66v-409q0 -123 -64 -203t-186 -80q-123 0 -186 76.5t-63 206.5v409h66zM221 845l22 29q35 -56 92 -56q58 0 92 56l21 -29q-38 -74 -113 -74q-40 0 -69 22t-45 52z" />
<glyph unicode="&#x16d;" horiz-adv-x="575" d="M79 523h65v-316q0 -155 131 -155q57 0 97 35t55 89v347h65v-523h-65v88q-52 -97 -172 -97q-87 0 -131.5 53t-44.5 152v327zM173 688l22 29q35 -56 92 -56q58 0 92 56l21 -29q-38 -74 -113 -74q-40 0 -69 22t-45 52z" />
<glyph unicode="&#x16e;" horiz-adv-x="671" d="M152 680v-406q0 -105 45 -164.5t138 -59.5q92 0 138 62t46 163v405h66v-409q0 -123 -64 -203t-186 -80q-123 0 -186 76.5t-63 206.5v409h66zM241 787q0 41 28.5 69.5t69.5 28.5t69.5 -28.5t28.5 -69.5t-28.5 -69.5t-69.5 -28.5t-69.5 28.5t-28.5 69.5zM275 787 q0 -26 19 -45t45 -19t45 19t19 45t-19 45t-45 19t-45 -19t-19 -45z" />
<glyph unicode="&#x16f;" horiz-adv-x="575" d="M79 523h65v-316q0 -155 131 -155q57 0 97 35t55 89v347h65v-523h-65v88q-52 -97 -172 -97q-87 0 -131.5 53t-44.5 152v327zM193 670q0 40 28.5 69t69.5 29t69.5 -29t28.5 -69t-28.5 -69t-69.5 -29t-69.5 29t-28.5 69zM227 670q0 -26 19 -45t45 -19t45 19t19 45t-19 45 t-45 19t-45 -19t-19 -45z" />
<glyph unicode="&#x170;" horiz-adv-x="671" d="M152 680v-406q0 -105 45 -164.5t138 -59.5q92 0 138 62t46 163v405h66v-409q0 -123 -64 -203t-186 -80q-123 0 -186 76.5t-63 206.5v409h66zM366 898l-78 -137h-58l70 137h66zM513 898l-78 -137h-58l70 137h66z" />
<glyph unicode="&#x171;" horiz-adv-x="575" d="M79 523h65v-316q0 -155 131 -155q57 0 97 35t55 89v347h65v-523h-65v88q-52 -97 -172 -97q-87 0 -131.5 53t-44.5 152v327zM314 741l-78 -137h-58l70 137h66zM461 741l-78 -137h-58l70 137h66z" />
<glyph unicode="&#x172;" horiz-adv-x="671" d="M152 680v-406q0 -105 45 -164.5t138 -59.5q92 0 138 62t46 163v405h66v-409q0 -113 -54 -190.5t-158 -90.5q-44 -20 -44 -67q0 -28 15.5 -43.5t38.5 -15.5q27 0 49 15l7 -36q-32 -16 -64 -16q-36 0 -59 23.5t-23 65.5q0 44 33 72q-119 3 -179.5 79t-60.5 204v409h66z" />
<glyph unicode="&#x173;" horiz-adv-x="575" d="M79 523h65v-316q0 -155 131 -155q57 0 97 35t55 89v347h65v-523h-9q-36 -2 -61 -22.5t-25 -54.5q0 -28 15.5 -43.5t38.5 -15.5q27 0 49 15l7 -36q-32 -16 -64 -16q-36 0 -59 23.5t-23 65.5q0 34 19.5 58t46.5 32v82q-52 -97 -172 -97q-87 0 -131.5 53t-44.5 152v327z" />
<glyph unicode="&#x174;" horiz-adv-x="932" d="M592 0l-125 369l-134 -369h-70l-233 680h69l204 -606l135 372l-79 234h70l197 -597l212 597h70l-246 -680h-70zM536 761l-70 99l-69 -99h-55l92 137h66l91 -137h-55z" />
<glyph unicode="&#x175;" horiz-adv-x="858" d="M753 523h71l-174 -523h-81l-139 448l-144 -448h-81l-169 523h71l141 -457l143 457h79l138 -457zM499 604l-70 99l-69 -99h-55l92 137h66l91 -137h-55z" />
<glyph unicode="&#x176;" horiz-adv-x="593" d="M264 0v288l-240 386v6h73l200 -332l200 332h72v-6l-240 -385v-289h-65zM366 761l-70 99l-69 -99h-55l92 137h66l91 -137h-55z" />
<glyph unicode="&#x177;" horiz-adv-x="527" d="M22 -168l12 51q39 -25 86 -25q40 0 62.5 25t41.5 80l14 42l-213 518h72l171 -451l155 451h66l-207 -574q-27 -75 -62 -111t-97 -36q-57 0 -101 30zM333 604l-70 99l-69 -99h-55l92 137h66l91 -137h-55z" />
<glyph unicode="&#x178;" horiz-adv-x="593" d="M264 0v288l-240 386v6h73l200 -332l200 332h72v-6l-240 -385v-289h-65zM150 828q0 42 41 42q40 0 40 -42q0 -41 -40 -41q-41 0 -41 41zM363 828q0 42 42 42q39 0 39 -42q0 -41 -39 -41q-42 0 -42 41z" />
<glyph unicode="&#x179;" d="M46 50l345 571h-345v59h429v-50l-346 -571h346v-59h-429v50zM364 898l-78 -137h-58l70 137h66z" />
<glyph unicode="&#x17a;" horiz-adv-x="455" d="M50 50l274 419h-274v54h355v-50l-274 -419h274v-54h-355v50zM330 741l-78 -137h-58l70 137h66z" />
<glyph unicode="&#x17b;" d="M46 50l345 571h-345v59h429v-50l-346 -571h346v-59h-429v50zM223 829q0 43 43 43q41 0 41 -43q0 -42 -41 -42q-43 0 -43 42z" />
<glyph unicode="&#x17c;" horiz-adv-x="455" d="M50 50l274 419h-274v54h355v-50l-274 -419h274v-54h-355v50zM193 672q0 43 43 43q41 0 41 -43q0 -42 -41 -42q-43 0 -43 42z" />
<glyph unicode="&#x17d;" d="M46 50l345 571h-345v59h429v-50l-346 -571h346v-59h-429v50zM194 898l70 -99l69 99h55l-91 -137h-66l-92 137h55z" />
<glyph unicode="&#x17e;" horiz-adv-x="455" d="M50 50l274 419h-274v54h355v-50l-274 -419h274v-54h-355v50zM162 741l70 -99l69 99h55l-91 -137h-66l-92 137h55z" />
<glyph unicode="&#x192;" horiz-adv-x="447" d="M393 326h-136v-366q0 -73 -31 -115.5t-92 -42.5q-30 0 -57 14t-42 31l14 54q32 -39 71 -39q36 0 54 26t18 70v368h-132v44h132v194q0 73 30.5 114.5t91.5 41.5q29 0 56.5 -14t42.5 -31l-14 -54q-30 39 -71 39q-71 0 -71 -94v-196h136v-44z" />
<glyph unicode="&#x1fa;" horiz-adv-x="608" d="M24 0l238 659q-52 18 -52 74q0 38 26.5 58.5t70.5 20.5t70.5 -20.5t26.5 -58.5q0 -56 -53 -74l227 -659h-65l-56 166h-309l-59 -166h-65zM307 612l-140 -394h273zM243 733q0 -48 64 -48t64 48q0 47 -64 47t-64 -47zM372 907l-45 -73h-46l40 73h51z" />
<glyph unicode="&#x1fb;" horiz-adv-x="515" d="M436 0h-64v56q-66 -66 -159 -66q-77 0 -122.5 43t-45.5 116q0 92 65.5 138t171.5 46q45 0 90 -12v25q0 128 -126 128q-80 0 -143 -34l-13 55q74 37 165 37q87 0 134 -48.5t47 -139.5v-344zM111 155q0 -52 33 -81.5t87 -29.5q83 0 141 65v163q-38 12 -86 12 q-78 0 -126.5 -32t-48.5 -97zM166 657q0 38 27 59t71 21t71 -20.5t27 -59.5t-27 -59.5t-71 -20.5t-71 20.5t-27 59.5zM201 657q0 -48 63 -48q64 0 64 48q0 47 -64 47q-63 0 -63 -47zM330 832l-46 -74h-46l40 74h52z" />
<glyph unicode="&#x1fc;" horiz-adv-x="900" d="M406 0v166h-240l-88 -166h-70l364 680h475v-59h-379v-239h316v-55h-316v-268h379v-59h-441zM194 218h212v393zM693 898l-78 -137h-58l70 137h66z" />
<glyph unicode="&#x1fd;" horiz-adv-x="828" d="M763 240h-331q2 -95 40 -148.5t115 -53.5q81 0 150 65l26 -44q-78 -73 -180 -73q-66 0 -110.5 32.5t-63.5 80.5q-76 -109 -191 -109q-79 0 -126 42.5t-47 118.5q0 87 63.5 133.5t170.5 48.5q43 0 93 -12q2 76 -26.5 114.5t-101.5 38.5t-142 -33l-12 55q75 36 168 36 q132 0 158 -121q21 51 64 88.5t109 37.5q95 0 139.5 -59.5t44.5 -153.5q0 -48 -10 -84zM589 486q-72 0 -112 -60t-40 -137h277q4 24 4 41q0 68 -31.5 112t-97.5 44zM111 154q0 -51 34 -80.5t86 -29.5q48 0 86 26t55 60v141q-47 13 -83 13q-81 -1 -129.5 -32.5t-48.5 -97.5z M525 741l-78 -137h-58l70 137h66z" />
<glyph unicode="&#x1fe;" horiz-adv-x="705" d="M457 898l-78 -137h-58l70 137h66zM55 339q0 157 83 254t214 97q100 0 176 -60l35 50h49v-6l-51 -74q89 -99 89 -261q0 -155 -83 -252t-215 -97q-97 0 -172 56l-31 -46h-51v6l49 71q-92 97 -92 262zM120 339q0 -131 64 -209l308 448q-58 49 -140 49q-103 0 -167.5 -77 t-64.5 -211zM585 339q0 128 -62 206l-307 -447q59 -45 136 -45q103 0 168 77t65 209z" />
<glyph unicode="&#x1ff;" horiz-adv-x="582" d="M396 741l-78 -137h-58l70 137h66zM55 260q0 127 64.5 202t170.5 75q87 0 147 -51l25 36h38v-6l-38 -54q66 -75 66 -202q0 -126 -65.5 -200t-172.5 -74q-74 0 -131 38l-17 -24h-38v6l28 40q-77 75 -77 214zM118 260q0 -102 51 -161l232 335q-45 42 -111 42q-78 0 -125 -58 t-47 -158zM463 260q0 87 -39 146l-229 -330q40 -29 95 -29q79 0 126 57t47 156z" />
<glyph unicode="&#x218;" horiz-adv-x="538" d="M50 46l16 64q33 -22 85.5 -40.5t101.5 -18.5q72 0 120 36t48 98q0 90 -113 121l-113 31q-138 39 -138 164q0 78 56.5 133t163.5 55q54 0 107.5 -15t88.5 -37l-20 -59q-31 20 -80.5 35t-93.5 15q-78 0 -118 -35.5t-40 -89.5q0 -42 24.5 -67.5t74.5 -40.5l112 -33 q79 -23 117.5 -64.5t38.5 -109.5q0 -89 -64.5 -143.5t-168.5 -54.5q-57 0 -115 17.5t-90 38.5zM237 -231l21 69q-43 4 -43 44q0 48 44 48q24 0 37 -14.5t13 -38.5q0 -58 -37 -122z" />
<glyph unicode="&#x219;" horiz-adv-x="455" d="M392 496l-17 -57q-66 36 -139 36q-54 0 -84 -24t-30 -63q0 -35 21 -52.5t68 -31.5l68 -21q127 -38 127 -137q0 -66 -51.5 -111t-134.5 -45q-93 0 -168 42l15 59q72 -45 151 -45q55 0 89 27t34 68q0 35 -23.5 55.5t-68.5 34.5l-67 20q-64 19 -95 50t-31 86q0 63 47.5 104 t129.5 41q40 0 86.5 -11t72.5 -25zM205 -231l21 69q-43 4 -43 44q0 48 44 48q24 0 37 -14.5t13 -38.5q0 -58 -37 -122z" />
<glyph unicode="&#x21a;" horiz-adv-x="531" d="M513 621h-208v-621h-66v621h-219v59h493v-59zM247 -231l21 69q-43 4 -43 44q0 48 44 48q24 0 37 -14.5t13 -38.5q0 -58 -37 -122z" />
<glyph unicode="&#x21b;" horiz-adv-x="414" d="M186 469v-326q0 -95 81 -95q56 0 105 40l19 -53q-66 -45 -138 -45q-132 0 -132 146v333h-86v54h90l7 133h54v-133h182v-54h-182zM213 -231l21 69q-43 4 -43 44q0 48 44 48q24 0 37 -14.5t13 -38.5q0 -58 -37 -122z" />
<glyph unicode="&#x237;" horiz-adv-x="232" d="M38 -197l-36 41q42 27 62 62.5t20 94.5v522h64v-518q0 -140 -110 -202z" />
<glyph unicode="&#x2c6;" horiz-adv-x="510" d="M324 604l-70 99l-69 -99h-55l92 137h66l91 -137h-55z" />
<glyph unicode="&#x2c7;" horiz-adv-x="510" d="M185 741l70 -99l69 99h55l-91 -137h-66l-92 137h55z" />
<glyph unicode="&#x2d8;" horiz-adv-x="510" d="M141 688l22 29q35 -56 92 -56q58 0 92 56l21 -29q-38 -74 -113 -74q-40 0 -69 22t-45 52z" />
<glyph unicode="&#x2d9;" horiz-adv-x="510" d="M213 672q0 43 43 43q41 0 41 -43q0 -42 -41 -42q-43 0 -43 42z" />
<glyph unicode="&#x2da;" horiz-adv-x="510" d="M157 630q0 40 28.5 69t69.5 29t69.5 -29t28.5 -69t-28.5 -69t-69.5 -29t-69.5 29t-28.5 69zM191 630q0 -26 19 -45t45 -19t45 19t19 45t-19 45t-45 19t-45 -19t-19 -45z" />
<glyph unicode="&#x2db;" horiz-adv-x="510" d="M267 11l35 -11q-36 -2 -61 -22.5t-25 -54.5q0 -28 15.5 -43.5t38.5 -15.5q27 0 49 15l7 -36q-32 -16 -64 -16q-36 0 -59 23.5t-23 65.5q0 41 28 66.5t59 28.5z" />
<glyph unicode="&#x2dc;" horiz-adv-x="510" d="M133 627l-23 29q12 28 34.5 48.5t48.5 20.5q29 0 66.5 -34t56.5 -34q39 0 59 50l24 -29q-32 -69 -83 -69q-28 0 -66.5 34t-56.5 34q-36 0 -60 -50z" />
<glyph unicode="&#x2dd;" horiz-adv-x="510" d="M249 741l-78 -137h-58l70 137h66zM396 741l-78 -137h-58l70 137h66z" />
<glyph unicode="&#x394;" horiz-adv-x="607" d="M26 0l246 680h74l234 -680h-554zM309 613l-199 -561h387z" />
<glyph unicode="&#x3a9;" horiz-adv-x="712" d="M403 0v55q81 26 134 109t53 189q0 125 -65 200t-170 75q-104 0 -168.5 -75t-64.5 -200q0 -109 51.5 -191.5t133.5 -106.5v-55h-232v54h139q-71 36 -113 121t-42 188q0 145 83.5 236t212.5 91q131 0 215 -91t84 -236q0 -100 -43.5 -185.5t-112.5 -123.5h139v-54h-234z" />
<glyph unicode="&#x3bc;" horiz-adv-x="561" d="M149 523v-298q0 -174 125 -174q101 0 139 110v362h65v-523h-65v72q-50 -82 -159 -82q-65 0 -105 31v-209h-65v711h65z" />
<glyph unicode="&#x3c0;" horiz-adv-x="621" d="M28 523h554v-54h-116v-365q0 -57 40 -57q24 0 48 22l7 -55q-9 -9 -32 -16.5t-46 -7.5q-82 0 -82 104v375h-198v-469h-65v469h-110v54z" />
<glyph unicode="&#x1e80;" horiz-adv-x="932" d="M592 0l-125 369l-134 -369h-70l-233 680h69l204 -606l135 372l-79 234h70l197 -597l212 597h70l-246 -680h-70zM443 761l-78 137h66l70 -137h-58z" />
<glyph unicode="&#x1e81;" horiz-adv-x="858" d="M753 523h71l-174 -523h-81l-139 448l-144 -448h-81l-169 523h71l141 -457l143 457h79l138 -457zM450 604l-78 137h66l70 -137h-58z" />
<glyph unicode="&#x1e82;" horiz-adv-x="932" d="M592 0l-125 369l-134 -369h-70l-233 680h69l204 -606l135 372l-79 234h70l197 -597l212 597h70l-246 -680h-70zM565 898l-78 -137h-58l70 137h66z" />
<glyph unicode="&#x1e83;" horiz-adv-x="858" d="M753 523h71l-174 -523h-81l-139 448l-144 -448h-81l-169 523h71l141 -457l143 457h79l138 -457zM540 741l-78 -137h-58l70 137h66z" />
<glyph unicode="&#x1e84;" horiz-adv-x="932" d="M592 0l-125 369l-134 -369h-70l-233 680h69l204 -606l135 372l-79 234h70l197 -597l212 597h70l-246 -680h-70zM320 828q0 42 41 42q40 0 40 -42q0 -41 -40 -41q-41 0 -41 41zM533 828q0 42 42 42q39 0 39 -42q0 -41 -39 -41q-42 0 -42 41z" />
<glyph unicode="&#x1e85;" horiz-adv-x="858" d="M753 523h71l-174 -523h-81l-139 448l-144 -448h-81l-169 523h71l141 -457l143 457h79l138 -457zM282 671q0 42 41 42q40 0 40 -42q0 -41 -40 -41q-41 0 -41 41zM495 671q0 42 42 42q39 0 39 -42q0 -41 -39 -41q-42 0 -42 41z" />
<glyph unicode="&#x1ef2;" horiz-adv-x="593" d="M264 0v288l-240 386v6h73l200 -332l200 332h72v-6l-240 -385v-289h-65zM270 761l-78 137h66l70 -137h-58z" />
<glyph unicode="&#x1ef3;" horiz-adv-x="527" d="M22 -168l12 51q39 -25 86 -25q40 0 62.5 25t41.5 80l14 42l-213 518h72l171 -451l155 451h66l-207 -574q-27 -75 -62 -111t-97 -36q-57 0 -101 30zM243 604l-78 137h66l70 -137h-58z" />
<glyph unicode="&#x2013;" horiz-adv-x="544" d="M73 330h398v-55h-398v55z" />
<glyph unicode="&#x2014;" horiz-adv-x="742" d="M73 330h596v-55h-596v55z" />
<glyph unicode="&#x2018;" horiz-adv-x="226" d="M156 673l-39 -140q44 -6 44 -52q0 -57 -50 -57q-24 0 -37 16t-13 41q0 40 20 109.5t37 99.5z" />
<glyph unicode="&#x2019;" horiz-adv-x="224" d="M71 439l39 141q-43 5 -43 51q0 57 50 57q23 0 37 -16t14 -41q0 -40 -21 -109t-38 -100z" />
<glyph unicode="&#x201a;" horiz-adv-x="237" d="M72 -153l39 141q-43 5 -43 51q0 57 50 57q23 0 37 -16t14 -41q0 -40 -21 -109t-38 -100z" />
<glyph unicode="&#x201c;" horiz-adv-x="377" d="M308 675l-37 -137q41 -5 41 -48q0 -54 -46 -54q-22 0 -34.5 15.5t-12.5 38.5q0 38 19.5 104t35.5 96zM150 675l-38 -137q41 -4 41 -48q0 -54 -46 -54q-22 0 -34 15.5t-12 38.5q0 38 19.5 104.5t35.5 95.5z" />
<glyph unicode="&#x201d;" horiz-adv-x="374" d="M70 450l37 137q-41 5 -41 48q0 53 46 53q22 0 34 -15t12 -38q0 -38 -19 -104.5t-34 -95.5zM228 450l38 137q-41 4 -41 48q0 53 45 53q22 0 34.5 -15t12.5 -38q0 -38 -19.5 -104t-34.5 -96z" />
<glyph unicode="&#x201e;" horiz-adv-x="388" d="M73 -155l37 138q-19 1 -30 14.5t-11 32.5q0 54 46 54q22 0 34 -15t12 -39q0 -38 -19 -104t-34 -96zM231 -155l38 138q-41 3 -41 47q0 54 45 54q22 0 34.5 -15t12.5 -39q0 -38 -19.5 -104.5t-35.5 -95.5z" />
<glyph unicode="&#x2020;" horiz-adv-x="519" d="M488 376h-201v-564h-54v564h-202v55h202v279h54v-279h201v-55z" />
<glyph unicode="&#x2021;" horiz-adv-x="567" d="M512 76h-202v-264h-53v264h-202v55h202v245h-202v55h202v279h53v-279h202v-55h-202v-245h202v-55z" />
<glyph unicode="&#x2022;" horiz-adv-x="334" d="M92 302q0 42 19.5 64.5t54.5 22.5q36 0 56 -22.5t20 -64.5q0 -87 -76 -87q-74 0 -74 87z" />
<glyph unicode="&#x2026;" horiz-adv-x="622" d="M69 39q0 25 12.5 39.5t34.5 14.5q23 0 36 -14t13 -40q0 -54 -49 -54q-47 0 -47 54zM263 39q0 54 47 54q23 0 36 -14t13 -40q0 -54 -49 -54q-47 0 -47 54zM457 39q0 25 12.5 39.5t35.5 14.5t35.5 -14.5t12.5 -39.5q0 -54 -48 -54t-48 54z" />
<glyph unicode="&#x2030;" horiz-adv-x="1065" d="M730 159q0 81 40.5 127t107.5 46t108.5 -46t41.5 -127q0 -80 -41.5 -125t-108.5 -45t-107.5 45t-40.5 125zM781 159q0 -57 26.5 -88t70.5 -31q45 0 72 31t27 88q0 59 -27 90.5t-72 31.5t-71 -31.5t-26 -90.5zM188 6l305 674h57v-6l-305 -674h-57v6zM39 517q0 80 41 126 t107 46q67 0 108 -46t41 -126t-41 -125.5t-108 -45.5t-107.5 45.5t-40.5 125.5zM89 517q0 -57 26.5 -88.5t71.5 -31.5t71.5 31.5t26.5 88.5q0 58 -26.5 89.5t-71.5 31.5t-71.5 -31.5t-26.5 -89.5zM399 160q0 81 40.5 127t107.5 46t108 -46t41 -127q0 -80 -41 -125t-108 -45 t-107.5 45t-40.5 125zM449 160q0 -57 26.5 -88t71.5 -31t72 31t27 88q0 59 -27 90.5t-72 31.5t-71.5 -31.5t-26.5 -90.5z" />
<glyph unicode="&#x2039;" horiz-adv-x="277" d="M53 295v15l136 198h5l24 -20l-108 -185l108 -186l-24 -20h-5z" />
<glyph unicode="&#x203a;" horiz-adv-x="277" d="M224 310v-15l-136 -198h-5l-24 20l108 186l-108 185l24 20h5z" />
<glyph unicode="&#x2044;" horiz-adv-x="101" d="M-127 6l313 674h42v-6l-313 -674h-42v6z" />
<glyph unicode="&#x2070;" horiz-adv-x="315" d="M40 626q0 76 29.5 120t87.5 44q59 0 88.5 -44t29.5 -120t-29.5 -120.5t-88.5 -44.5q-58 0 -87.5 44.5t-29.5 120.5zM79 626q0 -126 78 -126t78 126q0 125 -78 125t-78 -125z" />
<glyph unicode="&#x2074;" horiz-adv-x="308" d="M280 533h-55v-67h-40v67h-160v29l148 222h52v-219h55v-32zM68 565h117v178z" />
<glyph unicode="&#x2075;" horiz-adv-x="283" d="M52 625l-2 2l12 157h173v-37h-140l-6 -89h43q113 0 113 -90q0 -53 -32.5 -80t-83.5 -27t-95 22l12 36q39 -21 81 -21q33 0 55 16.5t22 52.5q0 58 -74 58h-78z" />
<glyph unicode="&#x2076;" horiz-adv-x="305" d="M168 753q-44 0 -66 -33t-23 -90q34 48 88 48q47 0 74 -27.5t27 -76.5q0 -50 -30 -81.5t-75 -31.5q-59 0 -91.5 45t-32.5 120q0 74 33 119t92 45q54 0 93 -29l-12 -35q-34 27 -77 27zM162 644q-48 0 -81 -50q12 -94 82 -94q28 0 46.5 21.5t18.5 52.5q0 34 -18 52t-48 18z " />
<glyph unicode="&#x2077;" horiz-adv-x="246" d="M63 470l117 277h-155v37h199v-30l-117 -288h-44v4z" />
<glyph unicode="&#x2078;" horiz-adv-x="305" d="M153 461q-53 0 -83.5 25t-30.5 67q0 67 67 80q-26 4 -41.5 24.5t-15.5 46.5q0 41 27.5 63.5t76.5 22.5t76 -22.5t27 -63.5q0 -26 -15.5 -46.5t-41.5 -24.5q67 -13 67 -80q0 -42 -30.5 -67t-82.5 -25zM153 616q-73 0 -73 -57q0 -28 20.5 -45.5t52.5 -17.5t52.5 17.5 t20.5 45.5q0 26 -18.5 41.5t-54.5 15.5zM153 755q-29 0 -47 -14t-18 -40q0 -23 16.5 -39t48.5 -16q31 0 47 16t16 39q0 26 -17 40t-46 14z" />
<glyph unicode="&#x2079;" horiz-adv-x="305" d="M137 498q43 0 65.5 34t23.5 92q-33 -50 -89 -50q-48 0 -74.5 27t-26.5 76q0 50 30.5 81.5t76.5 31.5q58 0 90.5 -44.5t32.5 -119.5t-33 -120t-91 -45q-54 0 -94 29l13 35q32 -27 76 -27zM142 608q49 0 82 50q-14 93 -81 93q-29 0 -48 -21t-19 -53q0 -34 18 -51.5 t48 -17.5z" />
<glyph unicode="&#x2080;" horiz-adv-x="315" d="M40 59q0 76 30 120.5t88 44.5t87.5 -44.5t29.5 -120.5t-29.5 -120t-87.5 -44t-88 44.5t-30 119.5zM80 59q0 -124 78 -124q77 0 77 124q0 126 -77 126q-78 0 -78 -126z" />
<glyph unicode="&#x2081;" horiz-adv-x="224" d="M19 151l118 67h31v-318h-41v270l-91 -51z" />
<glyph unicode="&#x2082;" horiz-adv-x="286" d="M43 -100v33l112 99q45 41 45 86q0 29 -15.5 48t-44.5 19q-63 0 -65 -78l-37 6q1 51 28 81t76 30q48 0 73.5 -28.5t25.5 -74.5q0 -60 -58 -111l-82 -73h148v-37h-206z" />
<glyph unicode="&#x2083;" horiz-adv-x="284" d="M71 82h69q26 0 40 15t14 37q0 53 -65 53q-41 0 -80 -22l-9 36q41 23 92 23q48 0 75.5 -22.5t27.5 -63.5q0 -55 -47 -72q57 -13 57 -79q0 -43 -30 -67.5t-83 -24.5q-42 0 -94 21l11 36q37 -20 81 -20q32 0 52.5 16t20.5 45q0 53 -63 53h-69v36z" />
<glyph unicode="&#x2084;" horiz-adv-x="308" d="M280 -33h-55v-67h-40v67h-160v29l148 222h52v-219h55v-32zM68 -1h117v178z" />
<glyph unicode="&#x2085;" horiz-adv-x="282" d="M51 59l-2 2l12 157h173v-36h-139l-7 -90h44q112 0 112 -90q0 -53 -32.5 -80t-82.5 -27q-47 0 -96 23l12 35q39 -21 81 -21q33 0 55 17t22 52q0 58 -73 58h-79z" />
<glyph unicode="&#x2086;" horiz-adv-x="305" d="M168 187q-43 0 -65.5 -33.5t-23.5 -89.5q35 47 88 47q47 0 74 -27.5t27 -76.5q0 -50 -29.5 -81t-75.5 -31q-59 0 -91.5 44.5t-32.5 119.5t33 120t92 45q51 0 93 -29l-12 -35q-34 27 -77 27zM162 77q-48 0 -81 -50q5 -43 26 -68t56 -25q28 0 46.5 21t18.5 52 q0 35 -18 52.5t-48 17.5z" />
<glyph unicode="&#x2087;" horiz-adv-x="245" d="M63 -96l116 278h-154v36h199v-30l-117 -288h-44v4z" />
<glyph unicode="&#x2088;" horiz-adv-x="305" d="M153 -105q-53 0 -83.5 24.5t-30.5 67.5q0 66 67 79q-26 5 -41.5 25.5t-15.5 46.5q0 41 27.5 63.5t76.5 22.5t76 -22.5t27 -63.5q0 -26 -15.5 -46.5t-41.5 -25.5q67 -13 67 -79q0 -43 -30 -67.5t-83 -24.5zM153 50q-37 0 -55 -15.5t-18 -41.5q0 -29 20.5 -46t52.5 -17 t52.5 17t20.5 46q0 25 -18.5 41t-54.5 16zM153 189q-29 0 -47 -14t-18 -40q0 -23 16.5 -39t48.5 -16t47.5 16t15.5 39q0 26 -17.5 40t-45.5 14z" />
<glyph unicode="&#x2089;" horiz-adv-x="305" d="M137 -68q43 0 65.5 34t23.5 92q-34 -51 -89 -51q-48 0 -74.5 27.5t-26.5 76.5q0 50 30.5 81.5t76.5 31.5q58 0 90 -45t32 -120q0 -74 -32.5 -119t-90.5 -45t-94 29l12 35q34 -27 77 -27zM142 41q46 0 82 50q-6 43 -27 68.5t-54 25.5q-29 0 -48 -21.5t-19 -52.5 q0 -34 18 -52t48 -18z" />
<glyph unicode="&#x20ac;" horiz-adv-x="547" d="M388 372h-228v-31q0 -29 1 -43h200l-15 -44h-181q13 -99 56 -150.5t108 -51.5q80 0 136 48l26 -52q-73 -58 -168 -58q-90 0 -149 68t-75 196h-47v44h43q-1 14 -1 43v31h-42v45h45q14 132 74 202.5t153 70.5q103 0 167 -64l-24 -54q-54 57 -137 57q-68 0 -111 -53.5 t-55 -158.5h241z" />
<glyph unicode="&#x2113;" horiz-adv-x="393" d="M70 127l-30 50l67 46v270q0 93 36.5 144.5t103.5 51.5q109 0 109 -135q0 -105 -51.5 -201t-118.5 -154v-57q0 -82 68 -82q35 0 67 21l-2 -78q-33 -13 -83 -13q-64 0 -96.5 30t-32.5 98v37zM186 501v-227q112 108 112 287q0 69 -47 69q-28 0 -46.5 -33t-18.5 -96z" />
<glyph unicode="&#x2117;" horiz-adv-x="810" d="M55 339q0 151 100 251t249 100q151 0 251 -100t100 -251q0 -149 -100 -249t-251 -100q-149 0 -249 100t-100 249zM97 339q0 -132 88 -220t219 -88q133 0 221 88t88 220q0 133 -88 221.5t-221 88.5q-131 0 -219 -88.5t-88 -221.5zM303 169v340h151q51 0 85.5 -31t34.5 -89 q0 -54 -35 -86.5t-85 -32.5h-99v-101h-52zM448 466h-93v-152h93q31 0 53 20t22 55q0 37 -21.5 57t-53.5 20z" />
<glyph unicode="&#x2122;" horiz-adv-x="726" d="M605 357v237l-100 -144h-9l-99 144v-237h-39v306h36l107 -155l107 155h36v-306h-39zM290 622h-90v-265h-38v265h-94v41h222v-41z" />
<glyph unicode="&#x2126;" horiz-adv-x="714" d="M404 0v55q81 26 134 109t53 189q0 125 -65 200t-170 75q-104 0 -168.5 -75t-64.5 -200q0 -109 51.5 -191.5t133.5 -106.5v-55h-232v54h139q-71 36 -113 121t-42 188q0 145 83.5 236t212.5 91q131 0 215 -91t84 -236q0 -100 -43.5 -185.5t-112.5 -123.5h139v-54h-234z" />
<glyph unicode="&#x212e;" horiz-adv-x="667" d="M339 601q71 0 126 -25.5t87.5 -69.5t49 -98t16.5 -114v-26h-431v-169q60 -58 152 -58q130 0 184 104h66q-30 -73 -93 -115t-157 -42q-93 0 -157.5 45t-92.5 112.5t-28 148.5q0 82 28 149.5t92.5 112.5t157.5 45zM339 548q-94 0 -152 -58v-170h304v170q-58 58 -152 58z " />
<glyph unicode="&#x2153;" horiz-adv-x="695" d="M140 6l313 674h42v-6l-313 -674h-42v6zM30 617l118 67h30v-318h-40v272l-92 -52zM477 181h69q26 0 40 15t14 37q0 53 -65 53q-41 0 -80 -22l-9 36q41 23 92 23q48 0 75.5 -22.5t27.5 -63.5q0 -55 -47 -72q57 -13 57 -79q0 -43 -30 -67.5t-83 -24.5q-41 0 -94 21l11 36 q37 -20 81 -20q32 0 52.5 16t20.5 45q0 53 -63 53h-69v36z" />
<glyph unicode="&#x2154;" horiz-adv-x="766" d="M213 6l313 674h42v-6l-313 -674h-42v6zM551 181h69q26 0 40 15t14 37q0 53 -65 53q-41 0 -80 -22l-9 36q41 23 92 23q48 0 75.5 -22.5t27.5 -63.5q0 -55 -47 -72q57 -13 57 -79q0 -43 -30 -67.5t-83 -24.5q-42 0 -94 21l11 36q37 -20 81 -20q32 0 52.5 16t20.5 45 q0 53 -63 53h-69v36zM53 366v33l111 100q46 39 46 85q0 30 -15.5 48.5t-44.5 18.5q-32 0 -48.5 -21.5t-17.5 -56.5l-37 6q1 51 28 81t76 30q48 0 73.5 -28.5t25.5 -73.5q0 -62 -58 -112l-82 -73h149v-37h-206z" />
<glyph unicode="&#x215b;" horiz-adv-x="693" d="M140 6l313 674h42v-6l-313 -674h-42v6zM536 -6q-53 0 -83.5 24.5t-30.5 67.5q0 66 67 79q-26 5 -41.5 25.5t-15.5 46.5q0 41 27.5 63.5t76.5 22.5t76 -22.5t27 -63.5q0 -26 -15.5 -46.5t-41.5 -25.5q67 -13 67 -79q0 -43 -30 -67.5t-83 -24.5zM536 149q-37 0 -55 -15.5 t-18 -41.5q0 -29 20.5 -46t52.5 -17t52.5 17t20.5 46q0 25 -18.5 41t-54.5 16zM536 288q-29 0 -47 -14t-18 -40q0 -23 16.5 -39t48.5 -16t47.5 16t15.5 39q0 26 -17.5 40t-45.5 14zM30 617l118 67h30v-318h-40v272l-92 -52z" />
<glyph unicode="&#x215c;" horiz-adv-x="753" d="M204 6l313 674h42v-6l-313 -674h-42v6zM599 -6q-53 0 -83.5 24.5t-30.5 67.5q0 66 67 79q-26 5 -41.5 25.5t-15.5 46.5q0 41 27.5 63.5t76.5 22.5t76 -22.5t27 -63.5q0 -26 -15.5 -46.5t-41.5 -25.5q67 -13 67 -79q0 -43 -30 -67.5t-83 -24.5zM599 149q-37 0 -55 -15.5 t-18 -41.5q0 -29 20.5 -46t52.5 -17t52.5 17t20.5 46q0 25 -18.5 41t-54.5 16zM599 288q-29 0 -47 -14t-18 -40q0 -23 16.5 -39t48.5 -16t47.5 16t15.5 39q0 26 -17.5 40t-45.5 14zM80 548h69q26 0 40.5 15.5t14.5 37.5q0 52 -65 52q-41 0 -81 -21l-9 36q47 22 93 22 q48 0 75.5 -22.5t27.5 -63.5q0 -54 -48 -71q57 -13 57 -80q0 -42 -30 -67t-82 -25q-43 0 -94 22l10 35q37 -20 82 -20q32 0 52.5 16.5t20.5 44.5q0 25 -16.5 39.5t-47.5 14.5h-69v35z" />
<glyph unicode="&#x215d;" horiz-adv-x="752" d="M202 6l313 674h42v-6l-313 -674h-42v6zM598 -6q-53 0 -83.5 24.5t-30.5 67.5q0 66 67 79q-26 5 -41.5 25.5t-15.5 46.5q0 41 27.5 63.5t76.5 22.5t76 -22.5t27 -63.5q0 -26 -15.5 -46.5t-41.5 -25.5q67 -13 67 -79q0 -43 -30 -67.5t-83 -24.5zM598 149q-37 0 -55 -15.5 t-18 -41.5q0 -29 20.5 -46t52.5 -17t52.5 17t20.5 46q0 25 -18.5 41t-54.5 16zM598 288q-29 0 -47 -14t-18 -40q0 -23 16.5 -39t48.5 -16t47.5 16t15.5 39q0 26 -17.5 40t-45.5 14zM61 525l-2 2l12 157h173v-37h-140l-6 -89h43q113 0 113 -90q0 -53 -32.5 -80t-83.5 -27 t-95 22l12 36q39 -21 81 -21q33 0 55 16.5t22 52.5q0 58 -74 58h-78z" />
<glyph unicode="&#x215e;" horiz-adv-x="696" d="M145 6l313 674h42v-6l-313 -674h-42v6zM541 -6q-53 0 -83.5 24.5t-30.5 67.5q0 66 67 79q-26 5 -41.5 25.5t-15.5 46.5q0 41 27.5 63.5t76.5 22.5t76 -22.5t27 -63.5q0 -26 -15.5 -46.5t-41.5 -25.5q67 -13 67 -79q0 -43 -30 -67.5t-83 -24.5zM541 149q-37 0 -55 -15.5 t-18 -41.5q0 -29 20.5 -46t52.5 -17t52.5 17t20.5 46q0 25 -18.5 41t-54.5 16zM541 288q-29 0 -47 -14t-18 -40q0 -23 16.5 -39t48.5 -16t47.5 16t15.5 39q0 26 -17.5 40t-45.5 14zM71 370l117 277h-155v37h199v-30l-117 -288h-44v4z" />
<glyph unicode="&#x2190;" horiz-adv-x="723" d="M170 326h476v-52h-476l185 -178l-34 -36l-244 241l244 237l35 -37z" />
<glyph unicode="&#x2191;" horiz-adv-x="723" d="M388 490v-476h-52v475l-179 -184l-35 34l240 244l238 -244l-38 -35z" />
<glyph unicode="&#x2192;" horiz-adv-x="723" d="M553 272h-476v52h475l-185 179l35 35l244 -241l-244 -237l-35 38z" />
<glyph unicode="&#x2193;" horiz-adv-x="723" d="M334 107v476h52v-475l178 185l36 -34l-241 -245l-237 244l37 35z" />
<glyph unicode="&#x2196;" horiz-adv-x="723" d="M245 454l336 -337l-36 -37l-336 336l5 -257h-50l-3 342l340 -4l-1 -51z" />
<glyph unicode="&#x2197;" horiz-adv-x="723" d="M515 415l-336 -336l-37 36l336 336l-257 -4v49l342 3l-5 -341l-50 2z" />
<glyph unicode="&#x2198;" horiz-adv-x="723" d="M478 145l-336 336l36 37l336 -336l-5 257l49 1l4 -343l-341 5l1 51z" />
<glyph unicode="&#x2199;" horiz-adv-x="723" d="M206 182l337 336l37 -36l-336 -336l256 5l1 -50l-342 -3l4 341l51 -2z" />
<glyph unicode="&#x2202;" horiz-adv-x="525" d="M223 454q107 0 179 -123v10q0 126 -59.5 215t-139.5 120l27 44q95 -29 166 -132t71 -247q0 -163 -60.5 -257t-169.5 -94q-85 0 -141 66.5t-56 172.5q0 104 49 164.5t134 60.5zM239 51q66 0 107 57.5t52 159.5q-65 130 -159 130q-60 0 -97 -44t-37 -126q0 -77 38 -127 t96 -50z" />
<glyph unicode="&#x2206;" horiz-adv-x="611" d="M28 0l246 680h74l234 -680h-554zM311 613l-199 -561h387z" />
<glyph unicode="&#x220f;" horiz-adv-x="601" d="M151 -188h-61v868h422v-868h-62v809h-299v-809z" />
<glyph unicode="&#x2211;" horiz-adv-x="453" d="M51 0v40l175 300l-177 301v39h350v-54h-271l165 -286l-163 -286h269v-54h-348z" />
<glyph unicode="&#x2212;" horiz-adv-x="541" d="M76 329h389v-54h-389v54z" />
<glyph unicode="&#x2215;" horiz-adv-x="383" d="M14 6l313 674h42v-6l-313 -674h-42v6z" />
<glyph unicode="&#x2219;" horiz-adv-x="240" d="M71 298q0 55 48 55q51 0 51 -55t-51 -55q-48 0 -48 55z" />
<glyph unicode="&#x221a;" horiz-adv-x="542" d="M156 441l155 -367l163 623l40 -14l-185 -683h-45l-157 366l-79 -50l-24 45z" />
<glyph unicode="&#x221e;" horiz-adv-x="810" d="M112 299q0 -54 31 -84t80 -30q54 0 103 59l46 55l-45 54q-48 59 -104 59q-49 0 -80 -30t-31 -83zM405 265l-46 -55q-64 -74 -143 -74q-68 0 -112 44.5t-44 118.5t44 118.5t112 44.5q79 0 143 -75l46 -54l46 54q67 75 143 75q68 0 112 -44.5t44 -118.5t-44 -118.5 t-112 -44.5q-78 0 -144 74zM698 299q0 53 -30.5 83t-79.5 30q-56 0 -104 -59l-46 -54l46 -55q48 -59 104 -59q49 0 79.5 30t30.5 84z" />
<glyph unicode="&#x222b;" horiz-adv-x="407" d="M171 -42v606q0 73 30.5 114.5t91.5 41.5q57 0 100 -45l-15 -54q-30 39 -71 39q-71 0 -71 -94v-606q0 -73 -31 -115.5t-92 -42.5q-30 0 -57 14t-42 31l15 54q30 -39 70 -39q36 0 54 26t18 70z" />
<glyph unicode="&#x2248;" horiz-adv-x="548" d="M454 472l20 -41q-36 -58 -97 -58q-34 0 -104.5 33.5t-99.5 33.5q-52 0 -79 -44l-19 43q34 56 96 56q35 0 107 -33.5t97 -33.5q49 0 79 44zM454 195l20 -41q-37 -58 -97 -58q-34 0 -105 33.5t-99 33.5q-53 0 -80 -44l-18 43q32 56 95 56q35 0 107.5 -33.5t96.5 -33.5 q48 0 80 44z" />
<glyph unicode="&#x2260;" horiz-adv-x="535" d="M158 43l28 91h-115v54h132l71 229h-203v54h220l35 113l41 -15l-31 -98h125v-54h-142l-71 -229h213v-54h-230l-32 -105z" />
<glyph unicode="&#x2264;" horiz-adv-x="556" d="M79 137h390v-55h-390v55zM79 386v53l385 183h5v-52l-329 -157l329 -156v-52h-5z" />
<glyph unicode="&#x2265;" horiz-adv-x="557" d="M87 137h390v-55h-390v55zM477 439v-53l-385 -181h-6v52l330 156l-330 157v52h6z" />
<glyph unicode="&#x25ca;" horiz-adv-x="494" d="M451 330l-182 -330h-44l-181 330l181 349h44zM394 329l-147 292l-147 -292l147 -273z" />
<glyph unicode="&#x25fc;" horiz-adv-x="525" d="M0 525h525v-525h-525v525z" />
<glyph unicode="&#xf6c3;" horiz-adv-x="510" d="M233 -231l21 69q-43 4 -43 44q0 48 44 48q24 0 37 -14.5t13 -38.5q0 -58 -37 -122z" />
<glyph unicode="&#xf8ff;" horiz-adv-x="687" d="M87 720h512v-720h-512v720zM303 283h48q0 32 21.5 57.5t46.5 40.5t46.5 41t21.5 58q0 51 -36.5 85t-101.5 34q-39 0 -67 -14.5t-41.5 -37t-19 -43.5t-5.5 -41h47q0 40 21 66.5t65 26.5q41 0 64 -21.5t23 -54.5q0 -23 -21 -45t-45.5 -38t-45.5 -46t-21 -68zM292 194v-71 h68v71h-68z" />
<glyph unicode="&#xfb01;" horiz-adv-x="614" d="M41 437v54h92v66q0 78 35 120.5t106 42.5q66 0 112 -44l-19 -55q-41 41 -84 41q-86 0 -86 -103v-68h164v-54h-164v-437h-64v437h-92zM456 672q0 43 44 43q41 0 41 -43q0 -42 -41 -42q-44 0 -44 42zM531 0h-64v523h64v-523z" />
<glyph unicode="&#xfb02;" horiz-adv-x="657" d="M41 437v54h92v66q0 78 35 120.5t106 42.5q66 0 112 -44l-19 -55q-41 41 -84 41q-86 0 -86 -103v-68h164v-54h-164v-437h-64v437h-92zM465 710h65v-596q0 -37 11.5 -52t36.5 -15q28 0 59 21l7 -52q-38 -26 -87 -26q-46 0 -69 25.5t-23 84.5v610z" />
<glyph horiz-adv-x="510" d="M275 759l-20 -70q21 -1 32 -13.5t11 -30.5q0 -23 -12 -35.5t-32 -12.5q-24 0 -37 14.5t-13 38.5q0 62 36 123z" />
<glyph d="M41 339q0 163 53.5 257t164.5 94q113 0 166.5 -94t53.5 -257q0 -162 -53.5 -255.5t-166.5 -93.5q-111 0 -164.5 93.5t-53.5 255.5zM104 339q0 -286 155 -286q157 0 157 286q0 290 -157 290q-155 0 -155 -290z" />
<glyph d="M483 0h-413v59h198v549l-178 -100l-23 53l216 119h50v-621h150v-59z" />
<glyph d="M60 0v52l222 226q55 56 80 101t25 101q0 68 -35 108.5t-102 40.5q-69 0 -104.5 -45t-36.5 -124l-59 7q2 104 54.5 163.5t149.5 59.5t148.5 -58t51.5 -150q0 -64 -31.5 -119.5t-95.5 -121.5l-180 -182h324v-59h-411z" />
<glyph d="M120 377h141q55 0 86.5 38t31.5 90q0 59 -40 93.5t-104 34.5q-84 0 -160 -49l-17 55q85 51 180 51q96 0 151 -47t55 -131q0 -58 -28.5 -103t-77.5 -54q59 -12 92 -55.5t33 -112.5q0 -92 -60.5 -144.5t-164.5 -52.5q-88 0 -182 47l18 57q78 -46 163 -46q70 0 115 38.5 t45 105.5q0 62 -35 98t-101 36h-141v51z" />
<glyph d="M479 150h-73v-150h-64v150h-315v48l296 482h83v-478h73v-52zM80 202h264l2 414z" />
<glyph d="M83 353l-3 4l22 323h347v-59h-291l-15 -217h99q105 0 165 -45.5t60 -142.5q0 -113 -65 -169.5t-165 -56.5q-98 0 -190 49l19 57q81 -48 168 -48q71 0 119 40.5t48 125.5q0 139 -165 139h-153z" />
<glyph d="M113 341v-7q71 120 179 120q84 0 133.5 -60t49.5 -165q0 -107 -55.5 -173t-141.5 -66q-109 0 -169.5 93.5t-60.5 257.5q0 159 61 254t171 95q55 0 102 -20t72 -44l-22 -53q-24 24 -62.5 41.5t-83.5 17.5q-82 0 -127.5 -78t-45.5 -213zM275 398q-93 0 -158 -131 q11 -103 51.5 -159.5t106.5 -56.5q59 0 97.5 50.5t38.5 127.5q0 82 -37.5 125.5t-98.5 43.5z" />
<glyph d="M145 7l249 614h-333v59h406v-50l-250 -630h-72v7z" />
<glyph d="M260 -10q-100 0 -158.5 52t-58.5 142q0 70 36 113.5t98 57.5q-51 10 -83.5 55t-32.5 102q0 85 53 131.5t146 46.5t146 -46.5t53 -131.5q0 -57 -32.5 -102t-83.5 -55q62 -14 98 -57.5t36 -113.5q0 -90 -58.5 -142t-158.5 -52zM262 327q-154 0 -154 -135q0 -69 43 -108 t109 -39t109 39t43 108q0 135 -150 135zM260 635q-61 0 -98.5 -33t-37.5 -96q0 -55 33.5 -91.5t104.5 -36.5q67 0 100.5 36.5t33.5 91.5q0 63 -37.5 96t-98.5 33z" />
<glyph d="M233 48q82 0 127.5 78t45.5 213v2q-70 -115 -179 -115q-84 0 -133.5 60t-49.5 165q0 107 55.5 173t141.5 66q109 0 169.5 -93.5t60.5 -257.5q0 -159 -61 -254t-171 -95q-55 0 -102 20t-72 44l22 53q24 -24 62.5 -41.5t83.5 -17.5zM244 282q55 0 95 39t64 87 q-11 105 -51.5 163t-107.5 58q-59 0 -97.5 -50.5t-38.5 -127.5q0 -82 37.5 -125.5t98.5 -43.5z" />
<glyph d="M375 372h-228v-31q0 -29 1 -43h200l-15 -44h-181q13 -99 56 -150.5t108 -51.5q80 0 136 48l26 -52q-73 -58 -168 -58q-90 0 -149 68t-75 196h-47v44h43q-1 14 -1 43v31h-42v45h45q14 132 74 202.5t153 70.5q103 0 167 -64l-24 -54q-54 57 -137 57q-68 0 -111 -53.5 t-55 -158.5h241z" />
<glyph d="M391 627l-25 -105q47 -17 88 -62l-32 -49q-32 37 -70 52l-98 -413q15 -3 32 -3q81 0 136 65l32 -49q-70 -77 -169 -77q-15 0 -45 4l-29 -125l-40 12l29 123q-70 27 -110 95.5t-40 166.5q0 126 64.5 200.5t170.5 74.5q15 0 41 -4l25 105zM115 262q0 -74 26.5 -125.5 t73.5 -74.5l97 412q-16 2 -27 2q-77 0 -123.5 -57.5t-46.5 -156.5z" />
<glyph d="M390 326h-188q21 -132 17 -181q11 -8 38 -35t51 -45t43 -18q76 0 74 164h57q7 -221 -117 -221q-28 0 -57.5 19.5t-60.5 50t-41 37.5q-26 -107 -97 -107q-37 0 -57 25.5t-20 66.5t24 68t62 27q28 0 45 -13q1 17 -1.5 39.5t-4 34t-8.5 47.5t-8 41h-84v44h76q-12 69 -12 125 q0 86 43 140.5t126 54.5q56 0 98.5 -26t67.5 -58l-23 -55q-17 21 -30 34.5t-42 28.5t-61 15q-56 0 -85 -40.5t-29 -105.5q0 -45 9 -113h195v-44zM122 135q-22 0 -36 -15t-14 -40q0 -49 36 -49q44 0 52 90q-16 14 -38 14z" />
<glyph d="M429 326h-136v-366q0 -73 -31 -115.5t-92 -42.5q-30 0 -57 14t-42 31l14 54q32 -39 71 -39q36 0 54 26t18 70v368h-132v44h132v194q0 73 30.5 114.5t91.5 41.5q29 0 56.5 -14t42.5 -31l-14 -54q-30 39 -71 39q-71 0 -71 -94v-196h136v-44z" />
<glyph d="M438 156h-147v-156h-65v156h-145v45h145v74h-145v45h129l-170 354v6h67l152 -337l153 337h68v-6l-174 -354h132v-45h-147v-74h147v-45z" />
<glyph d="M238 -128v118q-54 2 -105 19t-81 38l16 62q77 -55 170 -58v269l-65 19q-130 37 -130 160q0 73 50.5 126t144.5 62v83h43v-81q103 -3 186 -52l-21 -60q-29 20 -75.5 35t-89.5 16v-258l39 -11q79 -24 117.5 -63t38.5 -106q0 -83 -53 -136.5t-142 -61.5v-120h-43zM291 305 l-10 3v-255q58 9 93 44t35 90q0 45 -29 73t-89 45zM107 503q0 -81 93 -108l38 -12v243q-64 -8 -97.5 -42t-33.5 -81z" />
<glyph horiz-adv-x="315" d="M40 159q0 76 30 120.5t88 44.5t87.5 -44.5t29.5 -120.5t-29.5 -120t-87.5 -44t-88 44.5t-30 119.5zM80 159q0 -124 78 -124q77 0 77 124q0 126 -77 126q-78 0 -78 -126z" />
<glyph horiz-adv-x="224" d="M19 251l118 67h31v-318h-41v270l-91 -51z" />
<glyph horiz-adv-x="286" d="M43 0v33l112 99q45 41 45 86q0 29 -15.5 48t-44.5 19q-63 0 -65 -78l-37 6q1 51 28 81t76 30q48 0 73.5 -28.5t25.5 -74.5q0 -60 -58 -111l-82 -73h148v-37h-206z" />
<glyph horiz-adv-x="284" d="M71 182h69q26 0 40 15t14 37q0 53 -65 53q-41 0 -80 -22l-9 36q41 23 92 23q48 0 75.5 -22.5t27.5 -63.5q0 -55 -47 -72q57 -13 57 -79q0 -43 -30 -67.5t-83 -24.5q-42 0 -94 21l11 36q37 -20 81 -20q32 0 52.5 16t20.5 45q0 53 -63 53h-69v36z" />
<glyph horiz-adv-x="308" d="M280 67h-55v-67h-40v67h-160v29l148 222h52v-219h55v-32zM68 99h117v178z" />
<glyph horiz-adv-x="282" d="M51 159l-2 2l12 157h173v-36h-139l-7 -90h44q112 0 112 -90q0 -53 -32.5 -80t-82.5 -27q-47 0 -96 23l12 35q39 -21 81 -21q33 0 55 17t22 52q0 58 -73 58h-79z" />
<glyph horiz-adv-x="305" d="M168 287q-43 0 -65.5 -33.5t-23.5 -89.5q35 47 88 47q47 0 74 -27.5t27 -76.5q0 -50 -29.5 -81t-75.5 -31q-59 0 -91.5 44.5t-32.5 119.5t33 120t92 45q51 0 93 -29l-12 -35q-34 27 -77 27zM162 177q-48 0 -81 -50q5 -43 26 -68t56 -25q28 0 46.5 21t18.5 52 q0 35 -18 52.5t-48 17.5z" />
<glyph horiz-adv-x="245" d="M63 4l116 278h-154v36h199v-30l-117 -288h-44v4z" />
<glyph horiz-adv-x="305" d="M153 -5q-53 0 -83.5 24.5t-30.5 67.5q0 66 67 79q-26 5 -41.5 25.5t-15.5 46.5q0 41 27.5 63.5t76.5 22.5t76 -22.5t27 -63.5q0 -26 -15.5 -46.5t-41.5 -25.5q67 -13 67 -79q0 -43 -30 -67.5t-83 -24.5zM153 150q-37 0 -55 -15.5t-18 -41.5q0 -29 20.5 -46t52.5 -17 t52.5 17t20.5 46q0 25 -18.5 41t-54.5 16zM153 289q-29 0 -47 -14t-18 -40q0 -23 16.5 -39t48.5 -16t47.5 16t15.5 39q0 26 -17.5 40t-45.5 14z" />
<glyph horiz-adv-x="305" d="M137 32q43 0 65.5 34t23.5 92q-34 -51 -89 -51q-48 0 -74.5 27.5t-26.5 76.5q0 50 30.5 81.5t76.5 31.5q58 0 90 -45t32 -120q0 -74 -32.5 -119t-90.5 -45t-94 29l12 35q34 -27 77 -27zM142 141q46 0 82 50q-6 43 -27 68.5t-54 25.5q-29 0 -48 -21.5t-19 -52.5 q0 -34 18 -52t48 -18z" />
<glyph horiz-adv-x="315" d="M40 521q0 76 29.5 120t87.5 44q59 0 88.5 -44t29.5 -120t-29.5 -120.5t-88.5 -44.5q-58 0 -87.5 44.5t-29.5 120.5zM79 521q0 -126 78 -126t78 126q0 125 -78 125t-78 -125z" />
<glyph horiz-adv-x="223" d="M19 612l118 67h30v-318h-40v272l-92 -52z" />
<glyph horiz-adv-x="285" d="M43 361v33l111 100q46 39 46 85q0 30 -15.5 48.5t-44.5 18.5q-32 0 -48.5 -21.5t-17.5 -56.5l-37 6q1 51 28 81t76 30q48 0 73.5 -28.5t25.5 -73.5q0 -62 -58 -112l-82 -73h149v-37h-206z" />
<glyph horiz-adv-x="284" d="M70 543h69q26 0 40.5 15.5t14.5 37.5q0 52 -65 52q-41 0 -81 -21l-9 36q47 22 93 22q48 0 75.5 -22.5t27.5 -63.5q0 -54 -48 -71q57 -13 57 -80q0 -42 -30 -67t-82 -25q-43 0 -94 22l10 35q37 -20 82 -20q32 0 52.5 16.5t20.5 44.5q0 25 -16.5 39.5t-47.5 14.5h-69v35z " />
<glyph horiz-adv-x="308" d="M279 429h-55v-67h-40v67h-160v29l148 222h52v-219h55v-32zM67 461h117v178z" />
<glyph horiz-adv-x="282" d="M51 520l-2 2l12 157h173v-37h-140l-6 -89h43q113 0 113 -90q0 -53 -32.5 -80t-83.5 -27t-95 22l12 36q39 -21 81 -21q33 0 55 16.5t22 52.5q0 58 -74 58h-78z" />
<glyph horiz-adv-x="305" d="M168 648q-44 0 -66 -33t-23 -90q34 48 88 48q47 0 74 -27.5t27 -76.5q0 -50 -30 -81.5t-75 -31.5q-59 0 -91.5 45t-32.5 120q0 74 33 119t92 45q54 0 93 -29l-12 -35q-34 27 -77 27zM162 539q-48 0 -81 -50q12 -94 82 -94q28 0 46.5 21.5t18.5 52.5q0 34 -18 52t-48 18z " />
<glyph horiz-adv-x="248" d="M64 365l117 277h-155v37h199v-30l-117 -288h-44v4z" />
<glyph horiz-adv-x="305" d="M153 356q-53 0 -83.5 25t-30.5 67q0 67 67 80q-26 4 -41.5 24.5t-15.5 46.5q0 41 27.5 63.5t76.5 22.5t76 -22.5t27 -63.5q0 -26 -15.5 -46.5t-41.5 -24.5q67 -13 67 -80q0 -42 -30.5 -67t-82.5 -25zM153 511q-73 0 -73 -57q0 -28 20.5 -45.5t52.5 -17.5t52.5 17.5 t20.5 45.5q0 26 -18.5 41.5t-54.5 15.5zM153 650q-29 0 -47 -14t-18 -40q0 -23 16.5 -39t48.5 -16q31 0 47 16t16 39q0 26 -17 40t-46 14z" />
<glyph horiz-adv-x="305" d="M137 393q43 0 65.5 34t23.5 92q-33 -50 -89 -50q-48 0 -74.5 27t-26.5 76q0 50 30.5 81.5t76.5 31.5q58 0 90.5 -44.5t32.5 -119.5t-33 -120t-91 -45q-54 0 -94 29l13 35q31 -27 76 -27zM142 503q49 0 82 50q-14 93 -81 93q-29 0 -48 -21t-19 -53q0 -34 18 -51.5 t48 -17.5z" />
<glyph horiz-adv-x="257" d="M113 341q0 -145 34 -255.5t74 -173.5l-40 -25q-45 56 -86 175.5t-41 278.5q0 160 41 278.5t86 175.5l40 -25q-41 -64 -74.5 -173.5t-33.5 -255.5z" />
<glyph horiz-adv-x="257" d="M145 341q0 146 -33.5 255.5t-74.5 173.5l39 25q45 -57 86 -175.5t41 -278.5q0 -159 -41 -278.5t-86 -175.5l-39 25q40 63 74 173.5t34 255.5z" />
<glyph horiz-adv-x="465" d="M73 370h319v-55h-319v55z" />
<glyph horiz-adv-x="296" d="M256 -108h-172v898h172v-55h-117v-788h117v-55z" />
<glyph horiz-adv-x="296" d="M40 790h171v-898h-171v55h116v788h-116v55z" />
<glyph horiz-adv-x="271" d="M199 -65h23v-49h-33q-57 0 -84 31t-27 80q0 35 26 118.5t26 128.5q0 37 -20 55t-64 18v44q84 0 84 74q0 45 -26 128t-26 118q0 48 27.5 78.5t83.5 30.5h33v-50h-23q-33 0 -51 -20t-18 -51q0 -29 26.5 -113t26.5 -128q0 -38 -15.5 -59.5t-49.5 -29.5q34 -8 49.5 -30 t15.5 -63q0 -43 -26.5 -126.5t-26.5 -112.5q0 -31 18 -51.5t51 -20.5z" />
<glyph horiz-adv-x="222" d="M84 -108v898h54v-898h-54z" />
<glyph horiz-adv-x="272" d="M83 -114h-34v49h25q32 0 49.5 20.5t17.5 51.5q0 29 -26 112.5t-26 126.5q0 41 15 63t50 30q-35 8 -50 29t-15 60q0 44 26 128t26 113q0 31 -17.5 51t-49.5 20h-25v50h34q56 0 83.5 -31t27.5 -78q0 -35 -26 -118t-26 -128q0 -74 83 -74v-44q-44 0 -63.5 -18t-19.5 -55 q0 -45 26 -128.5t26 -118.5q0 -49 -27.5 -80t-83.5 -31z" />
<glyph horiz-adv-x="276" d="M53 335v15l136 198h5l24 -20l-108 -185l108 -186l-24 -20h-5z" />
<glyph horiz-adv-x="276" d="M223 350v-15l-136 -198h-5l-24 20l108 186l-108 185l24 20h5z" />
<glyph horiz-adv-x="454" d="M53 335v15l136 198h5l24 -20l-108 -185l108 -186l-24 -20h-5zM231 335v15l135 198h6l23 -20l-107 -185l108 -186l-24 -20h-6z" />
<glyph horiz-adv-x="454" d="M223 350v-15l-136 -198h-5l-24 20l108 186l-108 185l24 20h5zM400 350v-15l-135 -198h-6l-23 20l108 186l-109 185l24 20h6z" />
<glyph horiz-adv-x="544" d="M73 370h398v-55h-398v55z" />
<glyph horiz-adv-x="742" d="M73 370h596v-55h-596v55z" />
<glyph horiz-adv-x="333" d="M92 342q0 87 74 87q35 0 55 -22.5t20 -64.5q0 -87 -75 -87q-74 0 -74 87z" />
<glyph horiz-adv-x="240" d="M71 338q0 55 48 55q51 0 51 -55t-51 -55q-48 0 -48 55z" />
<glyph horiz-adv-x="570" d="M486 523v-523h-64v61q-59 -71 -150 -71q-98 0 -157 73t-59 199t58.5 198t157.5 72q88 0 150 -69v60h64zM122 259q0 -98 45 -154t122 -56q39 0 75 19t58 46v292q-22 29 -57.5 48t-75.5 19q-77 0 -122 -57.5t-45 -156.5z" />
<glyph horiz-adv-x="563" d="M52 305q0 99 55 163t157 64q41 0 81.5 -17t64.5 -44v52h65v-464q0 -116 -60.5 -186.5t-145.5 -70.5q-67 0 -106.5 37t-39.5 100q0 53 28 92.5t83 49.5q-80 7 -131 62t-51 162zM118 305q0 -90 47.5 -131.5t114.5 -41.5h130v278q-20 26 -57 44.5t-75 18.5q-76 0 -118 -47.5 t-42 -120.5zM410 42v35h-69q-74 0 -120.5 -31t-46.5 -92q0 -44 27.5 -69.5t70.5 -25.5q58 0 98 52.5t40 130.5z" />
<glyph horiz-adv-x="504" d="M25 -93q0 133 186 141l-184 475h67l165 -452l156 452h66l-193 -543q-35 -99 -70.5 -138.5t-91.5 -39.5q-46 0 -73.5 28t-27.5 77zM127 -141q35 0 53.5 25.5t44.5 99.5l6 17q-153 0 -153 -92q0 -22 13.5 -36t35.5 -14z" />
<glyph horiz-adv-x="570" d="M274 604l-78 137h66l70 -137h-58zM486 523v-523h-64v61q-59 -71 -150 -71q-98 0 -157 73t-59 199t58.5 198t157.5 72q88 0 150 -69v60h64zM122 259q0 -98 45 -154t122 -56q39 0 75 19t58 46v292q-22 29 -57.5 48t-75.5 19q-77 0 -122 -57.5t-45 -156.5z" />
<glyph horiz-adv-x="570" d="M486 523v-523h-64v61q-59 -71 -150 -71q-98 0 -157 73t-59 199t58.5 198t157.5 72q88 0 150 -69v60h64zM122 259q0 -98 45 -154t122 -56q39 0 75 19t58 46v292q-22 29 -57.5 48t-75.5 19q-77 0 -122 -57.5t-45 -156.5zM405 741l-78 -137h-58l70 137h66z" />
<glyph horiz-adv-x="570" d="M486 523v-523h-64v61q-59 -71 -150 -71q-98 0 -157 73t-59 199t58.5 198t157.5 72q88 0 150 -69v60h64zM122 259q0 -98 45 -154t122 -56q39 0 75 19t58 46v292q-22 29 -57.5 48t-75.5 19q-77 0 -122 -57.5t-45 -156.5zM368 604l-70 99l-69 -99h-55l92 137h66l91 -137h-55 z" />
<glyph horiz-adv-x="570" d="M486 523v-523h-64v61q-59 -71 -150 -71q-98 0 -157 73t-59 199t58.5 198t157.5 72q88 0 150 -69v60h64zM122 259q0 -98 45 -154t122 -56q39 0 75 19t58 46v292q-22 29 -57.5 48t-75.5 19q-77 0 -122 -57.5t-45 -156.5zM175 627l-23 29q12 28 34.5 48.5t48.5 20.5 q29 0 66.5 -34t56.5 -34q39 0 59 50l24 -29q-32 -69 -83 -69q-28 0 -66.5 34t-56.5 34q-36 0 -60 -50z" />
<glyph horiz-adv-x="570" d="M486 523v-523h-64v61q-59 -71 -150 -71q-98 0 -157 73t-59 199t58.5 198t157.5 72q88 0 150 -69v60h64zM122 259q0 -98 45 -154t122 -56q39 0 75 19t58 46v292q-22 29 -57.5 48t-75.5 19q-77 0 -122 -57.5t-45 -156.5zM152 671q0 42 41 42q40 0 40 -42q0 -41 -40 -41 q-41 0 -41 41zM365 671q0 42 42 42q39 0 39 -42q0 -41 -39 -41q-42 0 -42 41z" />
<glyph horiz-adv-x="570" d="M486 523v-523h-64v61q-59 -71 -150 -71q-98 0 -157 73t-59 199t58.5 198t157.5 72q88 0 150 -69v60h64zM122 259q0 -98 45 -154t122 -56q39 0 75 19t58 46v292q-22 29 -57.5 48t-75.5 19q-77 0 -122 -57.5t-45 -156.5zM400 637h-205v49h205v-49z" />
<glyph horiz-adv-x="570" d="M486 523v-523h-64v61q-59 -71 -150 -71q-98 0 -157 73t-59 199t58.5 198t157.5 72q88 0 150 -69v60h64zM122 259q0 -98 45 -154t122 -56q39 0 75 19t58 46v292q-22 29 -57.5 48t-75.5 19q-77 0 -122 -57.5t-45 -156.5zM187 688l22 29q35 -56 92 -56q58 0 92 56l21 -29 q-38 -74 -113 -74q-40 0 -69 22t-45 52z" />
<glyph horiz-adv-x="570" d="M486 523v-523h-64v61q-59 -71 -150 -71q-98 0 -157 73t-59 199t58.5 198t157.5 72q88 0 150 -69v60h64zM122 259q0 -98 45 -154t122 -56q39 0 75 19t58 46v292q-22 29 -57.5 48t-75.5 19q-77 0 -122 -57.5t-45 -156.5zM203 670q0 40 28.5 69t69.5 29t69.5 -29t28.5 -69 t-28.5 -69t-69.5 -29t-69.5 29t-28.5 69zM237 670q0 -26 19 -45t45 -19t45 19t19 45t-19 45t-45 19t-45 -19t-19 -45z" />
<glyph horiz-adv-x="570" d="M367 832l-45 -74h-46l40 74h51zM205 657q0 39 27 59.5t71 20.5t71 -21t27 -59q0 -39 -27 -59.5t-71 -20.5t-71 20.5t-27 59.5zM239 657q0 -48 64 -48q63 0 63 48q0 47 -63 47q-64 0 -64 -47zM486 523v-523h-64v61q-59 -71 -150 -71q-98 0 -157 73t-59 199t58.5 198 t157.5 72q88 0 150 -69v60h64zM122 259q0 -98 45 -154t122 -56q39 0 75 19t58 46v292q-22 29 -57.5 48t-75.5 19q-77 0 -122 -57.5t-45 -156.5z" />
<glyph horiz-adv-x="569" d="M485 523v-523h-9q-36 -2 -61 -22.5t-25 -54.5q0 -28 15.5 -43.5t38.5 -15.5q27 0 49 15l7 -36q-32 -16 -64 -16q-36 0 -59 23.5t-23 65.5q0 35 19.5 58.5t47.5 32.5v54q-59 -71 -150 -71q-98 0 -157 73t-59 199t58.5 198t157.5 72q88 0 150 -69v60h64zM121 259 q0 -98 45 -154t122 -56q39 0 75 19t58 46v292q-22 29 -57.5 48t-75.5 19q-77 0 -122 -57.5t-45 -156.5z" />
<glyph horiz-adv-x="561" d="M52 305q0 99 55 163t157 64q41 0 81.5 -17t64.5 -44v52h65v-464q0 -116 -60.5 -186.5t-145.5 -70.5q-67 0 -106.5 37t-39.5 100q0 53 28 92.5t83 49.5q-80 7 -131 62t-51 162zM118 305q0 -90 47.5 -131.5t114.5 -41.5h130v278q-20 26 -57 44.5t-75 18.5q-76 0 -118 -47.5 t-42 -120.5zM410 42v35h-69q-74 0 -120.5 -31t-46.5 -92q0 -44 27.5 -69.5t70.5 -25.5q58 0 98 52.5t40 130.5zM358 604l-70 99l-69 -99h-55l92 137h66l91 -137h-55z" />
<glyph horiz-adv-x="561" d="M178 688l22 29q35 -56 92 -56q58 0 92 56l21 -29q-38 -74 -113 -74q-40 0 -69 22t-45 52zM52 305q0 99 55 163t157 64q41 0 81.5 -17t64.5 -44v52h65v-464q0 -116 -60.5 -186.5t-145.5 -70.5q-67 0 -106.5 37t-39.5 100q0 53 28 92.5t83 49.5q-80 7 -131 62t-51 162z M118 305q0 -90 47.5 -131.5t114.5 -41.5h130v278q-20 26 -57 44.5t-75 18.5q-76 0 -118 -47.5t-42 -120.5zM410 42v35h-69q-74 0 -120.5 -31t-46.5 -92q0 -44 27.5 -69.5t70.5 -25.5q58 0 98 52.5t40 130.5z" />
<glyph horiz-adv-x="561" d="M52 305q0 99 55 163t157 64q41 0 81.5 -17t64.5 -44v52h65v-464q0 -116 -60.5 -186.5t-145.5 -70.5q-67 0 -106.5 37t-39.5 100q0 53 28 92.5t83 49.5q-80 7 -131 62t-51 162zM118 305q0 -90 47.5 -131.5t114.5 -41.5h130v278q-20 26 -57 44.5t-75 18.5q-76 0 -118 -47.5 t-42 -120.5zM410 42v35h-69q-74 0 -120.5 -31t-46.5 -92q0 -44 27.5 -69.5t70.5 -25.5q58 0 98 52.5t40 130.5zM254 672q0 43 43 43q41 0 41 -43q0 -42 -41 -42q-43 0 -43 42z" />
<glyph horiz-adv-x="561" d="M52 305q0 99 55 163t157 64q41 0 81.5 -17t64.5 -44v52h65v-464q0 -116 -60.5 -186.5t-145.5 -70.5q-67 0 -106.5 37t-39.5 100q0 53 28 92.5t83 49.5q-80 7 -131 62t-51 162zM118 305q0 -90 47.5 -131.5t114.5 -41.5h130v278q-20 26 -57 44.5t-75 18.5q-76 0 -118 -47.5 t-42 -120.5zM410 42v35h-69q-74 0 -120.5 -31t-46.5 -92q0 -44 27.5 -69.5t70.5 -25.5q58 0 98 52.5t40 130.5zM321 766l-20 -70q21 -1 32 -13.5t11 -30.5q0 -23 -12 -35.5t-32 -12.5q-24 0 -37 14.5t-13 38.5q0 62 36 123z" />
<glyph horiz-adv-x="523" d="M370 741l-78 -137h-58l70 137h66zM25 -93q0 133 186 141l-184 475h67l165 -452l156 452h66l-193 -543q-35 -99 -70.5 -138.5t-91.5 -39.5q-46 0 -73.5 28t-27.5 77zM127 -141q35 0 53.5 25.5t44.5 99.5l6 17q-153 0 -153 -92q0 -22 13.5 -36t35.5 -14z" />
<glyph horiz-adv-x="523" d="M25 -93q0 133 186 141l-184 475h67l165 -452l156 452h66l-193 -543q-35 -99 -70.5 -138.5t-91.5 -39.5q-46 0 -73.5 28t-27.5 77zM127 -141q35 0 53.5 25.5t44.5 99.5l6 17q-153 0 -153 -92q0 -22 13.5 -36t35.5 -14zM335 604l-70 99l-69 -99h-55l92 137h66l91 -137h-55z " />
<glyph horiz-adv-x="523" d="M25 -93q0 133 186 141l-184 475h67l165 -452l156 452h66l-193 -543q-35 -99 -70.5 -138.5t-91.5 -39.5q-46 0 -73.5 28t-27.5 77zM127 -141q35 0 53.5 25.5t44.5 99.5l6 17q-153 0 -153 -92q0 -22 13.5 -36t35.5 -14zM122 671q0 42 41 42q40 0 40 -42q0 -41 -40 -41 q-41 0 -41 41zM335 671q0 42 42 42q39 0 39 -42q0 -41 -39 -41q-42 0 -42 41z" />
<glyph horiz-adv-x="523" d="M248 604l-78 137h66l70 -137h-58zM25 -93q0 133 186 141l-184 475h67l165 -452l156 452h66l-193 -543q-35 -99 -70.5 -138.5t-91.5 -39.5q-46 0 -73.5 28t-27.5 77zM127 -141q35 0 53.5 25.5t44.5 99.5l6 17q-153 0 -153 -92q0 -22 13.5 -36t35.5 -14z" />
</font>
</defs>
</svg>
