<?xml version="1.0" encoding="utf-8"?>
<!-- Generator: Adobe Illustrator 15.0.0, SVG Export Plug-In . SVG Version: 6.00 Build 0)  -->
<!DOCTYPE svg PUBLIC "-//W3C//DTD SVG 1.1//EN" "http://www.w3.org/Graphics/SVG/1.1/DTD/svg11.dtd">
<svg version="1.1" id="Layer_1" xmlns="http://www.w3.org/2000/svg" xmlns:xlink="http://www.w3.org/1999/xlink" x="0px" y="0px"
	 width="100px" height="100px" viewBox="0 0 100 100" enable-background="new 0 0 100 100" xml:space="preserve">
<g>
	<rect fill="#FFFFFF" width="100" height="99.921"/>
	<path fill="#00131B" d="M40.795,26.757c-0.178,1.909-1.87,3.311-3.779,3.132c-2.44-0.228-4.609,1.572-4.834,4.01
		c-0.179,1.907-1.87,3.307-3.778,3.13c-1.906-0.175-3.309-1.87-3.133-3.778c0.583-6.25,6.14-10.86,12.39-10.277
		C39.57,23.16,40.973,24.85,40.795,26.757z M90.418,73.383c-0.887,1.707-2.986,2.354-4.688,1.465
		c-2.166-1.138-4.856-0.298-5.994,1.87c-0.884,1.702-2.986,2.349-4.683,1.455c-1.696-0.884-2.347-2.98-1.46-4.678
		c2.91-5.563,9.805-7.71,15.366-4.795C90.654,69.594,91.304,71.691,90.418,73.383z M66.812,52.528
		c1.753-0.767,3.804,0.039,4.57,1.792c0.989,2.241,3.608,3.27,5.854,2.29c1.748-0.776,3.804,0.034,4.565,1.782
		c0.771,1.753-0.039,3.804-1.788,4.57c-5.747,2.52-12.471-0.112-14.994-5.859C64.258,55.346,65.059,53.3,66.812,52.528z
		 M12.43,35.847c-1.862,0.448-3.01,2.323-2.56,4.189c0.575,2.379-0.896,4.782-3.278,5.36c-1.865,0.448-3.009,2.321-2.561,4.188
		c0.45,1.863,2.322,3.011,4.189,2.557c6.1-1.469,9.868-7.627,8.397-13.728C16.167,36.544,14.292,35.399,12.43,35.847z
		 M63.439,31.104c-1.047,1.607-0.588,3.758,1.023,4.8c2.056,1.333,2.646,4.083,1.313,6.142c-1.045,1.607-0.583,3.755,1.03,4.802
		c1.609,1.036,3.755,0.582,4.795-1.03c3.408-5.263,1.899-12.33-3.371-15.74C66.626,29.036,64.478,29.5,63.439,31.104z
		 M46.442,71.149c-1.864,0.446-3.013,2.321-2.56,4.187c0.572,2.381-0.896,4.783-3.278,5.363c-1.864,0.449-3.012,2.322-2.563,4.188
		c0.452,1.861,2.325,3.009,4.191,2.554c6.1-1.471,9.865-7.628,8.395-13.73C50.178,71.848,48.303,70.702,46.442,71.149z
		 M76.523,15.885c-0.891-1.697-2.988-2.352-4.688-1.46c-2.166,1.143-4.861,0.303-5.996-1.865c-0.894-1.697-2.988-2.35-4.688-1.455
		c-1.697,0.888-2.349,2.989-1.46,4.683c2.923,5.56,9.814,7.703,15.371,4.783C76.76,19.68,77.41,17.577,76.523,15.885z
		 M92.656,17.977c0.477-1.854-0.635-3.75-2.495-4.229c-2.368-0.613-3.802-3.038-3.187-5.413c0.481-1.857-0.635-3.745-2.492-4.225
		c-1.854-0.477-3.748,0.635-4.224,2.493c-1.572,6.074,2.095,12.292,8.174,13.865C90.283,20.944,92.176,19.83,92.656,17.977z
		 M62.824,91.581c1.727-0.84,2.444-2.918,1.595-4.644c-1.074-2.197-0.156-4.854,2.041-5.942c1.724-0.84,2.437-2.915,1.592-4.634
		c-0.843-1.719-2.92-2.437-4.644-1.592c-5.636,2.754-7.974,9.582-5.226,15.224C59.023,91.708,61.104,92.421,62.824,91.581z
		 M5.322,79.364c-2.37-0.612-3.8-3.037-3.188-5.412c0.448-1.731-0.5-3.475-2.135-4.095v14.538c1.07,0.746,2.258,1.338,3.588,1.688
		c1.854,0.474,3.747-0.644,4.227-2.49C8.295,81.737,7.183,79.843,5.322,79.364z M99.644,69.726c-1.855-0.474-3.75,0.635-4.229,2.495
		c-1.226,4.741,0.767,9.543,4.585,12.18V69.857C99.883,69.813,99.768,69.755,99.644,69.726z M4.537,65.72
		c0.061,1.916,1.66,3.418,3.583,3.354c2.447-0.076,4.5,1.849,4.583,4.304c0.057,1.919,1.663,3.413,3.58,3.354
		c1.914-0.059,3.416-1.665,3.355-3.581C19.439,66.879,14.172,61.942,7.9,62.143C5.985,62.204,4.48,63.803,4.537,65.72z
		 M41.875,3.807c-1.205,1.488-0.982,3.673,0.508,4.88c1.486,1.208,3.672,0.982,4.882-0.508c1.94-2.388,2.744-5.333,2.489-8.18H42.75
		C43.048,1.29,42.772,2.703,41.875,3.807z M45.6,92.172c-1.489-1.209-3.672-0.981-4.882,0.508c-1.206,1.485-0.982,3.672,0.507,4.877
		c0.796,0.647,1.308,1.509,1.523,2.441h7.006C49.492,97.04,48.08,94.186,45.6,92.172z M26.143,46.925
		c-6.257-0.471-11.733,4.234-12.205,10.494c-0.145,1.911,1.287,3.576,3.2,3.719c1.91,0.146,3.577-1.288,3.72-3.201
		c0.185-2.441,2.322-4.277,4.764-4.093c1.913,0.143,3.578-1.289,3.723-3.202C29.485,48.734,28.052,47.066,26.143,46.925z
		 M23.953,17.474c-1.82-0.599-3.782,0.391-4.382,2.212c-0.766,2.325-3.28,3.595-5.608,2.827c-1.82-0.597-3.782,0.393-4.38,2.214
		c-0.6,1.822,0.39,3.781,2.21,4.382c5.961,1.961,12.409-1.291,14.37-7.253C26.763,20.035,25.772,18.072,23.953,17.474z
		 M40.62,67.865c-0.312-1.895-2.1-3.176-3.99-2.863c-2.416,0.4-4.706-1.24-5.105-3.657c-0.315-1.89-2.101-3.172-3.989-2.859
		c-1.896,0.312-3.172,2.1-2.863,3.994c1.027,6.189,6.895,10.39,13.088,9.368C39.65,71.537,40.933,69.75,40.62,67.865z M64.873,3.552
		C70.012,6.32,76.313,4.683,79.57,0h-16.47C62.896,1.402,63.555,2.842,64.873,3.552z M78.887,94.228
		c-1.69-0.908-3.794-0.278-4.705,1.406c-1.16,2.153-3.858,2.969-6.014,1.807c-1.691-0.908-3.794-0.273-4.699,1.406
		c-0.198,0.366-0.312,0.757-0.365,1.147h16.472c0.244-0.356,0.515-0.679,0.723-1.074C81.201,97.24,80.571,95.136,78.887,94.228z
		 M22.095,9.902c0.57,1.83,2.515,2.853,4.346,2.283c1.831-0.57,2.852-2.515,2.282-4.346C27.996,5.5,29.306,3.008,31.644,2.28
		c1.132-0.353,1.951-1.23,2.282-2.28H23.643C21.695,2.788,21.01,6.412,22.095,9.902z M33.925,97.936
		c-0.573-1.828-2.515-2.852-4.345-2.282c-2.502,0.781-4.545,2.349-5.94,4.347h10.285C34.125,99.35,34.143,98.634,33.925,97.936z
		 M98.657,0.265C98.934,0.147,99.209,0.06,99.49,0h-4.08C96.35,0.6,97.559,0.737,98.657,0.265z M94.097,98.451
		c0.286,0.659,0.752,1.187,1.313,1.548h4.08c0.168-0.039,0.339-0.059,0.51-0.078v-6.952c-1.369,0.054-2.754,0.354-4.087,0.923
		C94.152,94.647,93.34,96.69,94.097,98.451z M98.146,5.693c-1.838,0.546-2.883,2.475-2.341,4.312
		c0.737,2.483,2.251,4.525,4.194,5.945V5.657C99.409,5.505,98.771,5.505,98.146,5.693z M60.244,68.725
		c1.167-1.519,0.887-3.698-0.635-4.867c-1.938-1.495-2.303-4.289-0.811-6.229c1.172-1.517,0.887-3.696-0.635-4.867
		c-1.512-1.173-3.696-0.884-4.868,0.635c-3.827,4.976-2.891,12.136,2.079,15.963C56.896,70.526,59.074,70.248,60.244,68.725z
		 M82.492,41.752c1.893-0.312,3.172-2.101,2.859-3.99c-0.4-2.418,1.24-4.708,3.647-5.107c1.895-0.317,3.174-2.098,2.861-3.992
		c-0.308-1.893-2.104-3.169-3.994-2.854c-6.194,1.026-10.396,6.901-9.36,13.092C78.818,40.794,80.604,42.069,82.492,41.752z
		 M41.308,45.927c0.023,2.448-1.954,4.454-4.401,4.478c-1.92,0.015-3.459,1.582-3.444,3.496c0.019,1.917,1.584,3.457,3.496,3.442
		c6.279-0.054,11.339-5.2,11.29-11.479c-0.016-1.915-1.58-3.459-3.496-3.439C42.835,42.442,41.295,44.01,41.308,45.927z
		 M4.495,2.585c0.758,1.759,2.8,2.572,4.56,1.814C10.762,3.663,11.578,1.72,10.935,0H1.328C2.692,0.288,3.902,1.209,4.495,2.585z
		 M0,92.968v6.953c0.447-0.042,0.895-0.015,1.328,0.078h9.605c-0.02-0.054-0.043-0.107-0.065-0.161
		C8.96,95.409,4.553,92.809,0,92.968z M9.952,17.682c1.838-0.546,2.885-2.475,2.343-4.315c-0.545-1.837-2.478-2.885-4.315-2.339
		c-2.347,0.697-4.822-0.648-5.52-2.996C2.1,6.822,1.14,5.953,0,5.657v10.291C2.77,17.972,6.417,18.729,9.952,17.682z M1.035,38.649
		c1.709,0.868,3.798,0.185,4.664-1.52c2.84-5.599,0.6-12.46-4.996-15.305C0.475,21.71,0.24,21.622,0,21.562v16.291
		C0.283,38.17,0.63,38.444,1.035,38.649z M96.04,23.35c-0.869,1.709-0.186,3.797,1.523,4.665c2.183,1.107,3.057,3.787,1.948,5.971
		c-0.665,1.304-0.42,2.832,0.484,3.861V21.562C98.457,21.159,96.789,21.87,96.04,23.35z M41.715,19.48
		c2.255-0.956,4.868,0.105,5.825,2.36c0.747,1.765,2.782,2.59,4.545,1.844c1.765-0.749,2.591-2.784,1.841-4.549
		c-2.449-5.78-9.139-8.49-14.918-6.042c-1.768,0.749-2.593,2.784-1.843,4.548C37.913,19.405,39.947,20.23,41.715,19.48z
		 M87.148,53.674c2.256-0.958,4.869,0.103,5.825,2.358c0.747,1.765,2.78,2.59,4.544,1.843c1.765-0.752,2.59-2.783,1.84-4.548
		c-2.448-5.78-9.138-8.49-14.919-6.043c-1.768,0.75-2.591,2.783-1.841,4.546C83.35,53.598,85.381,54.423,87.148,53.674z
		 M20.862,91.596c0.719-2.342,3.214-3.657,5.556-2.935c1.831,0.565,3.777-0.462,4.339-2.29c0.562-1.832-0.46-3.775-2.296-4.337
		c-5.995-1.85-12.378,1.516-14.228,7.516c-0.567,1.836,0.459,3.778,2.29,4.341C18.355,94.454,20.292,93.429,20.862,91.596z
		 M59.111,37.292c-2.759-5.632-9.591-7.967-15.222-5.203c-1.723,0.845-2.433,2.922-1.589,4.64c0.843,1.72,2.923,2.433,4.641,1.589
		c2.201-1.078,4.874-0.167,5.951,2.029c0.846,1.72,2.923,2.431,4.637,1.587C59.248,41.092,59.956,39.01,59.111,37.292z
		 M92.202,89.125c-2.881-5.574-9.771-7.759-15.337-4.866c-1.704,0.882-2.365,2.972-1.484,4.676c0.88,1.698,2.969,2.363,4.672,1.481
		c2.178-1.123,4.864-0.271,5.991,1.902c0.884,1.698,2.969,2.363,4.675,1.484C92.422,92.919,93.081,90.824,92.202,89.125z"/>
</g>
</svg>
