<svg version="1.1" id="Layer_1" xmlns="http://www.w3.org/2000/svg" xmlns:xlink="http://www.w3.org/1999/xlink" x="0px" y="0px"
	 width="30px" height="30px" viewBox="0 0 30 30" enable-background="new 0 0 30 30" xml:space="preserve">
<path fill="#08161D" d="M25.363,14.99l-5.188,5.186l-2.304-2.306l2.881-2.881l-2.881-2.883l2.304-2.304l2.882,2.881L25.363,14.99z
	 M29.979,6.923V2.312l-0.004-0.003l-2.307,2.306L22.482,9.8l2.307,2.306l5.186-5.187L29.979,6.923z M14.989,21.905l5.187,5.189
	l2.307-2.306l-5.188-5.19l-2.306-2.306l-2.306,2.306l-5.187,5.188l2.306,2.307L14.989,21.905z M14.988,12.683l2.304-2.305
	L22.48,5.19l-2.305-2.305l-5.188,5.189L9.799,2.885L7.495,5.19l5.188,5.188L14.988,12.683z M6.918,17.295l2.882,2.881l2.307-2.306
	l-2.882-2.881l2.882-2.883L9.801,9.8l-5.188,5.189L6.918,17.295z M19.601,0l-0.002,0.003l2.307,2.306l2.881,2.881l2.307-2.306
	l-2.884-2.881L24.214,0H19.601z M5.765,0.002L2.883,2.884L5.189,5.19l5.187-5.187L10.372,0H5.763L5.765,0.002z M24.211,29.977
	l2.884-2.882l-2.306-2.306l-5.188,5.188l0.002,0.002h4.613L24.211,29.977z M29.979,23.058l-0.004,0.002l-5.188-5.188l-2.304,2.304
	l5.188,5.19l2.305,2.304l0.004-0.004V23.058z M10.376,29.979l0.002-0.002L8.071,27.67l-2.882-2.881l-2.304,2.304l2.881,2.882
	l-0.003,0.004H10.376z M0,6.92l0.002-0.002l5.188,5.188L7.496,9.8L2.309,4.612L0.002,2.306L0,2.309V6.92z M0.002,27.668l2.304-2.305
	l5.189-5.188L5.19,17.87L0.002,23.06L0,23.058v4.608L0.002,27.668z"/>
</svg>
